%TF.GenerationSoftware,KiCad,Pcbnew,(6.0.5-0)*%
%TF.CreationDate,2022-07-02T10:30:04-05:00*%
%TF.ProjectId,AM_modulator,414d5f6d-6f64-4756-9c61-746f722e6b69,rev?*%
%TF.SameCoordinates,Original*%
%TF.FileFunction,Soldermask,Top*%
%TF.FilePolarity,Negative*%
%FSLAX46Y46*%
G04 Gerber Fmt 4.6, Leading zero omitted, Abs format (unit mm)*
G04 Created by KiCad (PCBNEW (6.0.5-0)) date 2022-07-02 10:30:04*
%MOMM*%
%LPD*%
G01*
G04 APERTURE LIST*
%ADD10C,4.000000*%
%ADD11C,1.700000*%
%ADD12C,2.000000*%
%ADD13R,1.700000X1.700000*%
%ADD14O,1.700000X1.700000*%
%ADD15C,2.200000*%
%ADD16C,1.500000*%
%ADD17C,2.300000*%
G04 APERTURE END LIST*
D10*
%TO.C,Antena+1*%
X92230000Y-110700000D03*
%TD*%
D11*
%TO.C,J3*%
X56300000Y-110450000D03*
D12*
X58700000Y-112850000D03*
X58700000Y-108050000D03*
X53900000Y-108050000D03*
X53900000Y-112850000D03*
%TD*%
D13*
%TO.C,J2*%
X75032500Y-128850000D03*
D14*
X79032500Y-128850000D03*
%TD*%
D15*
%TO.C,Lpi1*%
X88100000Y-110570000D03*
X83185000Y-113630000D03*
%TD*%
D16*
%TO.C,L1*%
X49250000Y-119900000D03*
D17*
X52750000Y-118300000D03*
X52750000Y-128300000D03*
D16*
X49250000Y-126700000D03*
X49250000Y-123300000D03*
X56250000Y-119900000D03*
X56250000Y-126700000D03*
%TD*%
D10*
%TO.C,Antena-1*%
X48500000Y-110850000D03*
%TD*%
D11*
%TO.C,J4*%
X71750000Y-110400000D03*
D12*
X74150000Y-112800000D03*
X74150000Y-108000000D03*
X69350000Y-108000000D03*
X69350000Y-112800000D03*
%TD*%
D11*
%TO.C,J4*%
X71750000Y-82487500D03*
D12*
X74150000Y-84887500D03*
X74150000Y-80087500D03*
X69350000Y-80087500D03*
X69350000Y-84887500D03*
%TD*%
D16*
%TO.C,L1*%
X49250000Y-91987500D03*
D17*
X52750000Y-90387500D03*
X52750000Y-100387500D03*
D16*
X49250000Y-98787500D03*
X49250000Y-95387500D03*
X56250000Y-91987500D03*
X56250000Y-98787500D03*
%TD*%
D10*
%TO.C,Antena-1*%
X48500000Y-82937500D03*
%TD*%
D15*
%TO.C,Lpi1*%
X88100000Y-82657500D03*
X83185000Y-85717500D03*
%TD*%
D10*
%TO.C,Antena+1*%
X92230000Y-82787500D03*
%TD*%
D11*
%TO.C,J3*%
X56300000Y-82537500D03*
D12*
X58700000Y-84937500D03*
X58700000Y-80137500D03*
X53900000Y-80137500D03*
X53900000Y-84937500D03*
%TD*%
D13*
%TO.C,J2*%
X75032500Y-100937500D03*
D14*
X79032500Y-100937500D03*
%TD*%
D13*
%TO.C,J2*%
X75032500Y-72950000D03*
D14*
X79032500Y-72950000D03*
%TD*%
D11*
%TO.C,J4*%
X71750000Y-54500000D03*
D12*
X74150000Y-56900000D03*
X74150000Y-52100000D03*
X69350000Y-52100000D03*
X69350000Y-56900000D03*
%TD*%
D11*
%TO.C,J3*%
X56300000Y-54550000D03*
D12*
X58700000Y-56950000D03*
X58700000Y-52150000D03*
X53900000Y-52150000D03*
X53900000Y-56950000D03*
%TD*%
D10*
%TO.C,Antena+1*%
X92230000Y-54800000D03*
%TD*%
D15*
%TO.C,Lpi1*%
X88100000Y-54670000D03*
X83185000Y-57730000D03*
%TD*%
D10*
%TO.C,Antena-1*%
X48500000Y-54950000D03*
%TD*%
D16*
%TO.C,L1*%
X49250000Y-64000000D03*
D17*
X52750000Y-62400000D03*
X52750000Y-72400000D03*
D16*
X49250000Y-70800000D03*
X49250000Y-67400000D03*
X56250000Y-64000000D03*
X56250000Y-70800000D03*
%TD*%
M02*
