%TF.GenerationSoftware,KiCad,Pcbnew,(6.0.5-0)*%
%TF.CreationDate,2022-07-01T09:39:55-05:00*%
%TF.ProjectId,AM_modulator,414d5f6d-6f64-4756-9c61-746f722e6b69,rev?*%
%TF.SameCoordinates,Original*%
%TF.FileFunction,Copper,L2,Bot*%
%TF.FilePolarity,Positive*%
%FSLAX46Y46*%
G04 Gerber Fmt 4.6, Leading zero omitted, Abs format (unit mm)*
G04 Created by KiCad (PCBNEW (6.0.5-0)) date 2022-07-01 09:39:55*
%MOMM*%
%LPD*%
G01*
G04 APERTURE LIST*
G04 Aperture macros list*
%AMRoundRect*
0 Rectangle with rounded corners*
0 $1 Rounding radius*
0 $2 $3 $4 $5 $6 $7 $8 $9 X,Y pos of 4 corners*
0 Add a 4 corners polygon primitive as box body*
4,1,4,$2,$3,$4,$5,$6,$7,$8,$9,$2,$3,0*
0 Add four circle primitives for the rounded corners*
1,1,$1+$1,$2,$3*
1,1,$1+$1,$4,$5*
1,1,$1+$1,$6,$7*
1,1,$1+$1,$8,$9*
0 Add four rect primitives between the rounded corners*
20,1,$1+$1,$2,$3,$4,$5,0*
20,1,$1+$1,$4,$5,$6,$7,0*
20,1,$1+$1,$6,$7,$8,$9,0*
20,1,$1+$1,$8,$9,$2,$3,0*%
G04 Aperture macros list end*
%TA.AperFunction,SMDPad,CuDef*%
%ADD10RoundRect,0.250000X0.625000X-0.400000X0.625000X0.400000X-0.625000X0.400000X-0.625000X-0.400000X0*%
%TD*%
%TA.AperFunction,ComponentPad*%
%ADD11C,2.200000*%
%TD*%
%TA.AperFunction,SMDPad,CuDef*%
%ADD12RoundRect,0.250000X-0.625000X0.312500X-0.625000X-0.312500X0.625000X-0.312500X0.625000X0.312500X0*%
%TD*%
%TA.AperFunction,ComponentPad*%
%ADD13C,2.300000*%
%TD*%
%TA.AperFunction,ComponentPad*%
%ADD14C,1.500000*%
%TD*%
%TA.AperFunction,ComponentPad*%
%ADD15C,1.508000*%
%TD*%
%TA.AperFunction,ComponentPad*%
%ADD16C,1.920000*%
%TD*%
%TA.AperFunction,ComponentPad*%
%ADD17R,1.700000X1.700000*%
%TD*%
%TA.AperFunction,ComponentPad*%
%ADD18O,1.700000X1.700000*%
%TD*%
%TA.AperFunction,ComponentPad*%
%ADD19C,4.000000*%
%TD*%
%TA.AperFunction,SMDPad,CuDef*%
%ADD20RoundRect,0.250000X-0.312500X-0.625000X0.312500X-0.625000X0.312500X0.625000X-0.312500X0.625000X0*%
%TD*%
%TA.AperFunction,SMDPad,CuDef*%
%ADD21RoundRect,0.250000X0.312500X0.625000X-0.312500X0.625000X-0.312500X-0.625000X0.312500X-0.625000X0*%
%TD*%
%TA.AperFunction,SMDPad,CuDef*%
%ADD22RoundRect,0.250000X0.475000X-0.337500X0.475000X0.337500X-0.475000X0.337500X-0.475000X-0.337500X0*%
%TD*%
%TA.AperFunction,SMDPad,CuDef*%
%ADD23RoundRect,0.425000X-1.075000X-0.425000X1.075000X-0.425000X1.075000X0.425000X-1.075000X0.425000X0*%
%TD*%
%TA.AperFunction,SMDPad,CuDef*%
%ADD24RoundRect,0.725000X-0.775000X-0.725000X0.775000X-0.725000X0.775000X0.725000X-0.775000X0.725000X0*%
%TD*%
%TA.AperFunction,SMDPad,CuDef*%
%ADD25RoundRect,0.450000X-1.050000X-0.450000X1.050000X-0.450000X1.050000X0.450000X-1.050000X0.450000X0*%
%TD*%
%TA.AperFunction,SMDPad,CuDef*%
%ADD26RoundRect,0.600000X-0.900000X-0.600000X0.900000X-0.600000X0.900000X0.600000X-0.900000X0.600000X0*%
%TD*%
%TA.AperFunction,SMDPad,CuDef*%
%ADD27RoundRect,0.150000X0.150000X-0.587500X0.150000X0.587500X-0.150000X0.587500X-0.150000X-0.587500X0*%
%TD*%
%TA.AperFunction,SMDPad,CuDef*%
%ADD28RoundRect,0.250000X-0.337500X-0.475000X0.337500X-0.475000X0.337500X0.475000X-0.337500X0.475000X0*%
%TD*%
%TA.AperFunction,SMDPad,CuDef*%
%ADD29RoundRect,0.250000X-0.400000X-0.625000X0.400000X-0.625000X0.400000X0.625000X-0.400000X0.625000X0*%
%TD*%
%TA.AperFunction,SMDPad,CuDef*%
%ADD30RoundRect,0.250000X-0.475000X0.337500X-0.475000X-0.337500X0.475000X-0.337500X0.475000X0.337500X0*%
%TD*%
%TA.AperFunction,SMDPad,CuDef*%
%ADD31RoundRect,0.250000X0.625000X-0.312500X0.625000X0.312500X-0.625000X0.312500X-0.625000X-0.312500X0*%
%TD*%
%TA.AperFunction,SMDPad,CuDef*%
%ADD32RoundRect,0.250000X-0.625000X0.400000X-0.625000X-0.400000X0.625000X-0.400000X0.625000X0.400000X0*%
%TD*%
%TA.AperFunction,SMDPad,CuDef*%
%ADD33RoundRect,0.250000X0.337500X0.475000X-0.337500X0.475000X-0.337500X-0.475000X0.337500X-0.475000X0*%
%TD*%
%TA.AperFunction,SMDPad,CuDef*%
%ADD34RoundRect,0.150000X0.587500X0.150000X-0.587500X0.150000X-0.587500X-0.150000X0.587500X-0.150000X0*%
%TD*%
%TA.AperFunction,SMDPad,CuDef*%
%ADD35RoundRect,0.250000X0.400000X0.625000X-0.400000X0.625000X-0.400000X-0.625000X0.400000X-0.625000X0*%
%TD*%
%TA.AperFunction,Conductor*%
%ADD36C,0.500000*%
%TD*%
G04 APERTURE END LIST*
D10*
%TO.P,RMc1,1*%
%TO.N,+12V*%
X74450000Y-73600000D03*
%TO.P,RMc1,2*%
%TO.N,/Mixer/RF*%
X74450000Y-70500000D03*
%TD*%
D11*
%TO.P,Lpi1,1,1*%
%TO.N,Net-(Antena+1-Pad1)*%
X91300000Y-55770000D03*
%TO.P,Lpi1,2,2*%
%TO.N,GND*%
X86385000Y-58830000D03*
%TD*%
D12*
%TO.P,SW4,1*%
%TO.N,Net-(J4-Pad1)*%
X80400000Y-56087500D03*
%TO.P,SW4,2*%
%TO.N,/Antenna/RF_Antenna*%
X80400000Y-59012500D03*
%TD*%
D13*
%TO.P,L1,*%
%TO.N,*%
X55950000Y-73500000D03*
D14*
X52450000Y-71900000D03*
X52450000Y-65100000D03*
X52450000Y-68500000D03*
D13*
X55950000Y-63500000D03*
D14*
%TO.P,L1,1,1*%
%TO.N,Net-(C1-Pad1)*%
X59450000Y-65100000D03*
%TO.P,L1,2,2*%
%TO.N,Net-(C2-Pad2)*%
X59450000Y-71900000D03*
%TD*%
D15*
%TO.P,J4,1*%
%TO.N,Net-(J4-Pad1)*%
X74950000Y-55600000D03*
D16*
%TO.P,J4,G1*%
%TO.N,GND*%
X77350000Y-58000000D03*
%TO.P,J4,G2*%
X77350000Y-53200000D03*
%TO.P,J4,G3*%
X72550000Y-53200000D03*
%TO.P,J4,G4*%
X72550000Y-58000000D03*
%TD*%
D17*
%TO.P,J2,1,Pin_1*%
%TO.N,+12V*%
X78700000Y-74050000D03*
D18*
%TO.P,J2,2,Pin_2*%
%TO.N,GND*%
X81240000Y-74050000D03*
%TD*%
D15*
%TO.P,J3,1*%
%TO.N,Net-(J3-Pad1)*%
X59500000Y-55650000D03*
D16*
%TO.P,J3,G1*%
%TO.N,GND*%
X61900000Y-58050000D03*
%TO.P,J3,G2*%
X61900000Y-53250000D03*
%TO.P,J3,G3*%
X57100000Y-53250000D03*
%TO.P,J3,G4*%
X57100000Y-58050000D03*
%TD*%
D19*
%TO.P,Antena+1,1,Pin_1*%
%TO.N,Net-(Antena+1-Pad1)*%
X95430000Y-55900000D03*
%TD*%
%TO.P,Antena-1,1,Pin_1*%
%TO.N,GND*%
X51700000Y-56050000D03*
%TD*%
D20*
%TO.P,SW2,1*%
%TO.N,Net-(J3-Pad1)*%
X64837500Y-57750000D03*
%TO.P,SW2,2*%
%TO.N,/Mixer/LO*%
X67762500Y-57750000D03*
%TD*%
D21*
%TO.P,SW1,1*%
%TO.N,/SMA_probe/signal_in*%
X67762500Y-60550000D03*
%TO.P,SW1,2*%
%TO.N,Net-(J3-Pad1)*%
X64837500Y-60550000D03*
%TD*%
D22*
%TO.P,CMLO1,2*%
%TO.N,/Mixer/LO*%
X77200000Y-62062500D03*
%TO.P,CMLO1,1*%
%TO.N,Net-(CMLO1-Pad1)*%
X77200000Y-64137500D03*
%TD*%
D23*
%TO.P,J1,R*%
%TO.N,unconnected-(J1-PadR)*%
X96100000Y-67410000D03*
D24*
%TO.P,J1,S*%
%TO.N,GND*%
X96100000Y-73610000D03*
%TO.P,J1,T*%
%TO.N,/audio*%
X86100000Y-67110000D03*
D25*
%TO.P,J1,TR*%
%TO.N,N/C*%
X96100000Y-70310000D03*
D26*
%TO.P,J1,TS*%
X86100000Y-71510000D03*
%TD*%
D27*
%TO.P,Q1,1,B*%
%TO.N,Net-(C3-Pad1)*%
X69653800Y-68218700D03*
%TO.P,Q1,2,E*%
%TO.N,Net-(C1-Pad2)*%
X67753800Y-68218700D03*
%TO.P,Q1,3,C*%
%TO.N,Net-(C1-Pad1)*%
X68703800Y-66343700D03*
%TD*%
D28*
%TO.P,CMa1,2*%
%TO.N,GND*%
X79200000Y-70100000D03*
%TO.P,CMa1,1*%
%TO.N,Net-(CMa1-Pad1)*%
X77125000Y-70100000D03*
%TD*%
D29*
%TO.P,RMb2,2*%
%TO.N,GND*%
X82750000Y-61900000D03*
%TO.P,RMb2,1*%
%TO.N,Net-(CMLO1-Pad1)*%
X79650000Y-61900000D03*
%TD*%
D22*
%TO.P,C4,1*%
%TO.N,Net-(C1-Pad1)*%
X71929600Y-65759700D03*
%TO.P,C4,2*%
%TO.N,/SMA_probe/signal_in*%
X71929600Y-63684700D03*
%TD*%
D30*
%TO.P,C5,1*%
%TO.N,GND*%
X71855600Y-71578300D03*
%TO.P,C5,2*%
%TO.N,+12V*%
X71855600Y-73653300D03*
%TD*%
D10*
%TO.P,R1,1*%
%TO.N,+12V*%
X69211800Y-73682600D03*
%TO.P,R1,2*%
%TO.N,Net-(C3-Pad1)*%
X69211800Y-70582600D03*
%TD*%
D31*
%TO.P,SW3,1*%
%TO.N,/Mixer/RF*%
X74650000Y-63562500D03*
%TO.P,SW3,2*%
%TO.N,Net-(J4-Pad1)*%
X74650000Y-60637500D03*
%TD*%
D22*
%TO.P,Cpi11,1*%
%TO.N,GND*%
X91670000Y-63337500D03*
%TO.P,Cpi11,2*%
%TO.N,/Antenna/RF_Antenna*%
X91670000Y-61262500D03*
%TD*%
D28*
%TO.P,Cpi21,1*%
%TO.N,/Antenna/RF_Antenna*%
X94112500Y-60600000D03*
%TO.P,Cpi21,2*%
%TO.N,Net-(Antena+1-Pad1)*%
X96187500Y-60600000D03*
%TD*%
D32*
%TO.P,R2,1*%
%TO.N,Net-(C3-Pad1)*%
X66392400Y-70582600D03*
%TO.P,R2,2*%
%TO.N,GND*%
X66392400Y-73682600D03*
%TD*%
D30*
%TO.P,Cpi1,1*%
%TO.N,/Antenna/RF_Antenna*%
X89170000Y-61312500D03*
%TO.P,Cpi1,2*%
%TO.N,GND*%
X89170000Y-63387500D03*
%TD*%
D33*
%TO.P,C1,1*%
%TO.N,Net-(C1-Pad1)*%
X69614300Y-63928400D03*
%TO.P,C1,2*%
%TO.N,Net-(C1-Pad2)*%
X67539300Y-63928400D03*
%TD*%
D28*
%TO.P,Cpi2,1*%
%TO.N,/Antenna/RF_Antenna*%
X94060000Y-63070000D03*
%TO.P,Cpi2,2*%
%TO.N,Net-(Antena+1-Pad1)*%
X96135000Y-63070000D03*
%TD*%
D34*
%TO.P,QM1,3,C*%
%TO.N,/Mixer/RF*%
X75262500Y-67100000D03*
%TO.P,QM1,2,E*%
%TO.N,Net-(CMa1-Pad1)*%
X77137500Y-68050000D03*
%TO.P,QM1,1,B*%
%TO.N,Net-(CMLO1-Pad1)*%
X77137500Y-66150000D03*
%TD*%
D33*
%TO.P,C2,1*%
%TO.N,Net-(C1-Pad2)*%
X65372500Y-68195600D03*
%TO.P,C2,2*%
%TO.N,Net-(C2-Pad2)*%
X63297500Y-68195600D03*
%TD*%
D35*
%TO.P,RMb1,2*%
%TO.N,Net-(CMLO1-Pad1)*%
X79650000Y-64700000D03*
%TO.P,RMb1,1*%
%TO.N,+12V*%
X82750000Y-64700000D03*
%TD*%
%TO.P,R3,1*%
%TO.N,Net-(C1-Pad2)*%
X65402400Y-65579400D03*
%TO.P,R3,2*%
%TO.N,GND*%
X62302400Y-65579400D03*
%TD*%
D30*
%TO.P,C3,1*%
%TO.N,Net-(C3-Pad1)*%
X63700000Y-70612500D03*
%TO.P,C3,2*%
%TO.N,GND*%
X63700000Y-72687500D03*
%TD*%
D29*
%TO.P,RMe1,2*%
%TO.N,/audio*%
X82750000Y-67500000D03*
%TO.P,RMe1,1*%
%TO.N,Net-(CMa1-Pad1)*%
X79650000Y-67500000D03*
%TD*%
D36*
%TO.N,+12V*%
X74450000Y-73600000D02*
X78250000Y-73600000D01*
X78250000Y-73600000D02*
X78700000Y-74050000D01*
X74450000Y-73600000D02*
X71908900Y-73600000D01*
X71908900Y-73600000D02*
X71855600Y-73653300D01*
%TO.N,/Mixer/RF*%
X74450000Y-70500000D02*
X74450000Y-67912500D01*
X74450000Y-67912500D02*
X75262500Y-67100000D01*
%TO.N,Net-(Antena+1-Pad1)*%
X91300000Y-55770000D02*
X95300000Y-55770000D01*
X95300000Y-55770000D02*
X95430000Y-55900000D01*
%TO.N,/Antenna/RF_Antenna*%
X80400000Y-59012500D02*
X83562500Y-59012500D01*
X83562500Y-59012500D02*
X85862500Y-61312500D01*
X85862500Y-61312500D02*
X89170000Y-61312500D01*
%TO.N,Net-(J4-Pad1)*%
X74950000Y-55600000D02*
X79912500Y-55600000D01*
X79912500Y-55600000D02*
X80400000Y-56087500D01*
%TO.N,+12V*%
X82750000Y-64700000D02*
X83300000Y-64150000D01*
X83300000Y-64150000D02*
X87400000Y-64150000D01*
X87400000Y-64150000D02*
X89700000Y-66450000D01*
X89700000Y-66450000D02*
X89700000Y-72350000D01*
X89700000Y-72350000D02*
X88100000Y-73950000D01*
X88100000Y-73950000D02*
X84800000Y-73950000D01*
X82800000Y-71950000D02*
X79550000Y-71950000D01*
X78650000Y-74000000D02*
X78700000Y-74050000D01*
X84800000Y-73950000D02*
X82800000Y-71950000D01*
X78650000Y-72850000D02*
X78650000Y-74000000D01*
X79550000Y-71950000D02*
X78650000Y-72850000D01*
%TO.N,/audio*%
X82750000Y-67500000D02*
X85710000Y-67500000D01*
X85710000Y-67500000D02*
X86100000Y-67110000D01*
%TO.N,Net-(CMLO1-Pad1)*%
X79650000Y-61900000D02*
X79650000Y-64700000D01*
X79650000Y-64700000D02*
X77762500Y-64700000D01*
X77762500Y-64700000D02*
X77200000Y-64137500D01*
X77137500Y-66150000D02*
X77137500Y-64200000D01*
X77137500Y-64200000D02*
X77200000Y-64137500D01*
%TO.N,Net-(CMa1-Pad1)*%
X77137500Y-68050000D02*
X79100000Y-68050000D01*
X79100000Y-68050000D02*
X79650000Y-67500000D01*
X77125000Y-70100000D02*
X77125000Y-68062500D01*
X77125000Y-68062500D02*
X77137500Y-68050000D01*
%TO.N,Net-(Antena+1-Pad1)*%
X96187500Y-60600000D02*
X96187500Y-63017500D01*
X96187500Y-63017500D02*
X96135000Y-63070000D01*
X96187500Y-58612500D02*
X96200000Y-58600000D01*
X96187500Y-60600000D02*
X96187500Y-58612500D01*
X96200000Y-56670000D02*
X95430000Y-55900000D01*
X96200000Y-58600000D02*
X96200000Y-56670000D01*
%TO.N,/Antenna/RF_Antenna*%
X91670000Y-61262500D02*
X93450000Y-61262500D01*
X93450000Y-61262500D02*
X94112500Y-60600000D01*
X94112500Y-60600000D02*
X94112500Y-63017500D01*
X94112500Y-63017500D02*
X94060000Y-63070000D01*
X89170000Y-61312500D02*
X91620000Y-61312500D01*
X91620000Y-61312500D02*
X91670000Y-61262500D01*
%TO.N,Net-(J4-Pad1)*%
X74950000Y-55600000D02*
X74950000Y-60337500D01*
X74950000Y-60337500D02*
X74650000Y-60637500D01*
%TO.N,/Mixer/LO*%
X77200000Y-62062500D02*
X73312500Y-62062500D01*
X69000000Y-57750000D02*
X67762500Y-57750000D01*
X73312500Y-62062500D02*
X69000000Y-57750000D01*
%TO.N,/SMA_probe/signal_in*%
X67762500Y-60550000D02*
X69850000Y-60550000D01*
X69850000Y-60550000D02*
X71929600Y-62629600D01*
X71929600Y-62629600D02*
X71929600Y-63684700D01*
%TO.N,Net-(J3-Pad1)*%
X64837500Y-57750000D02*
X64837500Y-60550000D01*
X59500000Y-55650000D02*
X64150000Y-55650000D01*
X64150000Y-55650000D02*
X64837500Y-56337500D01*
X64837500Y-56337500D02*
X64837500Y-57750000D01*
%TO.N,/Mixer/RF*%
X74650000Y-63562500D02*
X74650000Y-66487500D01*
X74650000Y-66487500D02*
X75262500Y-67100000D01*
%TO.N,Net-(C2-Pad2)*%
X59450000Y-71900000D02*
X61100000Y-71900000D01*
X61400000Y-71600000D02*
X61400000Y-69350000D01*
X61100000Y-71900000D02*
X61400000Y-71600000D01*
X61400000Y-69350000D02*
X62554400Y-68195600D01*
X62554400Y-68195600D02*
X63297500Y-68195600D01*
%TO.N,Net-(C1-Pad1)*%
X59450000Y-65100000D02*
X59450000Y-63200000D01*
X59450000Y-63200000D02*
X60475480Y-62174520D01*
X60475480Y-62174520D02*
X68924520Y-62174520D01*
X68924520Y-62174520D02*
X69614300Y-62864300D01*
X69614300Y-62864300D02*
X69614300Y-63928400D01*
X69838300Y-65759700D02*
X69614300Y-65535700D01*
X71929600Y-65759700D02*
X69838300Y-65759700D01*
X69614300Y-65535700D02*
X69614300Y-63928400D01*
X68703800Y-66343700D02*
X68806300Y-66343700D01*
X68806300Y-66343700D02*
X69614300Y-65535700D01*
%TO.N,Net-(C1-Pad2)*%
X65402400Y-68165700D02*
X65372500Y-68195600D01*
X67730700Y-68195600D02*
X67753800Y-68218700D01*
X65372500Y-68195600D02*
X67730700Y-68195600D01*
X66221600Y-63928400D02*
X65402400Y-64747600D01*
X65402400Y-64747600D02*
X65402400Y-65579400D01*
X65402400Y-65579400D02*
X65402400Y-68165700D01*
X67539300Y-63928400D02*
X66221600Y-63928400D01*
%TO.N,Net-(C3-Pad1)*%
X66392400Y-70582600D02*
X69211800Y-70582600D01*
X69653800Y-68218700D02*
X69653800Y-70140600D01*
X66362500Y-70612500D02*
X66392400Y-70582600D01*
X63700000Y-70612500D02*
X66362500Y-70612500D01*
X69653800Y-70140600D02*
X69211800Y-70582600D01*
%TO.N,+12V*%
X74396700Y-73653300D02*
X74400000Y-73650000D01*
X69211800Y-73682600D02*
X71826300Y-73682600D01*
X71826300Y-73682600D02*
X71855600Y-73653300D01*
%TD*%
%TA.AperFunction,Conductor*%
%TO.N,GND*%
G36*
X56234548Y-52028502D02*
G01*
X56254313Y-52049713D01*
X56256618Y-52047408D01*
X57087188Y-52877978D01*
X57101132Y-52885592D01*
X57102965Y-52885461D01*
X57109580Y-52881210D01*
X57944522Y-52046268D01*
X57947935Y-52049681D01*
X57973680Y-52023925D01*
X58034088Y-52008500D01*
X60966427Y-52008500D01*
X61034548Y-52028502D01*
X61054313Y-52049713D01*
X61056618Y-52047408D01*
X61887188Y-52877978D01*
X61901132Y-52885592D01*
X61902965Y-52885461D01*
X61909580Y-52881210D01*
X62744522Y-52046268D01*
X62747935Y-52049681D01*
X62773680Y-52023925D01*
X62834088Y-52008500D01*
X71665520Y-52008500D01*
X71733641Y-52028502D01*
X71754615Y-52045405D01*
X72537188Y-52827978D01*
X72551132Y-52835592D01*
X72552965Y-52835461D01*
X72559580Y-52831210D01*
X73345385Y-52045405D01*
X73407697Y-52011379D01*
X73434480Y-52008500D01*
X76465520Y-52008500D01*
X76533641Y-52028502D01*
X76554615Y-52045405D01*
X77337188Y-52827978D01*
X77351132Y-52835592D01*
X77352965Y-52835461D01*
X77359580Y-52831210D01*
X78145385Y-52045405D01*
X78207697Y-52011379D01*
X78234480Y-52008500D01*
X97665500Y-52008500D01*
X97733621Y-52028502D01*
X97780114Y-52082158D01*
X97791500Y-52134500D01*
X97791500Y-54505883D01*
X97771498Y-54574004D01*
X97717842Y-54620497D01*
X97647568Y-54630601D01*
X97582988Y-54601107D01*
X97559115Y-54573397D01*
X97465559Y-54425976D01*
X97465556Y-54425972D01*
X97463432Y-54422625D01*
X97262233Y-54179418D01*
X97258597Y-54176003D01*
X97169563Y-54092395D01*
X97032140Y-53963346D01*
X96776779Y-53777816D01*
X96771208Y-53774753D01*
X96503648Y-53627660D01*
X96503647Y-53627659D01*
X96500179Y-53625753D01*
X96496510Y-53624300D01*
X96496505Y-53624298D01*
X96210372Y-53511010D01*
X96210371Y-53511010D01*
X96206702Y-53509557D01*
X95900975Y-53431060D01*
X95587821Y-53391500D01*
X95272179Y-53391500D01*
X94959025Y-53431060D01*
X94653298Y-53509557D01*
X94649629Y-53511010D01*
X94649628Y-53511010D01*
X94363495Y-53624298D01*
X94363490Y-53624300D01*
X94359821Y-53625753D01*
X94356353Y-53627659D01*
X94356352Y-53627660D01*
X94088793Y-53774753D01*
X94083221Y-53777816D01*
X93827860Y-53963346D01*
X93690437Y-54092395D01*
X93601404Y-54176003D01*
X93597767Y-54179418D01*
X93396568Y-54422625D01*
X93227438Y-54689131D01*
X93225754Y-54692710D01*
X93225750Y-54692717D01*
X93109789Y-54939148D01*
X93062686Y-54992269D01*
X92995781Y-55011500D01*
X92792248Y-55011500D01*
X92724127Y-54991498D01*
X92684815Y-54951335D01*
X92646837Y-54889360D01*
X92605328Y-54821624D01*
X92440898Y-54629102D01*
X92248376Y-54464672D01*
X92032502Y-54332384D01*
X92027932Y-54330491D01*
X92027928Y-54330489D01*
X91803164Y-54237389D01*
X91803162Y-54237388D01*
X91798591Y-54235495D01*
X91713968Y-54215179D01*
X91557216Y-54177546D01*
X91557210Y-54177545D01*
X91552403Y-54176391D01*
X91300000Y-54156526D01*
X91047597Y-54176391D01*
X91042790Y-54177545D01*
X91042784Y-54177546D01*
X90886032Y-54215179D01*
X90801409Y-54235495D01*
X90796838Y-54237388D01*
X90796836Y-54237389D01*
X90572072Y-54330489D01*
X90572068Y-54330491D01*
X90567498Y-54332384D01*
X90351624Y-54464672D01*
X90159102Y-54629102D01*
X89994672Y-54821624D01*
X89862384Y-55037498D01*
X89860491Y-55042068D01*
X89860489Y-55042072D01*
X89808929Y-55166550D01*
X89765495Y-55271409D01*
X89706391Y-55517597D01*
X89686526Y-55770000D01*
X89706391Y-56022403D01*
X89707545Y-56027210D01*
X89707546Y-56027216D01*
X89743017Y-56174963D01*
X89765495Y-56268591D01*
X89767388Y-56273162D01*
X89767389Y-56273164D01*
X89856126Y-56487393D01*
X89862384Y-56502502D01*
X89994672Y-56718376D01*
X90159102Y-56910898D01*
X90351624Y-57075328D01*
X90567498Y-57207616D01*
X90572068Y-57209509D01*
X90572072Y-57209511D01*
X90796836Y-57302611D01*
X90801409Y-57304505D01*
X90858158Y-57318129D01*
X91042784Y-57362454D01*
X91042790Y-57362455D01*
X91047597Y-57363609D01*
X91300000Y-57383474D01*
X91552403Y-57363609D01*
X91557210Y-57362455D01*
X91557216Y-57362454D01*
X91741842Y-57318129D01*
X91798591Y-57304505D01*
X91803164Y-57302611D01*
X92027928Y-57209511D01*
X92027932Y-57209509D01*
X92032502Y-57207616D01*
X92248376Y-57075328D01*
X92440898Y-56910898D01*
X92605328Y-56718376D01*
X92684815Y-56588665D01*
X92737463Y-56541034D01*
X92792248Y-56528500D01*
X92905075Y-56528500D01*
X92973196Y-56548502D01*
X93019689Y-56602158D01*
X93024907Y-56615560D01*
X93057866Y-56716998D01*
X93088145Y-56810187D01*
X93093044Y-56825266D01*
X93094731Y-56828852D01*
X93094733Y-56828856D01*
X93225750Y-57107283D01*
X93225754Y-57107290D01*
X93227438Y-57110869D01*
X93396568Y-57377375D01*
X93399093Y-57380427D01*
X93575517Y-57593686D01*
X93597767Y-57620582D01*
X93600657Y-57623296D01*
X93600658Y-57623297D01*
X93613751Y-57635592D01*
X93827860Y-57836654D01*
X94083221Y-58022184D01*
X94086690Y-58024091D01*
X94086693Y-58024093D01*
X94235437Y-58105866D01*
X94359821Y-58174247D01*
X94363490Y-58175700D01*
X94363495Y-58175702D01*
X94649628Y-58288990D01*
X94653298Y-58290443D01*
X94959025Y-58368940D01*
X95272179Y-58408500D01*
X95302113Y-58408500D01*
X95370234Y-58428502D01*
X95416727Y-58482158D01*
X95427171Y-58543118D01*
X95426860Y-58544615D01*
X95427058Y-58551932D01*
X95428954Y-58622021D01*
X95429000Y-58625428D01*
X95429000Y-59424410D01*
X95408998Y-59492531D01*
X95381482Y-59522914D01*
X95375652Y-59526522D01*
X95250695Y-59651697D01*
X95248094Y-59655916D01*
X95190970Y-59696417D01*
X95120047Y-59699649D01*
X95058635Y-59664024D01*
X95052078Y-59656470D01*
X95048478Y-59650652D01*
X94923303Y-59525695D01*
X94917072Y-59521854D01*
X94778968Y-59436725D01*
X94778966Y-59436724D01*
X94772738Y-59432885D01*
X94612254Y-59379655D01*
X94611389Y-59379368D01*
X94611387Y-59379368D01*
X94604861Y-59377203D01*
X94598025Y-59376503D01*
X94598022Y-59376502D01*
X94554969Y-59372091D01*
X94500400Y-59366500D01*
X93724600Y-59366500D01*
X93721354Y-59366837D01*
X93721350Y-59366837D01*
X93625692Y-59376762D01*
X93625688Y-59376763D01*
X93618834Y-59377474D01*
X93612298Y-59379655D01*
X93612296Y-59379655D01*
X93513258Y-59412697D01*
X93451054Y-59433450D01*
X93300652Y-59526522D01*
X93175695Y-59651697D01*
X93171855Y-59657927D01*
X93171854Y-59657928D01*
X93089717Y-59791179D01*
X93082885Y-59802262D01*
X93080581Y-59809209D01*
X93044121Y-59919134D01*
X93027203Y-59970139D01*
X93016500Y-60074600D01*
X93016500Y-60378000D01*
X92996498Y-60446121D01*
X92942842Y-60492614D01*
X92890500Y-60504000D01*
X92845590Y-60504000D01*
X92777469Y-60483998D01*
X92747086Y-60456482D01*
X92743478Y-60450652D01*
X92618303Y-60325695D01*
X92556025Y-60287306D01*
X92473968Y-60236725D01*
X92473966Y-60236724D01*
X92467738Y-60232885D01*
X92307254Y-60179655D01*
X92306389Y-60179368D01*
X92306387Y-60179368D01*
X92299861Y-60177203D01*
X92293025Y-60176503D01*
X92293022Y-60176502D01*
X92249969Y-60172091D01*
X92195400Y-60166500D01*
X91144600Y-60166500D01*
X91141354Y-60166837D01*
X91141350Y-60166837D01*
X91045692Y-60176762D01*
X91045688Y-60176763D01*
X91038834Y-60177474D01*
X91032298Y-60179655D01*
X91032296Y-60179655D01*
X90921859Y-60216500D01*
X90871054Y-60233450D01*
X90720652Y-60326522D01*
X90595695Y-60451697D01*
X90591853Y-60457929D01*
X90591852Y-60457931D01*
X90569546Y-60494117D01*
X90516774Y-60541610D01*
X90462287Y-60554000D01*
X90345590Y-60554000D01*
X90277469Y-60533998D01*
X90247086Y-60506482D01*
X90243478Y-60500652D01*
X90118303Y-60375695D01*
X90112072Y-60371854D01*
X89973968Y-60286725D01*
X89973966Y-60286724D01*
X89967738Y-60282885D01*
X89830321Y-60237306D01*
X89806389Y-60229368D01*
X89806387Y-60229368D01*
X89799861Y-60227203D01*
X89793025Y-60226503D01*
X89793022Y-60226502D01*
X89749969Y-60222091D01*
X89695400Y-60216500D01*
X88644600Y-60216500D01*
X88641354Y-60216837D01*
X88641350Y-60216837D01*
X88545692Y-60226762D01*
X88545688Y-60226763D01*
X88538834Y-60227474D01*
X88532298Y-60229655D01*
X88532296Y-60229655D01*
X88427605Y-60264583D01*
X88371054Y-60283450D01*
X88220652Y-60376522D01*
X88095695Y-60501697D01*
X88092739Y-60506493D01*
X88035386Y-60547155D01*
X87994422Y-60554000D01*
X87058248Y-60554000D01*
X86990127Y-60533998D01*
X86943634Y-60480342D01*
X86933530Y-60410068D01*
X86963024Y-60345488D01*
X87010030Y-60311591D01*
X87112700Y-60269064D01*
X87121494Y-60264583D01*
X87316167Y-60145287D01*
X87325627Y-60134830D01*
X87321844Y-60126054D01*
X86026922Y-58831132D01*
X86749408Y-58831132D01*
X86749539Y-58832965D01*
X86753790Y-58839580D01*
X87678010Y-59763800D01*
X87690390Y-59770560D01*
X87698040Y-59764833D01*
X87819583Y-59566494D01*
X87824064Y-59557700D01*
X87917134Y-59333009D01*
X87920183Y-59323624D01*
X87976959Y-59087137D01*
X87978502Y-59077390D01*
X87997584Y-58834930D01*
X87997584Y-58825070D01*
X87978502Y-58582610D01*
X87976959Y-58572863D01*
X87920183Y-58336376D01*
X87917134Y-58326991D01*
X87824064Y-58102300D01*
X87819583Y-58093506D01*
X87700287Y-57898833D01*
X87689830Y-57889373D01*
X87681054Y-57893156D01*
X86757022Y-58817188D01*
X86749408Y-58831132D01*
X86026922Y-58831132D01*
X85091990Y-57896200D01*
X85079610Y-57889440D01*
X85071960Y-57895167D01*
X84950417Y-58093506D01*
X84945936Y-58102300D01*
X84852866Y-58326991D01*
X84849817Y-58336376D01*
X84793041Y-58572863D01*
X84791498Y-58582610D01*
X84772416Y-58825070D01*
X84772416Y-58834942D01*
X84772511Y-58836150D01*
X84772416Y-58836602D01*
X84772416Y-58839886D01*
X84771726Y-58839886D01*
X84757911Y-58905629D01*
X84708066Y-58956185D01*
X84638800Y-58971767D01*
X84572106Y-58947428D01*
X84557804Y-58935123D01*
X84146270Y-58523589D01*
X84133884Y-58509177D01*
X84125351Y-58497582D01*
X84125346Y-58497577D01*
X84121008Y-58491682D01*
X84115430Y-58486943D01*
X84115427Y-58486940D01*
X84080732Y-58457465D01*
X84073216Y-58450535D01*
X84067521Y-58444840D01*
X84061380Y-58439982D01*
X84045249Y-58427219D01*
X84041845Y-58424428D01*
X83991797Y-58381909D01*
X83991795Y-58381908D01*
X83986215Y-58377167D01*
X83979699Y-58373839D01*
X83974650Y-58370472D01*
X83969521Y-58367305D01*
X83963784Y-58362766D01*
X83897625Y-58331845D01*
X83893725Y-58329939D01*
X83887952Y-58326991D01*
X83828692Y-58296731D01*
X83821584Y-58294992D01*
X83815941Y-58292893D01*
X83810178Y-58290976D01*
X83803550Y-58287878D01*
X83732083Y-58273013D01*
X83727799Y-58272043D01*
X83656890Y-58254692D01*
X83651288Y-58254344D01*
X83651285Y-58254344D01*
X83645736Y-58254000D01*
X83645738Y-58253964D01*
X83641745Y-58253725D01*
X83637553Y-58253351D01*
X83630385Y-58251860D01*
X83564175Y-58253651D01*
X83552979Y-58253954D01*
X83549572Y-58254000D01*
X81704002Y-58254000D01*
X81635881Y-58233998D01*
X81614984Y-58217173D01*
X81503483Y-58105866D01*
X81498303Y-58100695D01*
X81492072Y-58096854D01*
X81353968Y-58011725D01*
X81353966Y-58011724D01*
X81347738Y-58007885D01*
X81187254Y-57954655D01*
X81186389Y-57954368D01*
X81186387Y-57954368D01*
X81179861Y-57952203D01*
X81173025Y-57951503D01*
X81173022Y-57951502D01*
X81129969Y-57947091D01*
X81075400Y-57941500D01*
X79724600Y-57941500D01*
X79721354Y-57941837D01*
X79721350Y-57941837D01*
X79625692Y-57951762D01*
X79625688Y-57951763D01*
X79618834Y-57952474D01*
X79612298Y-57954655D01*
X79612296Y-57954655D01*
X79568799Y-57969167D01*
X79451054Y-58008450D01*
X79300652Y-58101522D01*
X79175695Y-58226697D01*
X79171855Y-58232927D01*
X79171854Y-58232928D01*
X79090728Y-58364539D01*
X79082885Y-58377262D01*
X79063584Y-58435454D01*
X79031838Y-58531166D01*
X79027203Y-58545139D01*
X79016500Y-58649600D01*
X79016500Y-59375400D01*
X79016837Y-59378646D01*
X79016837Y-59378650D01*
X79026405Y-59470859D01*
X79027474Y-59481166D01*
X79029655Y-59487702D01*
X79029655Y-59487704D01*
X79041320Y-59522668D01*
X79083450Y-59648946D01*
X79176522Y-59799348D01*
X79181704Y-59804521D01*
X79228962Y-59851697D01*
X79301697Y-59924305D01*
X79307927Y-59928145D01*
X79307928Y-59928146D01*
X79445090Y-60012694D01*
X79452262Y-60017115D01*
X79532005Y-60043564D01*
X79613611Y-60070632D01*
X79613613Y-60070632D01*
X79620139Y-60072797D01*
X79626975Y-60073497D01*
X79626978Y-60073498D01*
X79669134Y-60077817D01*
X79724600Y-60083500D01*
X81075400Y-60083500D01*
X81078646Y-60083163D01*
X81078650Y-60083163D01*
X81174308Y-60073238D01*
X81174312Y-60073237D01*
X81181166Y-60072526D01*
X81187702Y-60070345D01*
X81187704Y-60070345D01*
X81319806Y-60026272D01*
X81348946Y-60016550D01*
X81499348Y-59923478D01*
X81544881Y-59877866D01*
X81614643Y-59807982D01*
X81676926Y-59773903D01*
X81703816Y-59771000D01*
X83196129Y-59771000D01*
X83264250Y-59791002D01*
X83285224Y-59807905D01*
X85278730Y-61801411D01*
X85291116Y-61815823D01*
X85299649Y-61827418D01*
X85299654Y-61827423D01*
X85303992Y-61833318D01*
X85309570Y-61838057D01*
X85309573Y-61838060D01*
X85344268Y-61867535D01*
X85351784Y-61874465D01*
X85357479Y-61880160D01*
X85360361Y-61882440D01*
X85379751Y-61897781D01*
X85383155Y-61900572D01*
X85418996Y-61931021D01*
X85438785Y-61947833D01*
X85445301Y-61951161D01*
X85450350Y-61954528D01*
X85455479Y-61957695D01*
X85461216Y-61962234D01*
X85527375Y-61993155D01*
X85531269Y-61995058D01*
X85596308Y-62028269D01*
X85603416Y-62030008D01*
X85609059Y-62032107D01*
X85614822Y-62034024D01*
X85621450Y-62037122D01*
X85628612Y-62038612D01*
X85628613Y-62038612D01*
X85692912Y-62051986D01*
X85697196Y-62052956D01*
X85768110Y-62070308D01*
X85773712Y-62070656D01*
X85773715Y-62070656D01*
X85779264Y-62071000D01*
X85779262Y-62071036D01*
X85783255Y-62071275D01*
X85787447Y-62071649D01*
X85794615Y-62073140D01*
X85872020Y-62071046D01*
X85875428Y-62071000D01*
X87994410Y-62071000D01*
X88062531Y-62091002D01*
X88092914Y-62118518D01*
X88096522Y-62124348D01*
X88221697Y-62249305D01*
X88226235Y-62252102D01*
X88266824Y-62309353D01*
X88270054Y-62380276D01*
X88234428Y-62441687D01*
X88225932Y-62449062D01*
X88215793Y-62457098D01*
X88101261Y-62571829D01*
X88092249Y-62583240D01*
X88007184Y-62721243D01*
X88001037Y-62734424D01*
X87949862Y-62888710D01*
X87946995Y-62902086D01*
X87937328Y-62996438D01*
X87937000Y-63002855D01*
X87937000Y-63115385D01*
X87941475Y-63130624D01*
X87942865Y-63131829D01*
X87950548Y-63133500D01*
X90378885Y-63133500D01*
X90394124Y-63129026D01*
X90395889Y-63126988D01*
X90455615Y-63088604D01*
X90491114Y-63083500D01*
X91798000Y-63083500D01*
X91866121Y-63103502D01*
X91912614Y-63157158D01*
X91924000Y-63209500D01*
X91924000Y-64414884D01*
X91928475Y-64430123D01*
X91929865Y-64431328D01*
X91937548Y-64432999D01*
X92192095Y-64432999D01*
X92198614Y-64432662D01*
X92294206Y-64422743D01*
X92307600Y-64419851D01*
X92461784Y-64368412D01*
X92474962Y-64362239D01*
X92612807Y-64276937D01*
X92624208Y-64267901D01*
X92738739Y-64153171D01*
X92747751Y-64141760D01*
X92832816Y-64003757D01*
X92838963Y-63990576D01*
X92847350Y-63965290D01*
X92887781Y-63906931D01*
X92953345Y-63879694D01*
X93023227Y-63892228D01*
X93074087Y-63938654D01*
X93124022Y-64019348D01*
X93249197Y-64144305D01*
X93255427Y-64148145D01*
X93255428Y-64148146D01*
X93392590Y-64232694D01*
X93399762Y-64237115D01*
X93471737Y-64260988D01*
X93561111Y-64290632D01*
X93561113Y-64290632D01*
X93567639Y-64292797D01*
X93574475Y-64293497D01*
X93574478Y-64293498D01*
X93617531Y-64297909D01*
X93672100Y-64303500D01*
X94447900Y-64303500D01*
X94451146Y-64303163D01*
X94451150Y-64303163D01*
X94546808Y-64293238D01*
X94546812Y-64293237D01*
X94553666Y-64292526D01*
X94560202Y-64290345D01*
X94560204Y-64290345D01*
X94692306Y-64246272D01*
X94721446Y-64236550D01*
X94871848Y-64143478D01*
X94996805Y-64018303D01*
X94999406Y-64014084D01*
X95056530Y-63973583D01*
X95127453Y-63970351D01*
X95188865Y-64005976D01*
X95195422Y-64013530D01*
X95199022Y-64019348D01*
X95324197Y-64144305D01*
X95330427Y-64148145D01*
X95330428Y-64148146D01*
X95467590Y-64232694D01*
X95474762Y-64237115D01*
X95546737Y-64260988D01*
X95636111Y-64290632D01*
X95636113Y-64290632D01*
X95642639Y-64292797D01*
X95649475Y-64293497D01*
X95649478Y-64293498D01*
X95692531Y-64297909D01*
X95747100Y-64303500D01*
X96522900Y-64303500D01*
X96526146Y-64303163D01*
X96526150Y-64303163D01*
X96621808Y-64293238D01*
X96621812Y-64293237D01*
X96628666Y-64292526D01*
X96635202Y-64290345D01*
X96635204Y-64290345D01*
X96767306Y-64246272D01*
X96796446Y-64236550D01*
X96946848Y-64143478D01*
X97071805Y-64018303D01*
X97080771Y-64003757D01*
X97160775Y-63873968D01*
X97160776Y-63873966D01*
X97164615Y-63867738D01*
X97201904Y-63755315D01*
X97218132Y-63706389D01*
X97218132Y-63706387D01*
X97220297Y-63699861D01*
X97231000Y-63595400D01*
X97231000Y-62544600D01*
X97229854Y-62533556D01*
X97220738Y-62445692D01*
X97220737Y-62445688D01*
X97220026Y-62438834D01*
X97204297Y-62391687D01*
X97166368Y-62278002D01*
X97164050Y-62271054D01*
X97070978Y-62120652D01*
X97041276Y-62091002D01*
X96982982Y-62032809D01*
X96948903Y-61970526D01*
X96946000Y-61943636D01*
X96946000Y-61775590D01*
X96966002Y-61707469D01*
X96993518Y-61677086D01*
X96999348Y-61673478D01*
X97124305Y-61548303D01*
X97133678Y-61533097D01*
X97213275Y-61403968D01*
X97213276Y-61403966D01*
X97217115Y-61397738D01*
X97257157Y-61277015D01*
X97270632Y-61236389D01*
X97270632Y-61236387D01*
X97272797Y-61229861D01*
X97273666Y-61221386D01*
X97282388Y-61136251D01*
X97283500Y-61125400D01*
X97283500Y-60074600D01*
X97283163Y-60071350D01*
X97273238Y-59975692D01*
X97273237Y-59975688D01*
X97272526Y-59968834D01*
X97258952Y-59928146D01*
X97218868Y-59808002D01*
X97216550Y-59801054D01*
X97123478Y-59650652D01*
X96998303Y-59525695D01*
X96993507Y-59522739D01*
X96952845Y-59465386D01*
X96946000Y-59424422D01*
X96946000Y-58757837D01*
X96949611Y-58727889D01*
X96956473Y-58699845D01*
X96957808Y-58694390D01*
X96958500Y-58683236D01*
X96958535Y-58683238D01*
X96958775Y-58679266D01*
X96959152Y-58675045D01*
X96960641Y-58667885D01*
X96958546Y-58590458D01*
X96958500Y-58587050D01*
X96958500Y-57954357D01*
X96978502Y-57886236D01*
X97010439Y-57852421D01*
X97028936Y-57838982D01*
X97028938Y-57838980D01*
X97032140Y-57836654D01*
X97193005Y-57685592D01*
X97259342Y-57623297D01*
X97259343Y-57623296D01*
X97262233Y-57620582D01*
X97284484Y-57593686D01*
X97460907Y-57380427D01*
X97463432Y-57377375D01*
X97472169Y-57363609D01*
X97559115Y-57226603D01*
X97612504Y-57179804D01*
X97682719Y-57169299D01*
X97747467Y-57198423D01*
X97786191Y-57257929D01*
X97791500Y-57294117D01*
X97791500Y-66045817D01*
X97771498Y-66113938D01*
X97717842Y-66160431D01*
X97647568Y-66170535D01*
X97608297Y-66158084D01*
X97517259Y-66111698D01*
X97511379Y-66108702D01*
X97487270Y-66102242D01*
X97327413Y-66059408D01*
X97327409Y-66059407D01*
X97321836Y-66057914D01*
X97316080Y-66057461D01*
X97242794Y-66051693D01*
X97242785Y-66051693D01*
X97240337Y-66051500D01*
X96100462Y-66051500D01*
X94959664Y-66051501D01*
X94909780Y-66055426D01*
X94883918Y-66057461D01*
X94883915Y-66057461D01*
X94878164Y-66057914D01*
X94822620Y-66072797D01*
X94713850Y-66101942D01*
X94688621Y-66108702D01*
X94513779Y-66197789D01*
X94361280Y-66321280D01*
X94237789Y-66473779D01*
X94148702Y-66648621D01*
X94146994Y-66654994D01*
X94146994Y-66654995D01*
X94102405Y-66821404D01*
X94097914Y-66838164D01*
X94097461Y-66843920D01*
X94092154Y-66911357D01*
X94091500Y-66919663D01*
X94091501Y-67900336D01*
X94097914Y-67981836D01*
X94148702Y-68171379D01*
X94237789Y-68346221D01*
X94361280Y-68498720D01*
X94513779Y-68622211D01*
X94688621Y-68711298D01*
X94694997Y-68713006D01*
X94695001Y-68713008D01*
X94709812Y-68716977D01*
X94770434Y-68753928D01*
X94801456Y-68817789D01*
X94793026Y-68888284D01*
X94747823Y-68943030D01*
X94711929Y-68959802D01*
X94698348Y-68963696D01*
X94698345Y-68963697D01*
X94692208Y-68965457D01*
X94519643Y-69055672D01*
X94514700Y-69059703D01*
X94514699Y-69059704D01*
X94395166Y-69157193D01*
X94368743Y-69178743D01*
X94364714Y-69183683D01*
X94262338Y-69309209D01*
X94245672Y-69329643D01*
X94242717Y-69335296D01*
X94242716Y-69335297D01*
X94233878Y-69352203D01*
X94155457Y-69502208D01*
X94101784Y-69689389D01*
X94100007Y-69709297D01*
X94091761Y-69801697D01*
X94091500Y-69804616D01*
X94091500Y-70815384D01*
X94091749Y-70818171D01*
X94091749Y-70818177D01*
X94092544Y-70827080D01*
X94101784Y-70930611D01*
X94155457Y-71117792D01*
X94216330Y-71234231D01*
X94237093Y-71273946D01*
X94245672Y-71290357D01*
X94249703Y-71295300D01*
X94249704Y-71295301D01*
X94354100Y-71423303D01*
X94368743Y-71441257D01*
X94373683Y-71445286D01*
X94503835Y-71551435D01*
X94519643Y-71564328D01*
X94525296Y-71567283D01*
X94525297Y-71567284D01*
X94646281Y-71630533D01*
X94697383Y-71679819D01*
X94713727Y-71748909D01*
X94690123Y-71815867D01*
X94659816Y-71845660D01*
X94535504Y-71932059D01*
X94526925Y-71939233D01*
X94379233Y-72086925D01*
X94372059Y-72095504D01*
X94252849Y-72267024D01*
X94247313Y-72276731D01*
X94160362Y-72466647D01*
X94156628Y-72477193D01*
X94104624Y-72679734D01*
X94102853Y-72690290D01*
X94092207Y-72821171D01*
X94092000Y-72826277D01*
X94092000Y-73337885D01*
X94096475Y-73353124D01*
X94097865Y-73354329D01*
X94105548Y-73356000D01*
X96228000Y-73356000D01*
X96296121Y-73376002D01*
X96342614Y-73429658D01*
X96354000Y-73482000D01*
X96354000Y-75549885D01*
X96358475Y-75565124D01*
X96359865Y-75566329D01*
X96367548Y-75568000D01*
X96933723Y-75568000D01*
X96938829Y-75567793D01*
X97069710Y-75557147D01*
X97080266Y-75555376D01*
X97282807Y-75503372D01*
X97293353Y-75499638D01*
X97483269Y-75412687D01*
X97492976Y-75407151D01*
X97593590Y-75337222D01*
X97660943Y-75314769D01*
X97729742Y-75332295D01*
X97778145Y-75384233D01*
X97791500Y-75440687D01*
X97791500Y-75865500D01*
X97771498Y-75933621D01*
X97717842Y-75980114D01*
X97665500Y-75991500D01*
X48934500Y-75991500D01*
X48866379Y-75971498D01*
X48819886Y-75917842D01*
X48808500Y-75865500D01*
X48808500Y-73500000D01*
X54286372Y-73500000D01*
X54306854Y-73760249D01*
X54308008Y-73765056D01*
X54308009Y-73765062D01*
X54345687Y-73922000D01*
X54367796Y-74014089D01*
X54369689Y-74018660D01*
X54369690Y-74018662D01*
X54417051Y-74133000D01*
X54467697Y-74255271D01*
X54604097Y-74477856D01*
X54773637Y-74676363D01*
X54972144Y-74845903D01*
X55194729Y-74982303D01*
X55199299Y-74984196D01*
X55199303Y-74984198D01*
X55302354Y-75026883D01*
X55435911Y-75082204D01*
X55524931Y-75103576D01*
X55684938Y-75141991D01*
X55684944Y-75141992D01*
X55689751Y-75143146D01*
X55950000Y-75163628D01*
X56210249Y-75143146D01*
X56215056Y-75141992D01*
X56215062Y-75141991D01*
X56375069Y-75103576D01*
X56464089Y-75082204D01*
X56597646Y-75026883D01*
X56700697Y-74984198D01*
X56700701Y-74984196D01*
X56705271Y-74982303D01*
X56927856Y-74845903D01*
X57126363Y-74676363D01*
X57295903Y-74477856D01*
X57432303Y-74255271D01*
X57482950Y-74133000D01*
X57484319Y-74129695D01*
X65009401Y-74129695D01*
X65009738Y-74136214D01*
X65019657Y-74231806D01*
X65022549Y-74245200D01*
X65073988Y-74399384D01*
X65080161Y-74412562D01*
X65165463Y-74550407D01*
X65174499Y-74561808D01*
X65289229Y-74676339D01*
X65300640Y-74685351D01*
X65438643Y-74770416D01*
X65451824Y-74776563D01*
X65606110Y-74827738D01*
X65619486Y-74830605D01*
X65713838Y-74840272D01*
X65720254Y-74840600D01*
X66120285Y-74840600D01*
X66135524Y-74836125D01*
X66136729Y-74834735D01*
X66138400Y-74827052D01*
X66138400Y-73954715D01*
X66133925Y-73939476D01*
X66132535Y-73938271D01*
X66124852Y-73936600D01*
X65027516Y-73936600D01*
X65012277Y-73941075D01*
X65011072Y-73942465D01*
X65009401Y-73950148D01*
X65009401Y-74129695D01*
X57484319Y-74129695D01*
X57530310Y-74018662D01*
X57530311Y-74018660D01*
X57532204Y-74014089D01*
X57554313Y-73922000D01*
X57591991Y-73765062D01*
X57591992Y-73765056D01*
X57593146Y-73760249D01*
X57613628Y-73500000D01*
X57593146Y-73239751D01*
X57591992Y-73234944D01*
X57591991Y-73234938D01*
X57542286Y-73027905D01*
X57532204Y-72985911D01*
X57515000Y-72944376D01*
X57434198Y-72749303D01*
X57434196Y-72749299D01*
X57432303Y-72744729D01*
X57295903Y-72522144D01*
X57126363Y-72323637D01*
X56927856Y-72154097D01*
X56705271Y-72017697D01*
X56700701Y-72015804D01*
X56700697Y-72015802D01*
X56468662Y-71919690D01*
X56468660Y-71919689D01*
X56464089Y-71917796D01*
X56389964Y-71900000D01*
X58186693Y-71900000D01*
X58205885Y-72119371D01*
X58262880Y-72332076D01*
X58280870Y-72370655D01*
X58353618Y-72526666D01*
X58353621Y-72526671D01*
X58355944Y-72531653D01*
X58359100Y-72536160D01*
X58359101Y-72536162D01*
X58478616Y-72706846D01*
X58482251Y-72712038D01*
X58637962Y-72867749D01*
X58642471Y-72870906D01*
X58642473Y-72870908D01*
X58698395Y-72910065D01*
X58818346Y-72994056D01*
X59017924Y-73087120D01*
X59230629Y-73144115D01*
X59450000Y-73163307D01*
X59669371Y-73144115D01*
X59882076Y-73087120D01*
X59914297Y-73072095D01*
X62467001Y-73072095D01*
X62467338Y-73078614D01*
X62477257Y-73174206D01*
X62480149Y-73187600D01*
X62531588Y-73341784D01*
X62537761Y-73354962D01*
X62623063Y-73492807D01*
X62632099Y-73504208D01*
X62746829Y-73618739D01*
X62758240Y-73627751D01*
X62896243Y-73712816D01*
X62909424Y-73718963D01*
X63063710Y-73770138D01*
X63077086Y-73773005D01*
X63171438Y-73782672D01*
X63177854Y-73783000D01*
X63427885Y-73783000D01*
X63443124Y-73778525D01*
X63444329Y-73777135D01*
X63446000Y-73769452D01*
X63446000Y-73764884D01*
X63954000Y-73764884D01*
X63958475Y-73780123D01*
X63959865Y-73781328D01*
X63967548Y-73782999D01*
X64222095Y-73782999D01*
X64228614Y-73782662D01*
X64324206Y-73772743D01*
X64337600Y-73769851D01*
X64491784Y-73718412D01*
X64504962Y-73712239D01*
X64642807Y-73626937D01*
X64654208Y-73617901D01*
X64768739Y-73503171D01*
X64777751Y-73491760D01*
X64808726Y-73441509D01*
X64861498Y-73394016D01*
X64931570Y-73382592D01*
X64998498Y-73412400D01*
X65015265Y-73426929D01*
X65022948Y-73428600D01*
X66120285Y-73428600D01*
X66135524Y-73424125D01*
X66136729Y-73422735D01*
X66138400Y-73415052D01*
X66138400Y-72542716D01*
X66133925Y-72527477D01*
X66132535Y-72526272D01*
X66124852Y-72524601D01*
X65720305Y-72524601D01*
X65713786Y-72524938D01*
X65618194Y-72534857D01*
X65604800Y-72537749D01*
X65450616Y-72589188D01*
X65437438Y-72595361D01*
X65299593Y-72680663D01*
X65288192Y-72689699D01*
X65173661Y-72804429D01*
X65164649Y-72815840D01*
X65108562Y-72906831D01*
X65055790Y-72954324D01*
X64985719Y-72965748D01*
X64942560Y-72946527D01*
X64919452Y-72941500D01*
X63972115Y-72941500D01*
X63956876Y-72945975D01*
X63955671Y-72947365D01*
X63954000Y-72955048D01*
X63954000Y-73764884D01*
X63446000Y-73764884D01*
X63446000Y-72959615D01*
X63441525Y-72944376D01*
X63440135Y-72943171D01*
X63432452Y-72941500D01*
X62485116Y-72941500D01*
X62469877Y-72945975D01*
X62468672Y-72947365D01*
X62467001Y-72955048D01*
X62467001Y-73072095D01*
X59914297Y-73072095D01*
X60081654Y-72994056D01*
X60201605Y-72910065D01*
X60257527Y-72870908D01*
X60257529Y-72870906D01*
X60262038Y-72867749D01*
X60417749Y-72712038D01*
X60420908Y-72707527D01*
X60424284Y-72703504D01*
X60483395Y-72664181D01*
X60520802Y-72658500D01*
X61032930Y-72658500D01*
X61051880Y-72659933D01*
X61066115Y-72662099D01*
X61066119Y-72662099D01*
X61073349Y-72663199D01*
X61080641Y-72662606D01*
X61080644Y-72662606D01*
X61126018Y-72658915D01*
X61136233Y-72658500D01*
X61144293Y-72658500D01*
X61161903Y-72656447D01*
X61172507Y-72655211D01*
X61176882Y-72654778D01*
X61242339Y-72649454D01*
X61242342Y-72649453D01*
X61249637Y-72648860D01*
X61256601Y-72646604D01*
X61262560Y-72645413D01*
X61268415Y-72644029D01*
X61275681Y-72643182D01*
X61344327Y-72618265D01*
X61348455Y-72616848D01*
X61410936Y-72596607D01*
X61410938Y-72596606D01*
X61417899Y-72594351D01*
X61424154Y-72590555D01*
X61429628Y-72588049D01*
X61435058Y-72585330D01*
X61441937Y-72582833D01*
X61448058Y-72578820D01*
X61502976Y-72542814D01*
X61506680Y-72540477D01*
X61569107Y-72502595D01*
X61577484Y-72495197D01*
X61577508Y-72495224D01*
X61580500Y-72492571D01*
X61583733Y-72489868D01*
X61589852Y-72485856D01*
X61643128Y-72429617D01*
X61645506Y-72427175D01*
X61888911Y-72183770D01*
X61903323Y-72171384D01*
X61914918Y-72162851D01*
X61914923Y-72162846D01*
X61920818Y-72158508D01*
X61925557Y-72152930D01*
X61925560Y-72152927D01*
X61955035Y-72118232D01*
X61961965Y-72110716D01*
X61967660Y-72105021D01*
X61985281Y-72082749D01*
X61988072Y-72079345D01*
X62030591Y-72029297D01*
X62030592Y-72029295D01*
X62035333Y-72023715D01*
X62038661Y-72017199D01*
X62042028Y-72012150D01*
X62045195Y-72007021D01*
X62049734Y-72001284D01*
X62080655Y-71935125D01*
X62082561Y-71931225D01*
X62090008Y-71916641D01*
X62115769Y-71866192D01*
X62117508Y-71859084D01*
X62119607Y-71853441D01*
X62121524Y-71847678D01*
X62124622Y-71841050D01*
X62139487Y-71769583D01*
X62140457Y-71765299D01*
X62144430Y-71749062D01*
X62157808Y-71694390D01*
X62158500Y-71683236D01*
X62158536Y-71683238D01*
X62158775Y-71679245D01*
X62159149Y-71675053D01*
X62160640Y-71667885D01*
X62158546Y-71590479D01*
X62158500Y-71587072D01*
X62158500Y-69716371D01*
X62178502Y-69648250D01*
X62195405Y-69627276D01*
X62457150Y-69365531D01*
X62519462Y-69331505D01*
X62590277Y-69336570D01*
X62612360Y-69347366D01*
X62631028Y-69358873D01*
X62631033Y-69358875D01*
X62637262Y-69362715D01*
X62785348Y-69411833D01*
X62843707Y-69452262D01*
X62870944Y-69517826D01*
X62858411Y-69587708D01*
X62811983Y-69638569D01*
X62750652Y-69676522D01*
X62625695Y-69801697D01*
X62621855Y-69807927D01*
X62621854Y-69807928D01*
X62537276Y-69945139D01*
X62532885Y-69952262D01*
X62530581Y-69959209D01*
X62498809Y-70055000D01*
X62477203Y-70120139D01*
X62476503Y-70126975D01*
X62476502Y-70126978D01*
X62472091Y-70170031D01*
X62466500Y-70224600D01*
X62466500Y-71000400D01*
X62466837Y-71003646D01*
X62466837Y-71003650D01*
X62475181Y-71084065D01*
X62477474Y-71106166D01*
X62479655Y-71112702D01*
X62479655Y-71112704D01*
X62519138Y-71231047D01*
X62533450Y-71273946D01*
X62626522Y-71424348D01*
X62751697Y-71549305D01*
X62756235Y-71552102D01*
X62796824Y-71609353D01*
X62800054Y-71680276D01*
X62764428Y-71741687D01*
X62755932Y-71749062D01*
X62745793Y-71757098D01*
X62631261Y-71871829D01*
X62622249Y-71883240D01*
X62537184Y-72021243D01*
X62531037Y-72034424D01*
X62479862Y-72188710D01*
X62476995Y-72202086D01*
X62467328Y-72296438D01*
X62467000Y-72302855D01*
X62467000Y-72415385D01*
X62471475Y-72430624D01*
X62472865Y-72431829D01*
X62480548Y-72433500D01*
X64914884Y-72433500D01*
X64930123Y-72429025D01*
X64931328Y-72427635D01*
X64932999Y-72419952D01*
X64932999Y-72302905D01*
X64932662Y-72296386D01*
X64922743Y-72200794D01*
X64919851Y-72187400D01*
X64868412Y-72033216D01*
X64862239Y-72020038D01*
X64776937Y-71882193D01*
X64767901Y-71870792D01*
X64653172Y-71756262D01*
X64644238Y-71749206D01*
X64603177Y-71691288D01*
X64599947Y-71620365D01*
X64635574Y-71558954D01*
X64643407Y-71552154D01*
X64649348Y-71548478D01*
X64774305Y-71423303D01*
X64777261Y-71418507D01*
X64834614Y-71377845D01*
X64875578Y-71371000D01*
X65045532Y-71371000D01*
X65113653Y-71391002D01*
X65152676Y-71430696D01*
X65164418Y-71449670D01*
X65168922Y-71456948D01*
X65294097Y-71581905D01*
X65300327Y-71585745D01*
X65300328Y-71585746D01*
X65437490Y-71670294D01*
X65444662Y-71674715D01*
X65520427Y-71699845D01*
X65606011Y-71728232D01*
X65606013Y-71728232D01*
X65612539Y-71730397D01*
X65619375Y-71731097D01*
X65619378Y-71731098D01*
X65662431Y-71735509D01*
X65717000Y-71741100D01*
X67067800Y-71741100D01*
X67071046Y-71740763D01*
X67071050Y-71740763D01*
X67166708Y-71730838D01*
X67166712Y-71730837D01*
X67173566Y-71730126D01*
X67180102Y-71727945D01*
X67180104Y-71727945D01*
X67329285Y-71678174D01*
X67341346Y-71674150D01*
X67491748Y-71581078D01*
X67616705Y-71455903D01*
X67620544Y-71449675D01*
X67620548Y-71449670D01*
X67650559Y-71400983D01*
X67703331Y-71353490D01*
X67757818Y-71341100D01*
X67846431Y-71341100D01*
X67914552Y-71361102D01*
X67953572Y-71400793D01*
X67988322Y-71456948D01*
X68113497Y-71581905D01*
X68119727Y-71585745D01*
X68119728Y-71585746D01*
X68256890Y-71670294D01*
X68264062Y-71674715D01*
X68339827Y-71699845D01*
X68425411Y-71728232D01*
X68425413Y-71728232D01*
X68431939Y-71730397D01*
X68438775Y-71731097D01*
X68438778Y-71731098D01*
X68481831Y-71735509D01*
X68536400Y-71741100D01*
X69887200Y-71741100D01*
X69890446Y-71740763D01*
X69890450Y-71740763D01*
X69986108Y-71730838D01*
X69986112Y-71730837D01*
X69992966Y-71730126D01*
X69999502Y-71727945D01*
X69999504Y-71727945D01*
X70148685Y-71678174D01*
X70160746Y-71674150D01*
X70311148Y-71581078D01*
X70436105Y-71455903D01*
X70441792Y-71446677D01*
X70484456Y-71377465D01*
X70537228Y-71329972D01*
X70607300Y-71318550D01*
X70618496Y-71320461D01*
X70636145Y-71324300D01*
X71583485Y-71324300D01*
X71598724Y-71319825D01*
X71599929Y-71318435D01*
X71601600Y-71310752D01*
X71601600Y-70500916D01*
X71597125Y-70485677D01*
X71595735Y-70484472D01*
X71588052Y-70482801D01*
X71333505Y-70482801D01*
X71326986Y-70483138D01*
X71231394Y-70493057D01*
X71218000Y-70495949D01*
X71063816Y-70547388D01*
X71050638Y-70553561D01*
X70912793Y-70638863D01*
X70901392Y-70647899D01*
X70810473Y-70738976D01*
X70748190Y-70773055D01*
X70677370Y-70768052D01*
X70620497Y-70725555D01*
X70595629Y-70659056D01*
X70595300Y-70649958D01*
X70595300Y-70132200D01*
X70594049Y-70120139D01*
X70585038Y-70033292D01*
X70585037Y-70033288D01*
X70584326Y-70026434D01*
X70559486Y-69951978D01*
X70530668Y-69865602D01*
X70528350Y-69858654D01*
X70435278Y-69708252D01*
X70436509Y-69707490D01*
X70412917Y-69649199D01*
X70412300Y-69636748D01*
X70412300Y-69089954D01*
X70417303Y-69054802D01*
X70457567Y-68916211D01*
X70457568Y-68916207D01*
X70459362Y-68910031D01*
X70460034Y-68901500D01*
X70462107Y-68875158D01*
X70462107Y-68875150D01*
X70462300Y-68872702D01*
X70462300Y-67564698D01*
X70462107Y-67562242D01*
X70459867Y-67533779D01*
X70459866Y-67533774D01*
X70459362Y-67527369D01*
X70419927Y-67391632D01*
X70415157Y-67375212D01*
X70415156Y-67375210D01*
X70412945Y-67367599D01*
X70379743Y-67311457D01*
X70332291Y-67231220D01*
X70332289Y-67231217D01*
X70328253Y-67224393D01*
X70210607Y-67106747D01*
X70203783Y-67102711D01*
X70203780Y-67102709D01*
X70092004Y-67036605D01*
X70067401Y-67022055D01*
X70059790Y-67019844D01*
X70059788Y-67019843D01*
X69992877Y-67000404D01*
X69907631Y-66975638D01*
X69901226Y-66975134D01*
X69901221Y-66975133D01*
X69872758Y-66972893D01*
X69872750Y-66972893D01*
X69870302Y-66972700D01*
X69638300Y-66972700D01*
X69570179Y-66952698D01*
X69523686Y-66899042D01*
X69512300Y-66846700D01*
X69512300Y-66762571D01*
X69532302Y-66694450D01*
X69549205Y-66673476D01*
X69667058Y-66555623D01*
X69729370Y-66521597D01*
X69765554Y-66519330D01*
X69770415Y-66520341D01*
X69847842Y-66518246D01*
X69851250Y-66518200D01*
X70754010Y-66518200D01*
X70822131Y-66538202D01*
X70852514Y-66565718D01*
X70856122Y-66571548D01*
X70981297Y-66696505D01*
X70987527Y-66700345D01*
X70987528Y-66700346D01*
X71124690Y-66784894D01*
X71131862Y-66789315D01*
X71175247Y-66803705D01*
X71293211Y-66842832D01*
X71293213Y-66842832D01*
X71299739Y-66844997D01*
X71306575Y-66845697D01*
X71306578Y-66845698D01*
X71349631Y-66850109D01*
X71404200Y-66855700D01*
X72455000Y-66855700D01*
X72458246Y-66855363D01*
X72458250Y-66855363D01*
X72553908Y-66845438D01*
X72553912Y-66845437D01*
X72560766Y-66844726D01*
X72567302Y-66842545D01*
X72567304Y-66842545D01*
X72701732Y-66797696D01*
X72728546Y-66788750D01*
X72878948Y-66695678D01*
X73003905Y-66570503D01*
X73007746Y-66564272D01*
X73092875Y-66426168D01*
X73092876Y-66426166D01*
X73096715Y-66419938D01*
X73140601Y-66287624D01*
X73150232Y-66258589D01*
X73150232Y-66258587D01*
X73152397Y-66252061D01*
X73154287Y-66233621D01*
X73162772Y-66150798D01*
X73163100Y-66147600D01*
X73163100Y-65371800D01*
X73158211Y-65324681D01*
X73152838Y-65272892D01*
X73152837Y-65272888D01*
X73152126Y-65266034D01*
X73141959Y-65235558D01*
X73098468Y-65105202D01*
X73096150Y-65098254D01*
X73003078Y-64947852D01*
X72959150Y-64904000D01*
X72883083Y-64828066D01*
X72877903Y-64822895D01*
X72873684Y-64820294D01*
X72833183Y-64763170D01*
X72829951Y-64692247D01*
X72865576Y-64630835D01*
X72873130Y-64624278D01*
X72878948Y-64620678D01*
X73003905Y-64495503D01*
X73012785Y-64481097D01*
X73092875Y-64351168D01*
X73092876Y-64351166D01*
X73096715Y-64344938D01*
X73124743Y-64260437D01*
X73125978Y-64256713D01*
X73166409Y-64198353D01*
X73231973Y-64171116D01*
X73301854Y-64183649D01*
X73352714Y-64230076D01*
X73426522Y-64349348D01*
X73431704Y-64354521D01*
X73438694Y-64361499D01*
X73551697Y-64474305D01*
X73557927Y-64478145D01*
X73557928Y-64478146D01*
X73695090Y-64562694D01*
X73702262Y-64567115D01*
X73765687Y-64588152D01*
X73805167Y-64601247D01*
X73863527Y-64641678D01*
X73890764Y-64707242D01*
X73891500Y-64720840D01*
X73891500Y-66420430D01*
X73890067Y-66439380D01*
X73886801Y-66460849D01*
X73887394Y-66468141D01*
X73887394Y-66468144D01*
X73891085Y-66513518D01*
X73891500Y-66523733D01*
X73891500Y-66531793D01*
X73891925Y-66535437D01*
X73894789Y-66560007D01*
X73895222Y-66564382D01*
X73897515Y-66592565D01*
X73901140Y-66637137D01*
X73903396Y-66644101D01*
X73904587Y-66650060D01*
X73905971Y-66655915D01*
X73906818Y-66663181D01*
X73931735Y-66731827D01*
X73933152Y-66735955D01*
X73953154Y-66797696D01*
X73955649Y-66805399D01*
X73959445Y-66811654D01*
X73961951Y-66817128D01*
X73964670Y-66822558D01*
X73967167Y-66829437D01*
X73971180Y-66835557D01*
X73971180Y-66835558D01*
X73995872Y-66873219D01*
X74016500Y-66942304D01*
X74016500Y-67221129D01*
X73996498Y-67289250D01*
X73979595Y-67310224D01*
X73961089Y-67328730D01*
X73946677Y-67341116D01*
X73935082Y-67349649D01*
X73935077Y-67349654D01*
X73929182Y-67353992D01*
X73924443Y-67359570D01*
X73924440Y-67359573D01*
X73894965Y-67394268D01*
X73888035Y-67401784D01*
X73882340Y-67407479D01*
X73880060Y-67410361D01*
X73864719Y-67429751D01*
X73861928Y-67433155D01*
X73841996Y-67456617D01*
X73814667Y-67488785D01*
X73811339Y-67495301D01*
X73807972Y-67500350D01*
X73804805Y-67505479D01*
X73800266Y-67511216D01*
X73769345Y-67577375D01*
X73767442Y-67581269D01*
X73734231Y-67646308D01*
X73732492Y-67653416D01*
X73730393Y-67659059D01*
X73728476Y-67664822D01*
X73725378Y-67671450D01*
X73723888Y-67678612D01*
X73723888Y-67678613D01*
X73710514Y-67742912D01*
X73709544Y-67747196D01*
X73692192Y-67818110D01*
X73691500Y-67829264D01*
X73691464Y-67829262D01*
X73691225Y-67833255D01*
X73690851Y-67837447D01*
X73689360Y-67844615D01*
X73689558Y-67851932D01*
X73691454Y-67922021D01*
X73691500Y-67925428D01*
X73691500Y-69254121D01*
X73671498Y-69322242D01*
X73617842Y-69368735D01*
X73605377Y-69373644D01*
X73508007Y-69406130D01*
X73508005Y-69406131D01*
X73501054Y-69408450D01*
X73350652Y-69501522D01*
X73345479Y-69506704D01*
X73325016Y-69527203D01*
X73225695Y-69626697D01*
X73221855Y-69632927D01*
X73221854Y-69632928D01*
X73170937Y-69715531D01*
X73132885Y-69777262D01*
X73125127Y-69800652D01*
X73080027Y-69936626D01*
X73077203Y-69945139D01*
X73066500Y-70049600D01*
X73066500Y-70600525D01*
X73046498Y-70668646D01*
X72992842Y-70715139D01*
X72922568Y-70725243D01*
X72857988Y-70695749D01*
X72851482Y-70689698D01*
X72808771Y-70647061D01*
X72797360Y-70638049D01*
X72659357Y-70552984D01*
X72646176Y-70546837D01*
X72491890Y-70495662D01*
X72478514Y-70492795D01*
X72384162Y-70483128D01*
X72377745Y-70482800D01*
X72127715Y-70482800D01*
X72112476Y-70487275D01*
X72111271Y-70488665D01*
X72109600Y-70496348D01*
X72109600Y-71306185D01*
X72114075Y-71321424D01*
X72115465Y-71322629D01*
X72123148Y-71324300D01*
X73070482Y-71324300D01*
X73084272Y-71320251D01*
X73155269Y-71320251D01*
X73218517Y-71362884D01*
X73222672Y-71368126D01*
X73226522Y-71374348D01*
X73351697Y-71499305D01*
X73357927Y-71503145D01*
X73357928Y-71503146D01*
X73495090Y-71587694D01*
X73502262Y-71592115D01*
X73554233Y-71609353D01*
X73663611Y-71645632D01*
X73663613Y-71645632D01*
X73670139Y-71647797D01*
X73676975Y-71648497D01*
X73676978Y-71648498D01*
X73720031Y-71652909D01*
X73774600Y-71658500D01*
X75125400Y-71658500D01*
X75128646Y-71658163D01*
X75128650Y-71658163D01*
X75224308Y-71648238D01*
X75224312Y-71648237D01*
X75231166Y-71647526D01*
X75237702Y-71645345D01*
X75237704Y-71645345D01*
X75369806Y-71601272D01*
X75398946Y-71591550D01*
X75549348Y-71498478D01*
X75674305Y-71373303D01*
X75680440Y-71363350D01*
X75763275Y-71228968D01*
X75763276Y-71228966D01*
X75767115Y-71222738D01*
X75801924Y-71117792D01*
X75820632Y-71061389D01*
X75820632Y-71061387D01*
X75822797Y-71054861D01*
X75823545Y-71047568D01*
X75833172Y-70953598D01*
X75833500Y-70950400D01*
X75833500Y-70888089D01*
X75853502Y-70819968D01*
X75907158Y-70773475D01*
X75977432Y-70763371D01*
X76042012Y-70792865D01*
X76079023Y-70848212D01*
X76093630Y-70891993D01*
X76095950Y-70898946D01*
X76189022Y-71049348D01*
X76314197Y-71174305D01*
X76320427Y-71178145D01*
X76320428Y-71178146D01*
X76457788Y-71262816D01*
X76464762Y-71267115D01*
X76534835Y-71290357D01*
X76626111Y-71320632D01*
X76626113Y-71320632D01*
X76632639Y-71322797D01*
X76639475Y-71323497D01*
X76639478Y-71323498D01*
X76682531Y-71327909D01*
X76737100Y-71333500D01*
X77512900Y-71333500D01*
X77516146Y-71333163D01*
X77516150Y-71333163D01*
X77611808Y-71323238D01*
X77611812Y-71323237D01*
X77618666Y-71322526D01*
X77625202Y-71320345D01*
X77625204Y-71320345D01*
X77766112Y-71273334D01*
X77786446Y-71266550D01*
X77936848Y-71173478D01*
X78061805Y-71048303D01*
X78064602Y-71043765D01*
X78121853Y-71003176D01*
X78192776Y-70999946D01*
X78254187Y-71035572D01*
X78261562Y-71044068D01*
X78269598Y-71054207D01*
X78384329Y-71168739D01*
X78395740Y-71177751D01*
X78533743Y-71262816D01*
X78546924Y-71268963D01*
X78701210Y-71320138D01*
X78714586Y-71323005D01*
X78804418Y-71332209D01*
X78870145Y-71359050D01*
X78910928Y-71417165D01*
X78913816Y-71488103D01*
X78880671Y-71546648D01*
X78161089Y-72266230D01*
X78146677Y-72278616D01*
X78135082Y-72287149D01*
X78135077Y-72287154D01*
X78129182Y-72291492D01*
X78124443Y-72297070D01*
X78124440Y-72297073D01*
X78094965Y-72331768D01*
X78088035Y-72339284D01*
X78082340Y-72344979D01*
X78080060Y-72347861D01*
X78064719Y-72367251D01*
X78061928Y-72370655D01*
X78042120Y-72393971D01*
X78014667Y-72426285D01*
X78011339Y-72432801D01*
X78007972Y-72437850D01*
X78004805Y-72442979D01*
X78000266Y-72448716D01*
X77969345Y-72514875D01*
X77967442Y-72518769D01*
X77934231Y-72583808D01*
X77932491Y-72590920D01*
X77930394Y-72596558D01*
X77928478Y-72602318D01*
X77926275Y-72607030D01*
X77926018Y-72607401D01*
X77925760Y-72608132D01*
X77925371Y-72608964D01*
X77925040Y-72608809D01*
X77887013Y-72663597D01*
X77821425Y-72690776D01*
X77807937Y-72691500D01*
X77801866Y-72691500D01*
X77739684Y-72698255D01*
X77603295Y-72749385D01*
X77529850Y-72804429D01*
X77513976Y-72816326D01*
X77447470Y-72841174D01*
X77438411Y-72841500D01*
X75815369Y-72841500D01*
X75747248Y-72821498D01*
X75708228Y-72781807D01*
X75673478Y-72725652D01*
X75628974Y-72681225D01*
X75553483Y-72605866D01*
X75548303Y-72600695D01*
X75532656Y-72591050D01*
X75403968Y-72511725D01*
X75403966Y-72511724D01*
X75397738Y-72507885D01*
X75237254Y-72454655D01*
X75236389Y-72454368D01*
X75236387Y-72454368D01*
X75229861Y-72452203D01*
X75223025Y-72451503D01*
X75223022Y-72451502D01*
X75179969Y-72447091D01*
X75125400Y-72441500D01*
X73774600Y-72441500D01*
X73771354Y-72441837D01*
X73771350Y-72441837D01*
X73675692Y-72451762D01*
X73675688Y-72451763D01*
X73668834Y-72452474D01*
X73662298Y-72454655D01*
X73662296Y-72454655D01*
X73626352Y-72466647D01*
X73501054Y-72508450D01*
X73350652Y-72601522D01*
X73345479Y-72606704D01*
X73295823Y-72656447D01*
X73225695Y-72726697D01*
X73221856Y-72732925D01*
X73221852Y-72732930D01*
X73191841Y-72781617D01*
X73139069Y-72829110D01*
X73084582Y-72841500D01*
X72981253Y-72841500D01*
X72913132Y-72821498D01*
X72892235Y-72804673D01*
X72809086Y-72721669D01*
X72803903Y-72716495D01*
X72799365Y-72713698D01*
X72758776Y-72656447D01*
X72755546Y-72585524D01*
X72791172Y-72524113D01*
X72799668Y-72516738D01*
X72809807Y-72508702D01*
X72924339Y-72393971D01*
X72933351Y-72382560D01*
X73018416Y-72244557D01*
X73024563Y-72231376D01*
X73075738Y-72077090D01*
X73078605Y-72063714D01*
X73088272Y-71969362D01*
X73088600Y-71962946D01*
X73088600Y-71850415D01*
X73084125Y-71835176D01*
X73082735Y-71833971D01*
X73075052Y-71832300D01*
X70640716Y-71832300D01*
X70625477Y-71836775D01*
X70624272Y-71838165D01*
X70622601Y-71845848D01*
X70622601Y-71962895D01*
X70622938Y-71969414D01*
X70632857Y-72065006D01*
X70635749Y-72078400D01*
X70687188Y-72232584D01*
X70693361Y-72245762D01*
X70778663Y-72383607D01*
X70787699Y-72395008D01*
X70902428Y-72509538D01*
X70911362Y-72516594D01*
X70952423Y-72574512D01*
X70955653Y-72645435D01*
X70920026Y-72706846D01*
X70912193Y-72713646D01*
X70906252Y-72717322D01*
X70901079Y-72722504D01*
X70896893Y-72726697D01*
X70781295Y-72842497D01*
X70777453Y-72848729D01*
X70777452Y-72848731D01*
X70767906Y-72864217D01*
X70715134Y-72911710D01*
X70660647Y-72924100D01*
X70577169Y-72924100D01*
X70509048Y-72904098D01*
X70470028Y-72864407D01*
X70435278Y-72808252D01*
X70310103Y-72683295D01*
X70303872Y-72679454D01*
X70165768Y-72594325D01*
X70165766Y-72594324D01*
X70159538Y-72590485D01*
X70015814Y-72542814D01*
X69998189Y-72536968D01*
X69998187Y-72536968D01*
X69991661Y-72534803D01*
X69984825Y-72534103D01*
X69984822Y-72534102D01*
X69941769Y-72529691D01*
X69887200Y-72524100D01*
X68536400Y-72524100D01*
X68533154Y-72524437D01*
X68533150Y-72524437D01*
X68437492Y-72534362D01*
X68437488Y-72534363D01*
X68430634Y-72535074D01*
X68424098Y-72537255D01*
X68424096Y-72537255D01*
X68331934Y-72568003D01*
X68262854Y-72591050D01*
X68112452Y-72684122D01*
X67987495Y-72809297D01*
X67983655Y-72815527D01*
X67983654Y-72815528D01*
X67974108Y-72831015D01*
X67910769Y-72933770D01*
X67909129Y-72936430D01*
X67856357Y-72983923D01*
X67786285Y-72995347D01*
X67721161Y-72967073D01*
X67694725Y-72936618D01*
X67619334Y-72814790D01*
X67610301Y-72803392D01*
X67495571Y-72688861D01*
X67484160Y-72679849D01*
X67346157Y-72594784D01*
X67332976Y-72588637D01*
X67178690Y-72537462D01*
X67165314Y-72534595D01*
X67070962Y-72524928D01*
X67064545Y-72524600D01*
X66664515Y-72524600D01*
X66649276Y-72529075D01*
X66648071Y-72530465D01*
X66646400Y-72538148D01*
X66646400Y-74822484D01*
X66650875Y-74837723D01*
X66652265Y-74838928D01*
X66659948Y-74840599D01*
X67064495Y-74840599D01*
X67071014Y-74840262D01*
X67166606Y-74830343D01*
X67180000Y-74827451D01*
X67334184Y-74776012D01*
X67347362Y-74769839D01*
X67485207Y-74684537D01*
X67496608Y-74675501D01*
X67611139Y-74560771D01*
X67620151Y-74549360D01*
X67694483Y-74428770D01*
X67747255Y-74381277D01*
X67817326Y-74369853D01*
X67882450Y-74398127D01*
X67908887Y-74428583D01*
X67988322Y-74556948D01*
X68113497Y-74681905D01*
X68119727Y-74685745D01*
X68119728Y-74685746D01*
X68257088Y-74770416D01*
X68264062Y-74774715D01*
X68343805Y-74801164D01*
X68425411Y-74828232D01*
X68425413Y-74828232D01*
X68431939Y-74830397D01*
X68438775Y-74831097D01*
X68438778Y-74831098D01*
X68481831Y-74835509D01*
X68536400Y-74841100D01*
X69887200Y-74841100D01*
X69890446Y-74840763D01*
X69890450Y-74840763D01*
X69986108Y-74830838D01*
X69986112Y-74830837D01*
X69992966Y-74830126D01*
X69999502Y-74827945D01*
X69999504Y-74827945D01*
X70131606Y-74783872D01*
X70160746Y-74774150D01*
X70311148Y-74681078D01*
X70436105Y-74555903D01*
X70439944Y-74549675D01*
X70439948Y-74549670D01*
X70469959Y-74500983D01*
X70522731Y-74453490D01*
X70577218Y-74441100D01*
X70705905Y-74441100D01*
X70774026Y-74461102D01*
X70794923Y-74477927D01*
X70872637Y-74555505D01*
X70907297Y-74590105D01*
X70913527Y-74593945D01*
X70913528Y-74593946D01*
X71050690Y-74678494D01*
X71057862Y-74682915D01*
X71133962Y-74708156D01*
X71219211Y-74736432D01*
X71219213Y-74736432D01*
X71225739Y-74738597D01*
X71232575Y-74739297D01*
X71232578Y-74739298D01*
X71266828Y-74742807D01*
X71330200Y-74749300D01*
X72381000Y-74749300D01*
X72384246Y-74748963D01*
X72384250Y-74748963D01*
X72479908Y-74739038D01*
X72479912Y-74739037D01*
X72486766Y-74738326D01*
X72493302Y-74736145D01*
X72493304Y-74736145D01*
X72645551Y-74685351D01*
X72654546Y-74682350D01*
X72804948Y-74589278D01*
X72929905Y-74464103D01*
X72933744Y-74457875D01*
X72933748Y-74457870D01*
X72958088Y-74418383D01*
X73010860Y-74370890D01*
X73065347Y-74358500D01*
X73084631Y-74358500D01*
X73152752Y-74378502D01*
X73191772Y-74418193D01*
X73226522Y-74474348D01*
X73351697Y-74599305D01*
X73357927Y-74603145D01*
X73357928Y-74603146D01*
X73495090Y-74687694D01*
X73502262Y-74692115D01*
X73562512Y-74712099D01*
X73663611Y-74745632D01*
X73663613Y-74745632D01*
X73670139Y-74747797D01*
X73676975Y-74748497D01*
X73676978Y-74748498D01*
X73720031Y-74752909D01*
X73774600Y-74758500D01*
X75125400Y-74758500D01*
X75128646Y-74758163D01*
X75128650Y-74758163D01*
X75224308Y-74748238D01*
X75224312Y-74748237D01*
X75231166Y-74747526D01*
X75237702Y-74745345D01*
X75237704Y-74745345D01*
X75389405Y-74694733D01*
X75398946Y-74691550D01*
X75549348Y-74598478D01*
X75674305Y-74473303D01*
X75678144Y-74467075D01*
X75678148Y-74467070D01*
X75708159Y-74418383D01*
X75760931Y-74370890D01*
X75815418Y-74358500D01*
X77215500Y-74358500D01*
X77283621Y-74378502D01*
X77330114Y-74432158D01*
X77341500Y-74484500D01*
X77341500Y-74948134D01*
X77348255Y-75010316D01*
X77399385Y-75146705D01*
X77486739Y-75263261D01*
X77603295Y-75350615D01*
X77739684Y-75401745D01*
X77801866Y-75408500D01*
X79598134Y-75408500D01*
X79660316Y-75401745D01*
X79796705Y-75350615D01*
X79913261Y-75263261D01*
X80000615Y-75146705D01*
X80022945Y-75087139D01*
X80044798Y-75028848D01*
X80087440Y-74972084D01*
X80154001Y-74947384D01*
X80223350Y-74962592D01*
X80258017Y-74990580D01*
X80283218Y-75019673D01*
X80290580Y-75026883D01*
X80454434Y-75162916D01*
X80462881Y-75168831D01*
X80646756Y-75276279D01*
X80656042Y-75280729D01*
X80855001Y-75356703D01*
X80864899Y-75359579D01*
X80968250Y-75380606D01*
X80982299Y-75379410D01*
X80986000Y-75369065D01*
X80986000Y-75368517D01*
X81494000Y-75368517D01*
X81498064Y-75382359D01*
X81511478Y-75384393D01*
X81518184Y-75383534D01*
X81528262Y-75381392D01*
X81732255Y-75320191D01*
X81741842Y-75316433D01*
X81933095Y-75222739D01*
X81941945Y-75217464D01*
X82115328Y-75093792D01*
X82123200Y-75087139D01*
X82274052Y-74936812D01*
X82280730Y-74928965D01*
X82405003Y-74756020D01*
X82410313Y-74747183D01*
X82504670Y-74556267D01*
X82508469Y-74546672D01*
X82570377Y-74342910D01*
X82572555Y-74332837D01*
X82573986Y-74321962D01*
X82571775Y-74307778D01*
X82558617Y-74304000D01*
X81512115Y-74304000D01*
X81496876Y-74308475D01*
X81495671Y-74309865D01*
X81494000Y-74317548D01*
X81494000Y-75368517D01*
X80986000Y-75368517D01*
X80986000Y-73922000D01*
X81006002Y-73853879D01*
X81059658Y-73807386D01*
X81112000Y-73796000D01*
X82558344Y-73796000D01*
X82571875Y-73792027D01*
X82573180Y-73782947D01*
X82531214Y-73615875D01*
X82527894Y-73606124D01*
X82442972Y-73410814D01*
X82438105Y-73401739D01*
X82322426Y-73222926D01*
X82316136Y-73214757D01*
X82172806Y-73057240D01*
X82165273Y-73050215D01*
X82017335Y-72933382D01*
X81976272Y-72875465D01*
X81973040Y-72804542D01*
X82008665Y-72743131D01*
X82071836Y-72710728D01*
X82095427Y-72708500D01*
X82433629Y-72708500D01*
X82501750Y-72728502D01*
X82522724Y-72745405D01*
X84216230Y-74438911D01*
X84228616Y-74453323D01*
X84237149Y-74464918D01*
X84237154Y-74464923D01*
X84241492Y-74470818D01*
X84247070Y-74475557D01*
X84247073Y-74475560D01*
X84281768Y-74505035D01*
X84289284Y-74511965D01*
X84294979Y-74517660D01*
X84297861Y-74519940D01*
X84317251Y-74535281D01*
X84320655Y-74538072D01*
X84370703Y-74580591D01*
X84376285Y-74585333D01*
X84382801Y-74588661D01*
X84387850Y-74592028D01*
X84392979Y-74595195D01*
X84398716Y-74599734D01*
X84464875Y-74630655D01*
X84468769Y-74632558D01*
X84533808Y-74665769D01*
X84540916Y-74667508D01*
X84546559Y-74669607D01*
X84552322Y-74671524D01*
X84558950Y-74674622D01*
X84566112Y-74676112D01*
X84566113Y-74676112D01*
X84582767Y-74679576D01*
X84624590Y-74688275D01*
X84630412Y-74689486D01*
X84634696Y-74690456D01*
X84705610Y-74707808D01*
X84711212Y-74708156D01*
X84711215Y-74708156D01*
X84716764Y-74708500D01*
X84716762Y-74708536D01*
X84720755Y-74708775D01*
X84724947Y-74709149D01*
X84732115Y-74710640D01*
X84809520Y-74708546D01*
X84812928Y-74708500D01*
X88032930Y-74708500D01*
X88051880Y-74709933D01*
X88066115Y-74712099D01*
X88066119Y-74712099D01*
X88073349Y-74713199D01*
X88080641Y-74712606D01*
X88080644Y-74712606D01*
X88126018Y-74708915D01*
X88136233Y-74708500D01*
X88144293Y-74708500D01*
X88161680Y-74706473D01*
X88172507Y-74705211D01*
X88176882Y-74704778D01*
X88242339Y-74699454D01*
X88242342Y-74699453D01*
X88249637Y-74698860D01*
X88256601Y-74696604D01*
X88262560Y-74695413D01*
X88268415Y-74694029D01*
X88275681Y-74693182D01*
X88344327Y-74668265D01*
X88348455Y-74666848D01*
X88410936Y-74646607D01*
X88410938Y-74646606D01*
X88417899Y-74644351D01*
X88424154Y-74640555D01*
X88429628Y-74638049D01*
X88435058Y-74635330D01*
X88441937Y-74632833D01*
X88487217Y-74603146D01*
X88502976Y-74592814D01*
X88506680Y-74590477D01*
X88569107Y-74552595D01*
X88577484Y-74545197D01*
X88577508Y-74545224D01*
X88580500Y-74542571D01*
X88583733Y-74539868D01*
X88589852Y-74535856D01*
X88643128Y-74479617D01*
X88645506Y-74477175D01*
X88728958Y-74393723D01*
X94092000Y-74393723D01*
X94092207Y-74398829D01*
X94102853Y-74529710D01*
X94104624Y-74540266D01*
X94156628Y-74742807D01*
X94160362Y-74753353D01*
X94247313Y-74943269D01*
X94252849Y-74952976D01*
X94372059Y-75124496D01*
X94379233Y-75133075D01*
X94526925Y-75280767D01*
X94535504Y-75287941D01*
X94707024Y-75407151D01*
X94716731Y-75412687D01*
X94906647Y-75499638D01*
X94917193Y-75503372D01*
X95119734Y-75555376D01*
X95130290Y-75557147D01*
X95261171Y-75567793D01*
X95266277Y-75568000D01*
X95827885Y-75568000D01*
X95843124Y-75563525D01*
X95844329Y-75562135D01*
X95846000Y-75554452D01*
X95846000Y-73882115D01*
X95841525Y-73866876D01*
X95840135Y-73865671D01*
X95832452Y-73864000D01*
X94110115Y-73864000D01*
X94094876Y-73868475D01*
X94093671Y-73869865D01*
X94092000Y-73877548D01*
X94092000Y-74393723D01*
X88728958Y-74393723D01*
X90188911Y-72933770D01*
X90203323Y-72921384D01*
X90214918Y-72912851D01*
X90214923Y-72912846D01*
X90220818Y-72908508D01*
X90225557Y-72902930D01*
X90225560Y-72902927D01*
X90255035Y-72868232D01*
X90261965Y-72860716D01*
X90267661Y-72855020D01*
X90269924Y-72852159D01*
X90269929Y-72852154D01*
X90285293Y-72832734D01*
X90288082Y-72829333D01*
X90300437Y-72814790D01*
X90335333Y-72773715D01*
X90338659Y-72767202D01*
X90342020Y-72762163D01*
X90345196Y-72757021D01*
X90349734Y-72751284D01*
X90380655Y-72685125D01*
X90382561Y-72681225D01*
X90391264Y-72664181D01*
X90415769Y-72616192D01*
X90417508Y-72609083D01*
X90419604Y-72603449D01*
X90421523Y-72597679D01*
X90424622Y-72591050D01*
X90426129Y-72583808D01*
X90439490Y-72519571D01*
X90440461Y-72515282D01*
X90457808Y-72444390D01*
X90458192Y-72438211D01*
X90458500Y-72433236D01*
X90458535Y-72433238D01*
X90458775Y-72429266D01*
X90459152Y-72425045D01*
X90460641Y-72417885D01*
X90458546Y-72340458D01*
X90458500Y-72337050D01*
X90458500Y-66517069D01*
X90459933Y-66498118D01*
X90462099Y-66483883D01*
X90462099Y-66483881D01*
X90463199Y-66476651D01*
X90461326Y-66453615D01*
X90458915Y-66423982D01*
X90458500Y-66413767D01*
X90458500Y-66405707D01*
X90455211Y-66377493D01*
X90454778Y-66373118D01*
X90449454Y-66307661D01*
X90449453Y-66307658D01*
X90448860Y-66300363D01*
X90446604Y-66293399D01*
X90445413Y-66287440D01*
X90444029Y-66281585D01*
X90443182Y-66274319D01*
X90418265Y-66205673D01*
X90416848Y-66201545D01*
X90396607Y-66139064D01*
X90396606Y-66139062D01*
X90394351Y-66132101D01*
X90390555Y-66125846D01*
X90388049Y-66120372D01*
X90385330Y-66114942D01*
X90382833Y-66108063D01*
X90342809Y-66047016D01*
X90340472Y-66043312D01*
X90305509Y-65985693D01*
X90305505Y-65985688D01*
X90302595Y-65980892D01*
X90295197Y-65972516D01*
X90295223Y-65972493D01*
X90292574Y-65969503D01*
X90289866Y-65966264D01*
X90285856Y-65960148D01*
X90280549Y-65955121D01*
X90280546Y-65955117D01*
X90229617Y-65906872D01*
X90227175Y-65904494D01*
X88942519Y-64619838D01*
X88908493Y-64557526D01*
X88908494Y-64503959D01*
X88916000Y-64469455D01*
X88916000Y-64464884D01*
X89424000Y-64464884D01*
X89428475Y-64480123D01*
X89429865Y-64481328D01*
X89437548Y-64482999D01*
X89692095Y-64482999D01*
X89698614Y-64482662D01*
X89794206Y-64472743D01*
X89807600Y-64469851D01*
X89961784Y-64418412D01*
X89974962Y-64412239D01*
X90112807Y-64326937D01*
X90124208Y-64317901D01*
X90238739Y-64203171D01*
X90247751Y-64191760D01*
X90328136Y-64061350D01*
X90380908Y-64013857D01*
X90450979Y-64002433D01*
X90516103Y-64030707D01*
X90542540Y-64061163D01*
X90593063Y-64142807D01*
X90602099Y-64154208D01*
X90716829Y-64268739D01*
X90728240Y-64277751D01*
X90866243Y-64362816D01*
X90879424Y-64368963D01*
X91033710Y-64420138D01*
X91047086Y-64423005D01*
X91141438Y-64432672D01*
X91147854Y-64433000D01*
X91397885Y-64433000D01*
X91413124Y-64428525D01*
X91414329Y-64427135D01*
X91416000Y-64419452D01*
X91416000Y-63609615D01*
X91411525Y-63594376D01*
X91410135Y-63593171D01*
X91402452Y-63591500D01*
X90461115Y-63591500D01*
X90445876Y-63595974D01*
X90444111Y-63598012D01*
X90384385Y-63636396D01*
X90348886Y-63641500D01*
X89442115Y-63641500D01*
X89426876Y-63645975D01*
X89425671Y-63647365D01*
X89424000Y-63655048D01*
X89424000Y-64464884D01*
X88916000Y-64464884D01*
X88916000Y-63659615D01*
X88911525Y-63644376D01*
X88910135Y-63643171D01*
X88902452Y-63641500D01*
X88019303Y-63641500D01*
X87951182Y-63621498D01*
X87937723Y-63611524D01*
X87918231Y-63594964D01*
X87910716Y-63588035D01*
X87905021Y-63582340D01*
X87898880Y-63577482D01*
X87882749Y-63564719D01*
X87879345Y-63561928D01*
X87829297Y-63519409D01*
X87829295Y-63519408D01*
X87823715Y-63514667D01*
X87817199Y-63511339D01*
X87812150Y-63507972D01*
X87807021Y-63504805D01*
X87801284Y-63500266D01*
X87735125Y-63469345D01*
X87731225Y-63467439D01*
X87666192Y-63434231D01*
X87659084Y-63432492D01*
X87653441Y-63430393D01*
X87647678Y-63428476D01*
X87641050Y-63425378D01*
X87569583Y-63410513D01*
X87565299Y-63409543D01*
X87494390Y-63392192D01*
X87488788Y-63391844D01*
X87488785Y-63391844D01*
X87483236Y-63391500D01*
X87483238Y-63391464D01*
X87479245Y-63391225D01*
X87475053Y-63390851D01*
X87467885Y-63389360D01*
X87401675Y-63391151D01*
X87390479Y-63391454D01*
X87387072Y-63391500D01*
X83633338Y-63391500D01*
X83565217Y-63371498D01*
X83518724Y-63317842D01*
X83508620Y-63247568D01*
X83538114Y-63182988D01*
X83567035Y-63158356D01*
X83617807Y-63126937D01*
X83629208Y-63117901D01*
X83743739Y-63003171D01*
X83752751Y-62991760D01*
X83837816Y-62853757D01*
X83843963Y-62840576D01*
X83895138Y-62686290D01*
X83898005Y-62672914D01*
X83907672Y-62578562D01*
X83908000Y-62572146D01*
X83908000Y-62172115D01*
X83903525Y-62156876D01*
X83902135Y-62155671D01*
X83894452Y-62154000D01*
X81610116Y-62154000D01*
X81594877Y-62158475D01*
X81593672Y-62159865D01*
X81592001Y-62167548D01*
X81592001Y-62572095D01*
X81592338Y-62578614D01*
X81602257Y-62674206D01*
X81605149Y-62687600D01*
X81656588Y-62841784D01*
X81662761Y-62854962D01*
X81748063Y-62992807D01*
X81757099Y-63004208D01*
X81871829Y-63118739D01*
X81883240Y-63127751D01*
X81988124Y-63192402D01*
X82035617Y-63245174D01*
X82047041Y-63315246D01*
X82018767Y-63380369D01*
X81988311Y-63406806D01*
X81892728Y-63465955D01*
X81875652Y-63476522D01*
X81750695Y-63601697D01*
X81746855Y-63607927D01*
X81746854Y-63607928D01*
X81686162Y-63706389D01*
X81657885Y-63752262D01*
X81631436Y-63832005D01*
X81604611Y-63912880D01*
X81602203Y-63920139D01*
X81591500Y-64024600D01*
X81591500Y-65375400D01*
X81591837Y-65378646D01*
X81591837Y-65378650D01*
X81593104Y-65390855D01*
X81602474Y-65481166D01*
X81604655Y-65487702D01*
X81604655Y-65487704D01*
X81639849Y-65593193D01*
X81658450Y-65648946D01*
X81751522Y-65799348D01*
X81876697Y-65924305D01*
X81987649Y-65992697D01*
X82035142Y-66045470D01*
X82046564Y-66115541D01*
X82018290Y-66180665D01*
X81987836Y-66207100D01*
X81875652Y-66276522D01*
X81750695Y-66401697D01*
X81746855Y-66407927D01*
X81746854Y-66407928D01*
X81669662Y-66533157D01*
X81657885Y-66552262D01*
X81653885Y-66564321D01*
X81604765Y-66712416D01*
X81602203Y-66720139D01*
X81601503Y-66726975D01*
X81601502Y-66726978D01*
X81600014Y-66741500D01*
X81591500Y-66824600D01*
X81591500Y-68175400D01*
X81591837Y-68178646D01*
X81591837Y-68178650D01*
X81600953Y-68266502D01*
X81602474Y-68281166D01*
X81604655Y-68287702D01*
X81604655Y-68287704D01*
X81612096Y-68310008D01*
X81658450Y-68448946D01*
X81751522Y-68599348D01*
X81876697Y-68724305D01*
X81882927Y-68728145D01*
X81882928Y-68728146D01*
X82020090Y-68812694D01*
X82027262Y-68817115D01*
X82083183Y-68835663D01*
X82188611Y-68870632D01*
X82188613Y-68870632D01*
X82195139Y-68872797D01*
X82201975Y-68873497D01*
X82201978Y-68873498D01*
X82245031Y-68877909D01*
X82299600Y-68883500D01*
X83200400Y-68883500D01*
X83203646Y-68883163D01*
X83203650Y-68883163D01*
X83299308Y-68873238D01*
X83299312Y-68873237D01*
X83306166Y-68872526D01*
X83312702Y-68870345D01*
X83312704Y-68870345D01*
X83444806Y-68826272D01*
X83473946Y-68816550D01*
X83624348Y-68723478D01*
X83749305Y-68598303D01*
X83842115Y-68447738D01*
X83874084Y-68351354D01*
X83876247Y-68344833D01*
X83916678Y-68286473D01*
X83982242Y-68259236D01*
X83995840Y-68258500D01*
X84081278Y-68258500D01*
X84149399Y-68278502D01*
X84195842Y-68332049D01*
X84246876Y-68443518D01*
X84246879Y-68443523D01*
X84249212Y-68448619D01*
X84252412Y-68453223D01*
X84252413Y-68453225D01*
X84363055Y-68612416D01*
X84374877Y-68629426D01*
X84530574Y-68785123D01*
X84535180Y-68788324D01*
X84535182Y-68788326D01*
X84657354Y-68873238D01*
X84711381Y-68910788D01*
X84802340Y-68952432D01*
X84906480Y-69000111D01*
X84906482Y-69000112D01*
X84911585Y-69002448D01*
X84917026Y-69003845D01*
X85119652Y-69055871D01*
X85119654Y-69055871D01*
X85124856Y-69057207D01*
X85200679Y-69063374D01*
X85261149Y-69068293D01*
X85261159Y-69068293D01*
X85263699Y-69068500D01*
X86100000Y-69068500D01*
X86936300Y-69068499D01*
X86938839Y-69068292D01*
X86938851Y-69068292D01*
X87013899Y-69062188D01*
X87075144Y-69057207D01*
X87288415Y-69002448D01*
X87293518Y-69000112D01*
X87293520Y-69000111D01*
X87397660Y-68952432D01*
X87488619Y-68910788D01*
X87542646Y-68873238D01*
X87664818Y-68788326D01*
X87664820Y-68788324D01*
X87669426Y-68785123D01*
X87825123Y-68629426D01*
X87836946Y-68612416D01*
X87947587Y-68453225D01*
X87947588Y-68453223D01*
X87950788Y-68448619D01*
X88017077Y-68303831D01*
X88040111Y-68253520D01*
X88040112Y-68253518D01*
X88042448Y-68248415D01*
X88087427Y-68073235D01*
X88095871Y-68040348D01*
X88095871Y-68040346D01*
X88097207Y-68035144D01*
X88108500Y-67896301D01*
X88108499Y-66323700D01*
X88104283Y-66271857D01*
X88101547Y-66238216D01*
X88115961Y-66168698D01*
X88165672Y-66118009D01*
X88234895Y-66102242D01*
X88301654Y-66126404D01*
X88316227Y-66138908D01*
X88904595Y-66727276D01*
X88938621Y-66789588D01*
X88941500Y-66816371D01*
X88941500Y-71983629D01*
X88921498Y-72051750D01*
X88904595Y-72072724D01*
X88163933Y-72813386D01*
X88101621Y-72847412D01*
X88030806Y-72842347D01*
X87973970Y-72799800D01*
X87949159Y-72733280D01*
X87964250Y-72663906D01*
X87970440Y-72653743D01*
X87974312Y-72648014D01*
X87974313Y-72648012D01*
X87977671Y-72643043D01*
X87992309Y-72608809D01*
X88027084Y-72527477D01*
X88060829Y-72448554D01*
X88105709Y-72241848D01*
X88106331Y-72231376D01*
X88108390Y-72196727D01*
X88108390Y-72196714D01*
X88108500Y-72194869D01*
X88108499Y-70825132D01*
X88108070Y-70818177D01*
X88105776Y-70781064D01*
X88105477Y-70776223D01*
X88094384Y-70725555D01*
X88061518Y-70575450D01*
X88061518Y-70575449D01*
X88060236Y-70569595D01*
X87976739Y-70375251D01*
X87964275Y-70356876D01*
X87861363Y-70205161D01*
X87861362Y-70205160D01*
X87857999Y-70200202D01*
X87708300Y-70050764D01*
X87703333Y-70047407D01*
X87703330Y-70047405D01*
X87538016Y-69935689D01*
X87538011Y-69935686D01*
X87533043Y-69932329D01*
X87338554Y-69849171D01*
X87131848Y-69804291D01*
X87124301Y-69803843D01*
X87086727Y-69801610D01*
X87086714Y-69801610D01*
X87084869Y-69801500D01*
X86123555Y-69801500D01*
X85115132Y-69801501D01*
X85113195Y-69801621D01*
X85113185Y-69801621D01*
X85082818Y-69803498D01*
X85066223Y-69804523D01*
X85061490Y-69805559D01*
X85061485Y-69805560D01*
X84876786Y-69846000D01*
X84859595Y-69849764D01*
X84665251Y-69933261D01*
X84660291Y-69936625D01*
X84660290Y-69936626D01*
X84496978Y-70047405D01*
X84490202Y-70052001D01*
X84340764Y-70201700D01*
X84337407Y-70206667D01*
X84337405Y-70206670D01*
X84225689Y-70371984D01*
X84225686Y-70371989D01*
X84222329Y-70376957D01*
X84139171Y-70571446D01*
X84094291Y-70778152D01*
X84094002Y-70783017D01*
X84091616Y-70823185D01*
X84091500Y-70825131D01*
X84091501Y-71494134D01*
X84091501Y-71864630D01*
X84071499Y-71932751D01*
X84017843Y-71979244D01*
X83947569Y-71989348D01*
X83882989Y-71959855D01*
X83876406Y-71953725D01*
X83383770Y-71461089D01*
X83371384Y-71446677D01*
X83362851Y-71435082D01*
X83362846Y-71435077D01*
X83358508Y-71429182D01*
X83352930Y-71424443D01*
X83352927Y-71424440D01*
X83318232Y-71394965D01*
X83310716Y-71388035D01*
X83305021Y-71382340D01*
X83294919Y-71374348D01*
X83282749Y-71364719D01*
X83279345Y-71361928D01*
X83229297Y-71319409D01*
X83229295Y-71319408D01*
X83223715Y-71314667D01*
X83217199Y-71311339D01*
X83212150Y-71307972D01*
X83207021Y-71304805D01*
X83201284Y-71300266D01*
X83135125Y-71269345D01*
X83131225Y-71267439D01*
X83066192Y-71234231D01*
X83059084Y-71232492D01*
X83053441Y-71230393D01*
X83047678Y-71228476D01*
X83041050Y-71225378D01*
X82969583Y-71210513D01*
X82965299Y-71209543D01*
X82906045Y-71195044D01*
X82894390Y-71192192D01*
X82888788Y-71191844D01*
X82888785Y-71191844D01*
X82883236Y-71191500D01*
X82883238Y-71191464D01*
X82879245Y-71191225D01*
X82875053Y-71190851D01*
X82867885Y-71189360D01*
X82801675Y-71191151D01*
X82790479Y-71191454D01*
X82787072Y-71191500D01*
X80273632Y-71191500D01*
X80205511Y-71171498D01*
X80159018Y-71117842D01*
X80148914Y-71047568D01*
X80166372Y-70999385D01*
X80225314Y-70903762D01*
X80231463Y-70890576D01*
X80282638Y-70736290D01*
X80285505Y-70722914D01*
X80295172Y-70628562D01*
X80295500Y-70622146D01*
X80295500Y-70372115D01*
X80291025Y-70356876D01*
X80289635Y-70355671D01*
X80281952Y-70354000D01*
X79072000Y-70354000D01*
X79003879Y-70333998D01*
X78957386Y-70280342D01*
X78946000Y-70228000D01*
X78946000Y-69972000D01*
X78966002Y-69903879D01*
X79019658Y-69857386D01*
X79072000Y-69846000D01*
X80277384Y-69846000D01*
X80292623Y-69841525D01*
X80293828Y-69840135D01*
X80295499Y-69832452D01*
X80295499Y-69577905D01*
X80295162Y-69571386D01*
X80285243Y-69475794D01*
X80282351Y-69462400D01*
X80230912Y-69308216D01*
X80224739Y-69295038D01*
X80139437Y-69157193D01*
X80130401Y-69145792D01*
X80077052Y-69092536D01*
X80042973Y-69030254D01*
X80047976Y-68959433D01*
X80090473Y-68902561D01*
X80153065Y-68878036D01*
X80171629Y-68876109D01*
X80206166Y-68872526D01*
X80212702Y-68870345D01*
X80212704Y-68870345D01*
X80344806Y-68826272D01*
X80373946Y-68816550D01*
X80524348Y-68723478D01*
X80649305Y-68598303D01*
X80742115Y-68447738D01*
X80774084Y-68351354D01*
X80795632Y-68286389D01*
X80795632Y-68286387D01*
X80797797Y-68279861D01*
X80801577Y-68242974D01*
X80808172Y-68178598D01*
X80808500Y-68175400D01*
X80808500Y-66824600D01*
X80806246Y-66802878D01*
X80798238Y-66725692D01*
X80798237Y-66725688D01*
X80797526Y-66718834D01*
X80793514Y-66706807D01*
X80743868Y-66558002D01*
X80741550Y-66551054D01*
X80648478Y-66400652D01*
X80523303Y-66275695D01*
X80412351Y-66207303D01*
X80364858Y-66154530D01*
X80353436Y-66084459D01*
X80381710Y-66019335D01*
X80412165Y-65992899D01*
X80412492Y-65992697D01*
X80524348Y-65923478D01*
X80649305Y-65798303D01*
X80682771Y-65744012D01*
X80738275Y-65653968D01*
X80738276Y-65653966D01*
X80742115Y-65647738D01*
X80797797Y-65479861D01*
X80808500Y-65375400D01*
X80808500Y-64024600D01*
X80807467Y-64014646D01*
X80798238Y-63925692D01*
X80798237Y-63925688D01*
X80797526Y-63918834D01*
X80782558Y-63873968D01*
X80743868Y-63758002D01*
X80741550Y-63751054D01*
X80648478Y-63600652D01*
X80523303Y-63475695D01*
X80517075Y-63471856D01*
X80517070Y-63471852D01*
X80468383Y-63441841D01*
X80420890Y-63389069D01*
X80408500Y-63334582D01*
X80408500Y-63265369D01*
X80428502Y-63197248D01*
X80468193Y-63158228D01*
X80524348Y-63123478D01*
X80649305Y-62998303D01*
X80653338Y-62991760D01*
X80738275Y-62853968D01*
X80738276Y-62853966D01*
X80742115Y-62847738D01*
X80783116Y-62724123D01*
X80795632Y-62686389D01*
X80795632Y-62686387D01*
X80797797Y-62679861D01*
X80799647Y-62661811D01*
X80804142Y-62617938D01*
X80808500Y-62575400D01*
X80808500Y-61627885D01*
X81592000Y-61627885D01*
X81596475Y-61643124D01*
X81597865Y-61644329D01*
X81605548Y-61646000D01*
X82477885Y-61646000D01*
X82493124Y-61641525D01*
X82494329Y-61640135D01*
X82496000Y-61632452D01*
X82496000Y-61627885D01*
X83004000Y-61627885D01*
X83008475Y-61643124D01*
X83009865Y-61644329D01*
X83017548Y-61646000D01*
X83889884Y-61646000D01*
X83905123Y-61641525D01*
X83906328Y-61640135D01*
X83907999Y-61632452D01*
X83907999Y-61227905D01*
X83907662Y-61221386D01*
X83897743Y-61125794D01*
X83894851Y-61112400D01*
X83843412Y-60958216D01*
X83837239Y-60945038D01*
X83751937Y-60807193D01*
X83742901Y-60795792D01*
X83628171Y-60681261D01*
X83616760Y-60672249D01*
X83478757Y-60587184D01*
X83465576Y-60581037D01*
X83311290Y-60529862D01*
X83297914Y-60526995D01*
X83203562Y-60517328D01*
X83197145Y-60517000D01*
X83022115Y-60517000D01*
X83006876Y-60521475D01*
X83005671Y-60522865D01*
X83004000Y-60530548D01*
X83004000Y-61627885D01*
X82496000Y-61627885D01*
X82496000Y-60535116D01*
X82491525Y-60519877D01*
X82490135Y-60518672D01*
X82482452Y-60517001D01*
X82302905Y-60517001D01*
X82296386Y-60517338D01*
X82200794Y-60527257D01*
X82187400Y-60530149D01*
X82033216Y-60581588D01*
X82020038Y-60587761D01*
X81882193Y-60673063D01*
X81870792Y-60682099D01*
X81756261Y-60796829D01*
X81747249Y-60808240D01*
X81662184Y-60946243D01*
X81656037Y-60959424D01*
X81604862Y-61113710D01*
X81601995Y-61127086D01*
X81592328Y-61221438D01*
X81592000Y-61227855D01*
X81592000Y-61627885D01*
X80808500Y-61627885D01*
X80808500Y-61224600D01*
X80801934Y-61161314D01*
X80798238Y-61125692D01*
X80798237Y-61125688D01*
X80797526Y-61118834D01*
X80741550Y-60951054D01*
X80648478Y-60800652D01*
X80523303Y-60675695D01*
X80517072Y-60671854D01*
X80378968Y-60586725D01*
X80378966Y-60586724D01*
X80372738Y-60582885D01*
X80248297Y-60541610D01*
X80211389Y-60529368D01*
X80211387Y-60529368D01*
X80204861Y-60527203D01*
X80198025Y-60526503D01*
X80198022Y-60526502D01*
X80154969Y-60522091D01*
X80100400Y-60516500D01*
X79199600Y-60516500D01*
X79196354Y-60516837D01*
X79196350Y-60516837D01*
X79100692Y-60526762D01*
X79100688Y-60526763D01*
X79093834Y-60527474D01*
X79087298Y-60529655D01*
X79087296Y-60529655D01*
X79074279Y-60533998D01*
X78926054Y-60583450D01*
X78775652Y-60676522D01*
X78650695Y-60801697D01*
X78557885Y-60952262D01*
X78502203Y-61120139D01*
X78501502Y-61126977D01*
X78501502Y-61126979D01*
X78495643Y-61184166D01*
X78468802Y-61249893D01*
X78410687Y-61290676D01*
X78339749Y-61293564D01*
X78278511Y-61257643D01*
X78276019Y-61254758D01*
X78273478Y-61250652D01*
X78148303Y-61125695D01*
X78139290Y-61120139D01*
X78003968Y-61036725D01*
X78003966Y-61036724D01*
X77997738Y-61032885D01*
X77837254Y-60979655D01*
X77836389Y-60979368D01*
X77836387Y-60979368D01*
X77829861Y-60977203D01*
X77823025Y-60976503D01*
X77823022Y-60976502D01*
X77779969Y-60972091D01*
X77725400Y-60966500D01*
X76674600Y-60966500D01*
X76671354Y-60966837D01*
X76671350Y-60966837D01*
X76575692Y-60976762D01*
X76575688Y-60976763D01*
X76568834Y-60977474D01*
X76562298Y-60979655D01*
X76562296Y-60979655D01*
X76490516Y-61003603D01*
X76401054Y-61033450D01*
X76250652Y-61126522D01*
X76245479Y-61131704D01*
X76245474Y-61131708D01*
X76244946Y-61132237D01*
X76244496Y-61132483D01*
X76239742Y-61136251D01*
X76239097Y-61135437D01*
X76182664Y-61166317D01*
X76111844Y-61161314D01*
X76054971Y-61118817D01*
X76030102Y-61052319D01*
X76030429Y-61030379D01*
X76033172Y-61003603D01*
X76033172Y-61003600D01*
X76033500Y-61000400D01*
X76033500Y-60274600D01*
X76032461Y-60264583D01*
X76023238Y-60175692D01*
X76023237Y-60175688D01*
X76022526Y-60168834D01*
X76011182Y-60134830D01*
X75968868Y-60008002D01*
X75966550Y-60001054D01*
X75873478Y-59850652D01*
X75822085Y-59799348D01*
X75748303Y-59725695D01*
X75749941Y-59724055D01*
X75715344Y-59675256D01*
X75708500Y-59634294D01*
X75708500Y-59205973D01*
X76509273Y-59205973D01*
X76513032Y-59211269D01*
X76709066Y-59325822D01*
X76718349Y-59330269D01*
X76934206Y-59412697D01*
X76944108Y-59415574D01*
X77170511Y-59461636D01*
X77180764Y-59462859D01*
X77411657Y-59471326D01*
X77421943Y-59470859D01*
X77651132Y-59441499D01*
X77661210Y-59439357D01*
X77882522Y-59372960D01*
X77892120Y-59369199D01*
X78099617Y-59267547D01*
X78108462Y-59262274D01*
X78178115Y-59212591D01*
X78186516Y-59201891D01*
X78179528Y-59188738D01*
X77362812Y-58372022D01*
X77348868Y-58364408D01*
X77347035Y-58364539D01*
X77340420Y-58368790D01*
X76516534Y-59192676D01*
X76509273Y-59205973D01*
X75708500Y-59205973D01*
X75708500Y-58504816D01*
X75728502Y-58436695D01*
X75782158Y-58390202D01*
X75852432Y-58380098D01*
X75917012Y-58409592D01*
X75951243Y-58457412D01*
X76033249Y-58659370D01*
X76037892Y-58668561D01*
X76136464Y-58829416D01*
X76146921Y-58838876D01*
X76155697Y-58835093D01*
X76977978Y-58012812D01*
X76984356Y-58001132D01*
X77714408Y-58001132D01*
X77714539Y-58002965D01*
X77718790Y-58009580D01*
X78539296Y-58830086D01*
X78551306Y-58836645D01*
X78563046Y-58827677D01*
X78609616Y-58762867D01*
X78614927Y-58754028D01*
X78717296Y-58546901D01*
X78721094Y-58537308D01*
X78788262Y-58316232D01*
X78790439Y-58306162D01*
X78820835Y-58075279D01*
X78821354Y-58068604D01*
X78822949Y-58003364D01*
X78822755Y-57996647D01*
X78803675Y-57764567D01*
X78801992Y-57754405D01*
X78745703Y-57530306D01*
X78743954Y-57525170D01*
X85444373Y-57525170D01*
X85448156Y-57533946D01*
X86372188Y-58457978D01*
X86386132Y-58465592D01*
X86387965Y-58465461D01*
X86394580Y-58461210D01*
X87318800Y-57536990D01*
X87325560Y-57524610D01*
X87319833Y-57516960D01*
X87121494Y-57395417D01*
X87112700Y-57390936D01*
X86888009Y-57297866D01*
X86878624Y-57294817D01*
X86642137Y-57238041D01*
X86632390Y-57236498D01*
X86389930Y-57217416D01*
X86380070Y-57217416D01*
X86137610Y-57236498D01*
X86127863Y-57238041D01*
X85891376Y-57294817D01*
X85881991Y-57297866D01*
X85657300Y-57390936D01*
X85648506Y-57395417D01*
X85453833Y-57514713D01*
X85444373Y-57525170D01*
X78743954Y-57525170D01*
X78742382Y-57520551D01*
X78650252Y-57308667D01*
X78645374Y-57299570D01*
X78562616Y-57171645D01*
X78551930Y-57162442D01*
X78542365Y-57166845D01*
X77722022Y-57987188D01*
X77714408Y-58001132D01*
X76984356Y-58001132D01*
X76985592Y-57998868D01*
X76985461Y-57997035D01*
X76981210Y-57990420D01*
X76160687Y-57169897D01*
X76149151Y-57163597D01*
X76136868Y-57173221D01*
X76072126Y-57268129D01*
X76067028Y-57277103D01*
X75969750Y-57486670D01*
X75966187Y-57496357D01*
X75955917Y-57533388D01*
X75918438Y-57593686D01*
X75854309Y-57624149D01*
X75783891Y-57615106D01*
X75729541Y-57569427D01*
X75708500Y-57499716D01*
X75708500Y-56675713D01*
X75728502Y-56607592D01*
X75756600Y-56578359D01*
X75755896Y-56577520D01*
X75760109Y-56573985D01*
X75764620Y-56570826D01*
X75920826Y-56414620D01*
X75923979Y-56410117D01*
X75927522Y-56405895D01*
X75928941Y-56407086D01*
X75977941Y-56367907D01*
X76025713Y-56358500D01*
X76855688Y-56358500D01*
X76923809Y-56378502D01*
X76970302Y-56432158D01*
X76980406Y-56502432D01*
X76950912Y-56567012D01*
X76894833Y-56604265D01*
X76784096Y-56640460D01*
X76774586Y-56644457D01*
X76569646Y-56751142D01*
X76560921Y-56756636D01*
X76521106Y-56786530D01*
X76512652Y-56797857D01*
X76519397Y-56810187D01*
X77337188Y-57627978D01*
X77351132Y-57635592D01*
X77352965Y-57635461D01*
X77359580Y-57631210D01*
X78181710Y-56809080D01*
X78188731Y-56796223D01*
X78180959Y-56785556D01*
X78169218Y-56776283D01*
X78160637Y-56770583D01*
X77958355Y-56658918D01*
X77948956Y-56654693D01*
X77803751Y-56603273D01*
X77746214Y-56561679D01*
X77720299Y-56495581D01*
X77734233Y-56425965D01*
X77783592Y-56374934D01*
X77845811Y-56358500D01*
X78893362Y-56358500D01*
X78961483Y-56378502D01*
X79007976Y-56432158D01*
X79018689Y-56471497D01*
X79026679Y-56548502D01*
X79027474Y-56556166D01*
X79029655Y-56562702D01*
X79029655Y-56562704D01*
X79060307Y-56654579D01*
X79083450Y-56723946D01*
X79176522Y-56874348D01*
X79301697Y-56999305D01*
X79307927Y-57003145D01*
X79307928Y-57003146D01*
X79445090Y-57087694D01*
X79452262Y-57092115D01*
X79500070Y-57107972D01*
X79613611Y-57145632D01*
X79613613Y-57145632D01*
X79620139Y-57147797D01*
X79626975Y-57148497D01*
X79626978Y-57148498D01*
X79670031Y-57152909D01*
X79724600Y-57158500D01*
X81075400Y-57158500D01*
X81078646Y-57158163D01*
X81078650Y-57158163D01*
X81174308Y-57148238D01*
X81174312Y-57148237D01*
X81181166Y-57147526D01*
X81187702Y-57145345D01*
X81187704Y-57145345D01*
X81332098Y-57097171D01*
X81348946Y-57091550D01*
X81499348Y-56998478D01*
X81624305Y-56873303D01*
X81639990Y-56847857D01*
X81713275Y-56728968D01*
X81713276Y-56728966D01*
X81717115Y-56722738D01*
X81752663Y-56615564D01*
X81770632Y-56561389D01*
X81770632Y-56561387D01*
X81772797Y-56554861D01*
X81774796Y-56535357D01*
X81780246Y-56482158D01*
X81783500Y-56450400D01*
X81783500Y-55724600D01*
X81772526Y-55618834D01*
X81766243Y-55600000D01*
X81718868Y-55458002D01*
X81716550Y-55451054D01*
X81623478Y-55300652D01*
X81498303Y-55175695D01*
X81463667Y-55154345D01*
X81353968Y-55086725D01*
X81353966Y-55086724D01*
X81347738Y-55082885D01*
X81198177Y-55033278D01*
X81186389Y-55029368D01*
X81186387Y-55029368D01*
X81179861Y-55027203D01*
X81173025Y-55026503D01*
X81173022Y-55026502D01*
X81122443Y-55021320D01*
X81075400Y-55016500D01*
X80443523Y-55016500D01*
X80375402Y-54996498D01*
X80361943Y-54986524D01*
X80341797Y-54969409D01*
X80341795Y-54969408D01*
X80336215Y-54964667D01*
X80329699Y-54961339D01*
X80324650Y-54957972D01*
X80319521Y-54954805D01*
X80313784Y-54950266D01*
X80247625Y-54919345D01*
X80243725Y-54917439D01*
X80178692Y-54884231D01*
X80171584Y-54882492D01*
X80165941Y-54880393D01*
X80160178Y-54878476D01*
X80153550Y-54875378D01*
X80082083Y-54860513D01*
X80077799Y-54859543D01*
X80006890Y-54842192D01*
X80001288Y-54841844D01*
X80001285Y-54841844D01*
X79995736Y-54841500D01*
X79995738Y-54841464D01*
X79991745Y-54841225D01*
X79987553Y-54840851D01*
X79980385Y-54839360D01*
X79914175Y-54841151D01*
X79902979Y-54841454D01*
X79899572Y-54841500D01*
X77845887Y-54841500D01*
X77777766Y-54821498D01*
X77731273Y-54767842D01*
X77721169Y-54697568D01*
X77750663Y-54632988D01*
X77809679Y-54594814D01*
X77882522Y-54572960D01*
X77892120Y-54569199D01*
X78099617Y-54467547D01*
X78108462Y-54462274D01*
X78178115Y-54412591D01*
X78186516Y-54401891D01*
X78179528Y-54388738D01*
X77362812Y-53572022D01*
X77348868Y-53564408D01*
X77347035Y-53564539D01*
X77340420Y-53568790D01*
X76516534Y-54392676D01*
X76509273Y-54405973D01*
X76513032Y-54411269D01*
X76709066Y-54525822D01*
X76718349Y-54530269D01*
X76895168Y-54597790D01*
X76951671Y-54640777D01*
X76975964Y-54707489D01*
X76960334Y-54776743D01*
X76909743Y-54826554D01*
X76850219Y-54841500D01*
X76025713Y-54841500D01*
X75957592Y-54821498D01*
X75928362Y-54793400D01*
X75927522Y-54794105D01*
X75923979Y-54789883D01*
X75920826Y-54785380D01*
X75764620Y-54629174D01*
X75760112Y-54626017D01*
X75760109Y-54626015D01*
X75588171Y-54505623D01*
X75588168Y-54505621D01*
X75583662Y-54502466D01*
X75578680Y-54500143D01*
X75578675Y-54500140D01*
X75388432Y-54411429D01*
X75388431Y-54411429D01*
X75383450Y-54409106D01*
X75378142Y-54407684D01*
X75378140Y-54407683D01*
X75284816Y-54382677D01*
X75170068Y-54351930D01*
X74950000Y-54332677D01*
X74729932Y-54351930D01*
X74615184Y-54382677D01*
X74521860Y-54407683D01*
X74521858Y-54407684D01*
X74516550Y-54409106D01*
X74511569Y-54411428D01*
X74511568Y-54411429D01*
X74321320Y-54500143D01*
X74321317Y-54500145D01*
X74316339Y-54502466D01*
X74135380Y-54629174D01*
X73979174Y-54785380D01*
X73852466Y-54966339D01*
X73850145Y-54971317D01*
X73850143Y-54971320D01*
X73761429Y-55161568D01*
X73759106Y-55166550D01*
X73757685Y-55171854D01*
X73757683Y-55171860D01*
X73755270Y-55180866D01*
X73701930Y-55379932D01*
X73682677Y-55600000D01*
X73701930Y-55820068D01*
X73714879Y-55868393D01*
X73757436Y-56027216D01*
X73759106Y-56033450D01*
X73761428Y-56038431D01*
X73761429Y-56038432D01*
X73834513Y-56195160D01*
X73852466Y-56233661D01*
X73979174Y-56414620D01*
X74135380Y-56570826D01*
X74139891Y-56573985D01*
X74144104Y-56577520D01*
X74142914Y-56578938D01*
X74182097Y-56627951D01*
X74191500Y-56675713D01*
X74191500Y-57491226D01*
X74171498Y-57559347D01*
X74117842Y-57605840D01*
X74047568Y-57615944D01*
X73982988Y-57586450D01*
X73946223Y-57531833D01*
X73942382Y-57520551D01*
X73850252Y-57308667D01*
X73845374Y-57299570D01*
X73762616Y-57171645D01*
X73751930Y-57162442D01*
X73742365Y-57166845D01*
X72922022Y-57987188D01*
X72914408Y-58001132D01*
X72914539Y-58002965D01*
X72918790Y-58009580D01*
X73739296Y-58830086D01*
X73751306Y-58836645D01*
X73763046Y-58827677D01*
X73809616Y-58762867D01*
X73814927Y-58754028D01*
X73917296Y-58546901D01*
X73921094Y-58537308D01*
X73944941Y-58458819D01*
X73983883Y-58399454D01*
X74048737Y-58370567D01*
X74118913Y-58381328D01*
X74172131Y-58428321D01*
X74191500Y-58495447D01*
X74191500Y-59440500D01*
X74171498Y-59508621D01*
X74117842Y-59555114D01*
X74065500Y-59566500D01*
X73974600Y-59566500D01*
X73971354Y-59566837D01*
X73971350Y-59566837D01*
X73875692Y-59576762D01*
X73875688Y-59576763D01*
X73868834Y-59577474D01*
X73862298Y-59579655D01*
X73862296Y-59579655D01*
X73773713Y-59609209D01*
X73701054Y-59633450D01*
X73550652Y-59726522D01*
X73425695Y-59851697D01*
X73421855Y-59857927D01*
X73421854Y-59857928D01*
X73357521Y-59962296D01*
X73332885Y-60002262D01*
X73330581Y-60009209D01*
X73306049Y-60083172D01*
X73277203Y-60170139D01*
X73266500Y-60274600D01*
X73266500Y-60639629D01*
X73246498Y-60707750D01*
X73192842Y-60754243D01*
X73122568Y-60764347D01*
X73057988Y-60734853D01*
X73051405Y-60728724D01*
X71906366Y-59583685D01*
X71872340Y-59521373D01*
X71877405Y-59450558D01*
X71919952Y-59393722D01*
X71986472Y-59368911D01*
X72040410Y-59376880D01*
X72134206Y-59412697D01*
X72144108Y-59415574D01*
X72370511Y-59461636D01*
X72380764Y-59462859D01*
X72611657Y-59471326D01*
X72621943Y-59470859D01*
X72851132Y-59441499D01*
X72861210Y-59439357D01*
X73082522Y-59372960D01*
X73092120Y-59369199D01*
X73299617Y-59267547D01*
X73308462Y-59262274D01*
X73378115Y-59212591D01*
X73386516Y-59201891D01*
X73379528Y-59188738D01*
X71360687Y-57169897D01*
X71349151Y-57163597D01*
X71336868Y-57173221D01*
X71272126Y-57268129D01*
X71267028Y-57277103D01*
X71169750Y-57486670D01*
X71166187Y-57496357D01*
X71104442Y-57718999D01*
X71102511Y-57729118D01*
X71077958Y-57958878D01*
X71077706Y-57969167D01*
X71091006Y-58199838D01*
X71092442Y-58210058D01*
X71143238Y-58435454D01*
X71146317Y-58445282D01*
X71170941Y-58505923D01*
X71178037Y-58576564D01*
X71145815Y-58639828D01*
X71084505Y-58675628D01*
X71013573Y-58672598D01*
X70965103Y-58642422D01*
X69583770Y-57261089D01*
X69571384Y-57246677D01*
X69562851Y-57235082D01*
X69562846Y-57235077D01*
X69558508Y-57229182D01*
X69552930Y-57224443D01*
X69552927Y-57224440D01*
X69518232Y-57194965D01*
X69510716Y-57188035D01*
X69505021Y-57182340D01*
X69491503Y-57171645D01*
X69482749Y-57164719D01*
X69479345Y-57161928D01*
X69429297Y-57119409D01*
X69429295Y-57119408D01*
X69423715Y-57114667D01*
X69417199Y-57111339D01*
X69412150Y-57107972D01*
X69407021Y-57104805D01*
X69401284Y-57100266D01*
X69335125Y-57069345D01*
X69331225Y-57067439D01*
X69266192Y-57034231D01*
X69259084Y-57032492D01*
X69253441Y-57030393D01*
X69247678Y-57028476D01*
X69241050Y-57025378D01*
X69169583Y-57010513D01*
X69165299Y-57009543D01*
X69139156Y-57003146D01*
X69094390Y-56992192D01*
X69088788Y-56991844D01*
X69088785Y-56991844D01*
X69083236Y-56991500D01*
X69083238Y-56991464D01*
X69079245Y-56991225D01*
X69075053Y-56990851D01*
X69067885Y-56989360D01*
X69001675Y-56991151D01*
X68990479Y-56991454D01*
X68987072Y-56991500D01*
X68920879Y-56991500D01*
X68852758Y-56971498D01*
X68806265Y-56917842D01*
X68801356Y-56905377D01*
X68768870Y-56808007D01*
X68768868Y-56808002D01*
X68766550Y-56801054D01*
X68764572Y-56797857D01*
X71712652Y-56797857D01*
X71719397Y-56810187D01*
X72537188Y-57627978D01*
X72551132Y-57635592D01*
X72552965Y-57635461D01*
X72559580Y-57631210D01*
X73381710Y-56809080D01*
X73388731Y-56796223D01*
X73380959Y-56785556D01*
X73369218Y-56776283D01*
X73360637Y-56770583D01*
X73158355Y-56658918D01*
X73148956Y-56654693D01*
X72931155Y-56577565D01*
X72921184Y-56574931D01*
X72693713Y-56534412D01*
X72683461Y-56533443D01*
X72452417Y-56530620D01*
X72442133Y-56531340D01*
X72213741Y-56566289D01*
X72203713Y-56568678D01*
X71984096Y-56640460D01*
X71974586Y-56644457D01*
X71769646Y-56751142D01*
X71760921Y-56756636D01*
X71721106Y-56786530D01*
X71712652Y-56797857D01*
X68764572Y-56797857D01*
X68673478Y-56650652D01*
X68548303Y-56525695D01*
X68503257Y-56497928D01*
X68403968Y-56436725D01*
X68403966Y-56436724D01*
X68397738Y-56432885D01*
X68237254Y-56379655D01*
X68236389Y-56379368D01*
X68236387Y-56379368D01*
X68229861Y-56377203D01*
X68223025Y-56376503D01*
X68223022Y-56376502D01*
X68173077Y-56371385D01*
X68125400Y-56366500D01*
X67399600Y-56366500D01*
X67396354Y-56366837D01*
X67396350Y-56366837D01*
X67300692Y-56376762D01*
X67300688Y-56376763D01*
X67293834Y-56377474D01*
X67287298Y-56379655D01*
X67287296Y-56379655D01*
X67169995Y-56418790D01*
X67126054Y-56433450D01*
X66975652Y-56526522D01*
X66850695Y-56651697D01*
X66846855Y-56657927D01*
X66846854Y-56657928D01*
X66802320Y-56730176D01*
X66757885Y-56802262D01*
X66702203Y-56970139D01*
X66701503Y-56976975D01*
X66701502Y-56976978D01*
X66698821Y-57003146D01*
X66691500Y-57074600D01*
X66691500Y-58425400D01*
X66691837Y-58428646D01*
X66691837Y-58428650D01*
X66701688Y-58523589D01*
X66702474Y-58531166D01*
X66704655Y-58537702D01*
X66704655Y-58537704D01*
X66721688Y-58588758D01*
X66758450Y-58698946D01*
X66851522Y-58849348D01*
X66976697Y-58974305D01*
X67062064Y-59026926D01*
X67087649Y-59042697D01*
X67135142Y-59095470D01*
X67146564Y-59165541D01*
X67118290Y-59230665D01*
X67087836Y-59257100D01*
X66975652Y-59326522D01*
X66850695Y-59451697D01*
X66846855Y-59457927D01*
X66846854Y-59457928D01*
X66773165Y-59577474D01*
X66757885Y-59602262D01*
X66702203Y-59770139D01*
X66701503Y-59776975D01*
X66701502Y-59776978D01*
X66698326Y-59807982D01*
X66691500Y-59874600D01*
X66691500Y-61225400D01*
X66696856Y-61277017D01*
X66683992Y-61346837D01*
X66635421Y-61398619D01*
X66571529Y-61416020D01*
X66028539Y-61416020D01*
X65960418Y-61396018D01*
X65913925Y-61342362D01*
X65903195Y-61277177D01*
X65905196Y-61257643D01*
X65908500Y-61225400D01*
X65908500Y-59874600D01*
X65906770Y-59857928D01*
X65898238Y-59775692D01*
X65898237Y-59775688D01*
X65897526Y-59768834D01*
X65885139Y-59731704D01*
X65843868Y-59608002D01*
X65841550Y-59601054D01*
X65748478Y-59450652D01*
X65674199Y-59376502D01*
X65632982Y-59335357D01*
X65598903Y-59273074D01*
X65596000Y-59246184D01*
X65596000Y-59054002D01*
X65616002Y-58985881D01*
X65632827Y-58964984D01*
X65633168Y-58964643D01*
X65749305Y-58848303D01*
X65758760Y-58832965D01*
X65838275Y-58703968D01*
X65838276Y-58703966D01*
X65842115Y-58697738D01*
X65880301Y-58582610D01*
X65895632Y-58536389D01*
X65895632Y-58536387D01*
X65897797Y-58529861D01*
X65898916Y-58518945D01*
X65905162Y-58457978D01*
X65908500Y-58425400D01*
X65908500Y-57074600D01*
X65908163Y-57071350D01*
X65898238Y-56975692D01*
X65898237Y-56975688D01*
X65897526Y-56968834D01*
X65867383Y-56878483D01*
X65843868Y-56808002D01*
X65841550Y-56801054D01*
X65748478Y-56650652D01*
X65722712Y-56624931D01*
X65632982Y-56535357D01*
X65598903Y-56473074D01*
X65596000Y-56446184D01*
X65596000Y-56404570D01*
X65597433Y-56385620D01*
X65599599Y-56371385D01*
X65599599Y-56371381D01*
X65600699Y-56364151D01*
X65596415Y-56311482D01*
X65596000Y-56301267D01*
X65596000Y-56293207D01*
X65595413Y-56288166D01*
X65592711Y-56264997D01*
X65592278Y-56260621D01*
X65586360Y-56187864D01*
X65584105Y-56180903D01*
X65582918Y-56174963D01*
X65581529Y-56169088D01*
X65580682Y-56161819D01*
X65555764Y-56093170D01*
X65554347Y-56089042D01*
X65534107Y-56026564D01*
X65534106Y-56026562D01*
X65531851Y-56019601D01*
X65528055Y-56013346D01*
X65525549Y-56007872D01*
X65522830Y-56002442D01*
X65520333Y-55995563D01*
X65480314Y-55934524D01*
X65477967Y-55930805D01*
X65444335Y-55875381D01*
X65440095Y-55868393D01*
X65432697Y-55860016D01*
X65432724Y-55859992D01*
X65430071Y-55857000D01*
X65427368Y-55853767D01*
X65423356Y-55847648D01*
X65367117Y-55794372D01*
X65364675Y-55791994D01*
X64733770Y-55161089D01*
X64721384Y-55146677D01*
X64712851Y-55135082D01*
X64712846Y-55135077D01*
X64708508Y-55129182D01*
X64702930Y-55124443D01*
X64702927Y-55124440D01*
X64668232Y-55094965D01*
X64660716Y-55088035D01*
X64655021Y-55082340D01*
X64648880Y-55077482D01*
X64632749Y-55064719D01*
X64629345Y-55061928D01*
X64579297Y-55019409D01*
X64579295Y-55019408D01*
X64573715Y-55014667D01*
X64567199Y-55011339D01*
X64562150Y-55007972D01*
X64557021Y-55004805D01*
X64551284Y-55000266D01*
X64485125Y-54969345D01*
X64481225Y-54967439D01*
X64479071Y-54966339D01*
X64416192Y-54934231D01*
X64409084Y-54932492D01*
X64403441Y-54930393D01*
X64397678Y-54928476D01*
X64391050Y-54925378D01*
X64319583Y-54910513D01*
X64315299Y-54909543D01*
X64244390Y-54892192D01*
X64238788Y-54891844D01*
X64238785Y-54891844D01*
X64233236Y-54891500D01*
X64233238Y-54891464D01*
X64229245Y-54891225D01*
X64225053Y-54890851D01*
X64217885Y-54889360D01*
X64151675Y-54891151D01*
X64140479Y-54891454D01*
X64137072Y-54891500D01*
X62395887Y-54891500D01*
X62327766Y-54871498D01*
X62281273Y-54817842D01*
X62271169Y-54747568D01*
X62300663Y-54682988D01*
X62359679Y-54644814D01*
X62432522Y-54622960D01*
X62442120Y-54619199D01*
X62649617Y-54517547D01*
X62658462Y-54512274D01*
X62728115Y-54462591D01*
X62736516Y-54451891D01*
X62729528Y-54438738D01*
X62696763Y-54405973D01*
X71709273Y-54405973D01*
X71713032Y-54411269D01*
X71909066Y-54525822D01*
X71918349Y-54530269D01*
X72134206Y-54612697D01*
X72144108Y-54615574D01*
X72370511Y-54661636D01*
X72380764Y-54662859D01*
X72611657Y-54671326D01*
X72621943Y-54670859D01*
X72851132Y-54641499D01*
X72861210Y-54639357D01*
X73082522Y-54572960D01*
X73092120Y-54569199D01*
X73299617Y-54467547D01*
X73308462Y-54462274D01*
X73378115Y-54412591D01*
X73386516Y-54401891D01*
X73379528Y-54388738D01*
X72562812Y-53572022D01*
X72548868Y-53564408D01*
X72547035Y-53564539D01*
X72540420Y-53568790D01*
X71716534Y-54392676D01*
X71709273Y-54405973D01*
X62696763Y-54405973D01*
X61912812Y-53622022D01*
X61898868Y-53614408D01*
X61897035Y-53614539D01*
X61890420Y-53618790D01*
X61066534Y-54442676D01*
X61059273Y-54455973D01*
X61063032Y-54461269D01*
X61259066Y-54575822D01*
X61268349Y-54580269D01*
X61445168Y-54647790D01*
X61501671Y-54690777D01*
X61525964Y-54757489D01*
X61510334Y-54826743D01*
X61459743Y-54876554D01*
X61400219Y-54891500D01*
X60575713Y-54891500D01*
X60507592Y-54871498D01*
X60478362Y-54843400D01*
X60477522Y-54844105D01*
X60473979Y-54839883D01*
X60470826Y-54835380D01*
X60314620Y-54679174D01*
X60310112Y-54676017D01*
X60310109Y-54676015D01*
X60138171Y-54555623D01*
X60138168Y-54555621D01*
X60133662Y-54552466D01*
X60128680Y-54550143D01*
X60128675Y-54550140D01*
X59938432Y-54461429D01*
X59938431Y-54461429D01*
X59933450Y-54459106D01*
X59928142Y-54457684D01*
X59928140Y-54457683D01*
X59809808Y-54425976D01*
X59720068Y-54401930D01*
X59500000Y-54382677D01*
X59279932Y-54401930D01*
X59190192Y-54425976D01*
X59071860Y-54457683D01*
X59071858Y-54457684D01*
X59066550Y-54459106D01*
X59061569Y-54461428D01*
X59061568Y-54461429D01*
X58871320Y-54550143D01*
X58871317Y-54550145D01*
X58866339Y-54552466D01*
X58685380Y-54679174D01*
X58529174Y-54835380D01*
X58402466Y-55016339D01*
X58400145Y-55021317D01*
X58400143Y-55021320D01*
X58332421Y-55166550D01*
X58309106Y-55216550D01*
X58251930Y-55429932D01*
X58232677Y-55650000D01*
X58251930Y-55870068D01*
X58253354Y-55875381D01*
X58301204Y-56053958D01*
X58309106Y-56083450D01*
X58311428Y-56088431D01*
X58311429Y-56088432D01*
X58395439Y-56268591D01*
X58402466Y-56283661D01*
X58529174Y-56464620D01*
X58685380Y-56620826D01*
X58689888Y-56623983D01*
X58689891Y-56623985D01*
X58839823Y-56728968D01*
X58866338Y-56747534D01*
X58871320Y-56749857D01*
X58871325Y-56749860D01*
X59057191Y-56836530D01*
X59066550Y-56840894D01*
X59071858Y-56842316D01*
X59071860Y-56842317D01*
X59137252Y-56859839D01*
X59279932Y-56898070D01*
X59500000Y-56917323D01*
X59720068Y-56898070D01*
X59862748Y-56859839D01*
X59928140Y-56842317D01*
X59928142Y-56842316D01*
X59933450Y-56840894D01*
X59942809Y-56836530D01*
X60128675Y-56749860D01*
X60128680Y-56749857D01*
X60133662Y-56747534D01*
X60160177Y-56728968D01*
X60310109Y-56623985D01*
X60310112Y-56623983D01*
X60314620Y-56620826D01*
X60470826Y-56464620D01*
X60473979Y-56460117D01*
X60477522Y-56455895D01*
X60478941Y-56457086D01*
X60527941Y-56417907D01*
X60575713Y-56408500D01*
X61405688Y-56408500D01*
X61473809Y-56428502D01*
X61520302Y-56482158D01*
X61530406Y-56552432D01*
X61500912Y-56617012D01*
X61444833Y-56654265D01*
X61334096Y-56690460D01*
X61324586Y-56694457D01*
X61119646Y-56801142D01*
X61110921Y-56806636D01*
X61071106Y-56836530D01*
X61062652Y-56847857D01*
X61069397Y-56860187D01*
X61887188Y-57677978D01*
X61901132Y-57685592D01*
X61902965Y-57685461D01*
X61909580Y-57681210D01*
X62731710Y-56859080D01*
X62738731Y-56846223D01*
X62730959Y-56835556D01*
X62719218Y-56826283D01*
X62710637Y-56820583D01*
X62508355Y-56708918D01*
X62498956Y-56704693D01*
X62353751Y-56653273D01*
X62296214Y-56611679D01*
X62270299Y-56545581D01*
X62284233Y-56475965D01*
X62333592Y-56424934D01*
X62395811Y-56408500D01*
X63783628Y-56408500D01*
X63851749Y-56428502D01*
X63872723Y-56445405D01*
X63914711Y-56487393D01*
X63948737Y-56549705D01*
X63943672Y-56620520D01*
X63926673Y-56650718D01*
X63925695Y-56651697D01*
X63921855Y-56657927D01*
X63921854Y-56657928D01*
X63877320Y-56730176D01*
X63832885Y-56802262D01*
X63777203Y-56970139D01*
X63776503Y-56976975D01*
X63776502Y-56976978D01*
X63773821Y-57003146D01*
X63766500Y-57074600D01*
X63766500Y-58425400D01*
X63766837Y-58428646D01*
X63766837Y-58428650D01*
X63776688Y-58523589D01*
X63777474Y-58531166D01*
X63779655Y-58537702D01*
X63779655Y-58537704D01*
X63796688Y-58588758D01*
X63833450Y-58698946D01*
X63926522Y-58849348D01*
X63931704Y-58854521D01*
X64042018Y-58964643D01*
X64076097Y-59026926D01*
X64079000Y-59053816D01*
X64079000Y-59245998D01*
X64058998Y-59314119D01*
X64042174Y-59335015D01*
X63925695Y-59451697D01*
X63921855Y-59457927D01*
X63921854Y-59457928D01*
X63848165Y-59577474D01*
X63832885Y-59602262D01*
X63777203Y-59770139D01*
X63776503Y-59776975D01*
X63776502Y-59776978D01*
X63773326Y-59807982D01*
X63766500Y-59874600D01*
X63766500Y-61225400D01*
X63771856Y-61277017D01*
X63758992Y-61346837D01*
X63710421Y-61398619D01*
X63646529Y-61416020D01*
X60542550Y-61416020D01*
X60523600Y-61414587D01*
X60509365Y-61412421D01*
X60509361Y-61412421D01*
X60502131Y-61411321D01*
X60494839Y-61411914D01*
X60494836Y-61411914D01*
X60449462Y-61415605D01*
X60439247Y-61416020D01*
X60431187Y-61416020D01*
X60427553Y-61416444D01*
X60427547Y-61416444D01*
X60414522Y-61417963D01*
X60402960Y-61419311D01*
X60398612Y-61419741D01*
X60325844Y-61425660D01*
X60318883Y-61427915D01*
X60312943Y-61429102D01*
X60307068Y-61430491D01*
X60299799Y-61431338D01*
X60231150Y-61456256D01*
X60227022Y-61457673D01*
X60164544Y-61477913D01*
X60164542Y-61477914D01*
X60157581Y-61480169D01*
X60151326Y-61483965D01*
X60145852Y-61486471D01*
X60140422Y-61489190D01*
X60133543Y-61491687D01*
X60127423Y-61495700D01*
X60127422Y-61495700D01*
X60072504Y-61531706D01*
X60068800Y-61534043D01*
X60006373Y-61571925D01*
X59997996Y-61579323D01*
X59997972Y-61579296D01*
X59994980Y-61581949D01*
X59991747Y-61584652D01*
X59985628Y-61588664D01*
X59956431Y-61619485D01*
X59932352Y-61644903D01*
X59929974Y-61647345D01*
X58961089Y-62616230D01*
X58946677Y-62628616D01*
X58935082Y-62637149D01*
X58935077Y-62637154D01*
X58929182Y-62641492D01*
X58924443Y-62647070D01*
X58924440Y-62647073D01*
X58894965Y-62681768D01*
X58888035Y-62689284D01*
X58882340Y-62694979D01*
X58880060Y-62697861D01*
X58864719Y-62717251D01*
X58861928Y-62720655D01*
X58830309Y-62757873D01*
X58814667Y-62776285D01*
X58811339Y-62782801D01*
X58807972Y-62787850D01*
X58804805Y-62792979D01*
X58800266Y-62798716D01*
X58769345Y-62864875D01*
X58767442Y-62868769D01*
X58734231Y-62933808D01*
X58732492Y-62940916D01*
X58730393Y-62946559D01*
X58728476Y-62952322D01*
X58725378Y-62958950D01*
X58723888Y-62966112D01*
X58723888Y-62966113D01*
X58710514Y-63030412D01*
X58709544Y-63034696D01*
X58692192Y-63105610D01*
X58691844Y-63111212D01*
X58691844Y-63111215D01*
X58691500Y-63116762D01*
X58691500Y-63116764D01*
X58691464Y-63116762D01*
X58691225Y-63120755D01*
X58690851Y-63124947D01*
X58689360Y-63132115D01*
X58690065Y-63158159D01*
X58691454Y-63209521D01*
X58691500Y-63212928D01*
X58691500Y-64029198D01*
X58671498Y-64097319D01*
X58646496Y-64125716D01*
X58642473Y-64129092D01*
X58637962Y-64132251D01*
X58482251Y-64287962D01*
X58479094Y-64292470D01*
X58479092Y-64292473D01*
X58359101Y-64463838D01*
X58355944Y-64468347D01*
X58353621Y-64473329D01*
X58353618Y-64473334D01*
X58311949Y-64562694D01*
X58262880Y-64667924D01*
X58205885Y-64880629D01*
X58186693Y-65100000D01*
X58205885Y-65319371D01*
X58262880Y-65532076D01*
X58265205Y-65537061D01*
X58353618Y-65726666D01*
X58353621Y-65726671D01*
X58355944Y-65731653D01*
X58359100Y-65736160D01*
X58359101Y-65736162D01*
X58478634Y-65906872D01*
X58482251Y-65912038D01*
X58637962Y-66067749D01*
X58642471Y-66070906D01*
X58642473Y-66070908D01*
X58700727Y-66111698D01*
X58818346Y-66194056D01*
X59017924Y-66287120D01*
X59230629Y-66344115D01*
X59450000Y-66363307D01*
X59669371Y-66344115D01*
X59882076Y-66287120D01*
X59958475Y-66251495D01*
X61144401Y-66251495D01*
X61144738Y-66258014D01*
X61154657Y-66353606D01*
X61157549Y-66367000D01*
X61208988Y-66521184D01*
X61215161Y-66534362D01*
X61300463Y-66672207D01*
X61309499Y-66683608D01*
X61424229Y-66798139D01*
X61435640Y-66807151D01*
X61573643Y-66892216D01*
X61586824Y-66898363D01*
X61741110Y-66949538D01*
X61754486Y-66952405D01*
X61848838Y-66962072D01*
X61855254Y-66962400D01*
X62030285Y-66962400D01*
X62045524Y-66957925D01*
X62046729Y-66956535D01*
X62048400Y-66948852D01*
X62048400Y-65851515D01*
X62043925Y-65836276D01*
X62042535Y-65835071D01*
X62034852Y-65833400D01*
X61162516Y-65833400D01*
X61147277Y-65837875D01*
X61146072Y-65839265D01*
X61144401Y-65846948D01*
X61144401Y-66251495D01*
X59958475Y-66251495D01*
X60081654Y-66194056D01*
X60199273Y-66111698D01*
X60257527Y-66070908D01*
X60257529Y-66070906D01*
X60262038Y-66067749D01*
X60417749Y-65912038D01*
X60421367Y-65906872D01*
X60540899Y-65736162D01*
X60540900Y-65736160D01*
X60544056Y-65731653D01*
X60546379Y-65726671D01*
X60546382Y-65726666D01*
X60634795Y-65537061D01*
X60637120Y-65532076D01*
X60694115Y-65319371D01*
X60695172Y-65307285D01*
X61144400Y-65307285D01*
X61148875Y-65322524D01*
X61150265Y-65323729D01*
X61157948Y-65325400D01*
X62030285Y-65325400D01*
X62045524Y-65320925D01*
X62046729Y-65319535D01*
X62048400Y-65311852D01*
X62048400Y-65307285D01*
X62556400Y-65307285D01*
X62560875Y-65322524D01*
X62562265Y-65323729D01*
X62569948Y-65325400D01*
X63442284Y-65325400D01*
X63457523Y-65320925D01*
X63458728Y-65319535D01*
X63460399Y-65311852D01*
X63460399Y-64907305D01*
X63460062Y-64900786D01*
X63450143Y-64805194D01*
X63447251Y-64791800D01*
X63395812Y-64637616D01*
X63389639Y-64624438D01*
X63304337Y-64486593D01*
X63295301Y-64475192D01*
X63180571Y-64360661D01*
X63169160Y-64351649D01*
X63031157Y-64266584D01*
X63017976Y-64260437D01*
X62863690Y-64209262D01*
X62850314Y-64206395D01*
X62755962Y-64196728D01*
X62749545Y-64196400D01*
X62574515Y-64196400D01*
X62559276Y-64200875D01*
X62558071Y-64202265D01*
X62556400Y-64209948D01*
X62556400Y-65307285D01*
X62048400Y-65307285D01*
X62048400Y-64214516D01*
X62043925Y-64199277D01*
X62042535Y-64198072D01*
X62034852Y-64196401D01*
X61855305Y-64196401D01*
X61848786Y-64196738D01*
X61753194Y-64206657D01*
X61739800Y-64209549D01*
X61585616Y-64260988D01*
X61572438Y-64267161D01*
X61434593Y-64352463D01*
X61423192Y-64361499D01*
X61308661Y-64476229D01*
X61299649Y-64487640D01*
X61214584Y-64625643D01*
X61208437Y-64638824D01*
X61157262Y-64793110D01*
X61154395Y-64806486D01*
X61144728Y-64900838D01*
X61144400Y-64907255D01*
X61144400Y-65307285D01*
X60695172Y-65307285D01*
X60713307Y-65100000D01*
X60694115Y-64880629D01*
X60637120Y-64667924D01*
X60588051Y-64562694D01*
X60546382Y-64473334D01*
X60546379Y-64473329D01*
X60544056Y-64468347D01*
X60540899Y-64463838D01*
X60420908Y-64292473D01*
X60420906Y-64292470D01*
X60417749Y-64287962D01*
X60262038Y-64132251D01*
X60257527Y-64129092D01*
X60253504Y-64125716D01*
X60214181Y-64066605D01*
X60208500Y-64029198D01*
X60208500Y-63566371D01*
X60228502Y-63498250D01*
X60245405Y-63477276D01*
X60752756Y-62969925D01*
X60815068Y-62935899D01*
X60841851Y-62933020D01*
X66036402Y-62933020D01*
X66104523Y-62953022D01*
X66151016Y-63006678D01*
X66161120Y-63076952D01*
X66131626Y-63141532D01*
X66072561Y-63179491D01*
X66071964Y-63179540D01*
X66067329Y-63181042D01*
X66061091Y-63182578D01*
X66059041Y-63182988D01*
X66053192Y-63184370D01*
X66045919Y-63185218D01*
X65977270Y-63210136D01*
X65973142Y-63211553D01*
X65910664Y-63231793D01*
X65910662Y-63231794D01*
X65903701Y-63234049D01*
X65897446Y-63237845D01*
X65891972Y-63240351D01*
X65886542Y-63243070D01*
X65879663Y-63245567D01*
X65873543Y-63249580D01*
X65873542Y-63249580D01*
X65818624Y-63285586D01*
X65814920Y-63287923D01*
X65752493Y-63325805D01*
X65744116Y-63333203D01*
X65744092Y-63333176D01*
X65741100Y-63335829D01*
X65737867Y-63338532D01*
X65731748Y-63342544D01*
X65695916Y-63380369D01*
X65678472Y-63398783D01*
X65676094Y-63401225D01*
X64913489Y-64163830D01*
X64899079Y-64176215D01*
X64882309Y-64188557D01*
X64845637Y-64205084D01*
X64846234Y-64206874D01*
X64678454Y-64262850D01*
X64528052Y-64355922D01*
X64403095Y-64481097D01*
X64399255Y-64487327D01*
X64399254Y-64487328D01*
X64314467Y-64624878D01*
X64310285Y-64631662D01*
X64294393Y-64679576D01*
X64276883Y-64732368D01*
X64254603Y-64799539D01*
X64243900Y-64904000D01*
X64243900Y-66254800D01*
X64244237Y-66258046D01*
X64244237Y-66258050D01*
X64254152Y-66353606D01*
X64254874Y-66360566D01*
X64257055Y-66367102D01*
X64257055Y-66367104D01*
X64285918Y-66453615D01*
X64310850Y-66528346D01*
X64403922Y-66678748D01*
X64529097Y-66803705D01*
X64535325Y-66807544D01*
X64535330Y-66807548D01*
X64584017Y-66837559D01*
X64631510Y-66890331D01*
X64643900Y-66944818D01*
X64643900Y-67000404D01*
X64623898Y-67068525D01*
X64584206Y-67107546D01*
X64560652Y-67122122D01*
X64435695Y-67247297D01*
X64433094Y-67251516D01*
X64375970Y-67292017D01*
X64305047Y-67295249D01*
X64243635Y-67259624D01*
X64237078Y-67252070D01*
X64233478Y-67246252D01*
X64108303Y-67121295D01*
X64098902Y-67115500D01*
X63963968Y-67032325D01*
X63963966Y-67032324D01*
X63957738Y-67028485D01*
X63873076Y-67000404D01*
X63796389Y-66974968D01*
X63796387Y-66974968D01*
X63789861Y-66972803D01*
X63783025Y-66972103D01*
X63783022Y-66972102D01*
X63739969Y-66967691D01*
X63685400Y-66962100D01*
X63320913Y-66962100D01*
X63252792Y-66942098D01*
X63206299Y-66888442D01*
X63196195Y-66818168D01*
X63225689Y-66753588D01*
X63231740Y-66747082D01*
X63296139Y-66682571D01*
X63305151Y-66671160D01*
X63390216Y-66533157D01*
X63396363Y-66519976D01*
X63447538Y-66365690D01*
X63450405Y-66352314D01*
X63460072Y-66257962D01*
X63460400Y-66251546D01*
X63460400Y-65851515D01*
X63455925Y-65836276D01*
X63454535Y-65835071D01*
X63446852Y-65833400D01*
X62574515Y-65833400D01*
X62559276Y-65837875D01*
X62558071Y-65839265D01*
X62556400Y-65846948D01*
X62556400Y-66944285D01*
X62562661Y-66965609D01*
X62562661Y-67036605D01*
X62524277Y-67096331D01*
X62508070Y-67108249D01*
X62491879Y-67118268D01*
X62491876Y-67118271D01*
X62485652Y-67122122D01*
X62360695Y-67247297D01*
X62356855Y-67253527D01*
X62356854Y-67253528D01*
X62281847Y-67375212D01*
X62267885Y-67397862D01*
X62264695Y-67407479D01*
X62248397Y-67456617D01*
X62207967Y-67514977D01*
X62197889Y-67522322D01*
X62151424Y-67552786D01*
X62147720Y-67555123D01*
X62085293Y-67593005D01*
X62076916Y-67600403D01*
X62076892Y-67600376D01*
X62073900Y-67603029D01*
X62070667Y-67605732D01*
X62064548Y-67609744D01*
X62059516Y-67615056D01*
X62011272Y-67665983D01*
X62008894Y-67668425D01*
X60911089Y-68766230D01*
X60896677Y-68778616D01*
X60885082Y-68787149D01*
X60885077Y-68787154D01*
X60879182Y-68791492D01*
X60874443Y-68797070D01*
X60874440Y-68797073D01*
X60844965Y-68831768D01*
X60838035Y-68839284D01*
X60832340Y-68844979D01*
X60830060Y-68847861D01*
X60814719Y-68867251D01*
X60811928Y-68870655D01*
X60769409Y-68920703D01*
X60764667Y-68926285D01*
X60761339Y-68932801D01*
X60757972Y-68937850D01*
X60754805Y-68942979D01*
X60750266Y-68948716D01*
X60719345Y-69014875D01*
X60717442Y-69018769D01*
X60684231Y-69083808D01*
X60682492Y-69090916D01*
X60680393Y-69096559D01*
X60678476Y-69102322D01*
X60675378Y-69108950D01*
X60673888Y-69116112D01*
X60673888Y-69116113D01*
X60660514Y-69180412D01*
X60659544Y-69184696D01*
X60642192Y-69255610D01*
X60641500Y-69266764D01*
X60641464Y-69266762D01*
X60641225Y-69270755D01*
X60640851Y-69274947D01*
X60639360Y-69282115D01*
X60640275Y-69315935D01*
X60641454Y-69359521D01*
X60641500Y-69362928D01*
X60641500Y-71009182D01*
X60621498Y-71077303D01*
X60567842Y-71123796D01*
X60497568Y-71133900D01*
X60432988Y-71104406D01*
X60420084Y-71091296D01*
X60417749Y-71087962D01*
X60262038Y-70932251D01*
X60081654Y-70805944D01*
X59882076Y-70712880D01*
X59669371Y-70655885D01*
X59450000Y-70636693D01*
X59230629Y-70655885D01*
X59017924Y-70712880D01*
X58967721Y-70736290D01*
X58823334Y-70803618D01*
X58823329Y-70803621D01*
X58818347Y-70805944D01*
X58813840Y-70809100D01*
X58813838Y-70809101D01*
X58642473Y-70929092D01*
X58642470Y-70929094D01*
X58637962Y-70932251D01*
X58482251Y-71087962D01*
X58479094Y-71092470D01*
X58479092Y-71092473D01*
X58379832Y-71234231D01*
X58355944Y-71268347D01*
X58353621Y-71273329D01*
X58353618Y-71273334D01*
X58311273Y-71364144D01*
X58262880Y-71467924D01*
X58205885Y-71680629D01*
X58186693Y-71900000D01*
X56389964Y-71900000D01*
X56367159Y-71894525D01*
X56215062Y-71858009D01*
X56215056Y-71858008D01*
X56210249Y-71856854D01*
X55950000Y-71836372D01*
X55689751Y-71856854D01*
X55684944Y-71858008D01*
X55684938Y-71858009D01*
X55532841Y-71894525D01*
X55435911Y-71917796D01*
X55431340Y-71919689D01*
X55431338Y-71919690D01*
X55199303Y-72015802D01*
X55199299Y-72015804D01*
X55194729Y-72017697D01*
X54972144Y-72154097D01*
X54773637Y-72323637D01*
X54604097Y-72522144D01*
X54467697Y-72744729D01*
X54465804Y-72749299D01*
X54465802Y-72749303D01*
X54385000Y-72944376D01*
X54367796Y-72985911D01*
X54357714Y-73027905D01*
X54308009Y-73234938D01*
X54308008Y-73234944D01*
X54306854Y-73239751D01*
X54286372Y-73500000D01*
X48808500Y-73500000D01*
X48808500Y-71900000D01*
X51186693Y-71900000D01*
X51205885Y-72119371D01*
X51262880Y-72332076D01*
X51280870Y-72370655D01*
X51353618Y-72526666D01*
X51353621Y-72526671D01*
X51355944Y-72531653D01*
X51359100Y-72536160D01*
X51359101Y-72536162D01*
X51478616Y-72706846D01*
X51482251Y-72712038D01*
X51637962Y-72867749D01*
X51642471Y-72870906D01*
X51642473Y-72870908D01*
X51698395Y-72910065D01*
X51818346Y-72994056D01*
X52017924Y-73087120D01*
X52230629Y-73144115D01*
X52450000Y-73163307D01*
X52669371Y-73144115D01*
X52882076Y-73087120D01*
X53081654Y-72994056D01*
X53201605Y-72910065D01*
X53257527Y-72870908D01*
X53257529Y-72870906D01*
X53262038Y-72867749D01*
X53417749Y-72712038D01*
X53421385Y-72706846D01*
X53540899Y-72536162D01*
X53540900Y-72536160D01*
X53544056Y-72531653D01*
X53546379Y-72526671D01*
X53546382Y-72526666D01*
X53619130Y-72370655D01*
X53637120Y-72332076D01*
X53694115Y-72119371D01*
X53713307Y-71900000D01*
X53694115Y-71680629D01*
X53637120Y-71467924D01*
X53588727Y-71364144D01*
X53546382Y-71273334D01*
X53546379Y-71273329D01*
X53544056Y-71268347D01*
X53520168Y-71234231D01*
X53420908Y-71092473D01*
X53420906Y-71092470D01*
X53417749Y-71087962D01*
X53262038Y-70932251D01*
X53081654Y-70805944D01*
X52882076Y-70712880D01*
X52669371Y-70655885D01*
X52450000Y-70636693D01*
X52230629Y-70655885D01*
X52017924Y-70712880D01*
X51967721Y-70736290D01*
X51823334Y-70803618D01*
X51823329Y-70803621D01*
X51818347Y-70805944D01*
X51813840Y-70809100D01*
X51813838Y-70809101D01*
X51642473Y-70929092D01*
X51642470Y-70929094D01*
X51637962Y-70932251D01*
X51482251Y-71087962D01*
X51479094Y-71092470D01*
X51479092Y-71092473D01*
X51379832Y-71234231D01*
X51355944Y-71268347D01*
X51353621Y-71273329D01*
X51353618Y-71273334D01*
X51311273Y-71364144D01*
X51262880Y-71467924D01*
X51205885Y-71680629D01*
X51186693Y-71900000D01*
X48808500Y-71900000D01*
X48808500Y-68500000D01*
X51186693Y-68500000D01*
X51205885Y-68719371D01*
X51262880Y-68932076D01*
X51291527Y-68993509D01*
X51353618Y-69126666D01*
X51353621Y-69126671D01*
X51355944Y-69131653D01*
X51359100Y-69136160D01*
X51359101Y-69136162D01*
X51475406Y-69302262D01*
X51482251Y-69312038D01*
X51637962Y-69467749D01*
X51642471Y-69470906D01*
X51642473Y-69470908D01*
X51687174Y-69502208D01*
X51818346Y-69594056D01*
X52017924Y-69687120D01*
X52230629Y-69744115D01*
X52450000Y-69763307D01*
X52669371Y-69744115D01*
X52882076Y-69687120D01*
X53081654Y-69594056D01*
X53212826Y-69502208D01*
X53257527Y-69470908D01*
X53257529Y-69470906D01*
X53262038Y-69467749D01*
X53417749Y-69312038D01*
X53424595Y-69302262D01*
X53540899Y-69136162D01*
X53540900Y-69136160D01*
X53544056Y-69131653D01*
X53546379Y-69126671D01*
X53546382Y-69126666D01*
X53608473Y-68993509D01*
X53637120Y-68932076D01*
X53694115Y-68719371D01*
X53713307Y-68500000D01*
X53694115Y-68280629D01*
X53637120Y-68067924D01*
X53570673Y-67925428D01*
X53546382Y-67873334D01*
X53546379Y-67873329D01*
X53544056Y-67868347D01*
X53520234Y-67834326D01*
X53420908Y-67692473D01*
X53420906Y-67692470D01*
X53417749Y-67687962D01*
X53262038Y-67532251D01*
X53246245Y-67521192D01*
X53120515Y-67433155D01*
X53081654Y-67405944D01*
X52882076Y-67312880D01*
X52669371Y-67255885D01*
X52450000Y-67236693D01*
X52230629Y-67255885D01*
X52017924Y-67312880D01*
X51929759Y-67353992D01*
X51823334Y-67403618D01*
X51823329Y-67403621D01*
X51818347Y-67405944D01*
X51813840Y-67409100D01*
X51813838Y-67409101D01*
X51642473Y-67529092D01*
X51642470Y-67529094D01*
X51637962Y-67532251D01*
X51482251Y-67687962D01*
X51479094Y-67692470D01*
X51479092Y-67692473D01*
X51379766Y-67834326D01*
X51355944Y-67868347D01*
X51353621Y-67873329D01*
X51353618Y-67873334D01*
X51329327Y-67925428D01*
X51262880Y-68067924D01*
X51205885Y-68280629D01*
X51186693Y-68500000D01*
X48808500Y-68500000D01*
X48808500Y-65100000D01*
X51186693Y-65100000D01*
X51205885Y-65319371D01*
X51262880Y-65532076D01*
X51265205Y-65537061D01*
X51353618Y-65726666D01*
X51353621Y-65726671D01*
X51355944Y-65731653D01*
X51359100Y-65736160D01*
X51359101Y-65736162D01*
X51478634Y-65906872D01*
X51482251Y-65912038D01*
X51637962Y-66067749D01*
X51642471Y-66070906D01*
X51642473Y-66070908D01*
X51700727Y-66111698D01*
X51818346Y-66194056D01*
X52017924Y-66287120D01*
X52230629Y-66344115D01*
X52450000Y-66363307D01*
X52669371Y-66344115D01*
X52882076Y-66287120D01*
X53081654Y-66194056D01*
X53199273Y-66111698D01*
X53257527Y-66070908D01*
X53257529Y-66070906D01*
X53262038Y-66067749D01*
X53417749Y-65912038D01*
X53421367Y-65906872D01*
X53540899Y-65736162D01*
X53540900Y-65736160D01*
X53544056Y-65731653D01*
X53546379Y-65726671D01*
X53546382Y-65726666D01*
X53634795Y-65537061D01*
X53637120Y-65532076D01*
X53694115Y-65319371D01*
X53713307Y-65100000D01*
X53694115Y-64880629D01*
X53637120Y-64667924D01*
X53588051Y-64562694D01*
X53546382Y-64473334D01*
X53546379Y-64473329D01*
X53544056Y-64468347D01*
X53540899Y-64463838D01*
X53420908Y-64292473D01*
X53420906Y-64292470D01*
X53417749Y-64287962D01*
X53262038Y-64132251D01*
X53252706Y-64125716D01*
X53160514Y-64061163D01*
X53081654Y-64005944D01*
X52882076Y-63912880D01*
X52669371Y-63855885D01*
X52450000Y-63836693D01*
X52230629Y-63855885D01*
X52017924Y-63912880D01*
X51956548Y-63941500D01*
X51823334Y-64003618D01*
X51823329Y-64003621D01*
X51818347Y-64005944D01*
X51813840Y-64009100D01*
X51813838Y-64009101D01*
X51642473Y-64129092D01*
X51642470Y-64129094D01*
X51637962Y-64132251D01*
X51482251Y-64287962D01*
X51479094Y-64292470D01*
X51479092Y-64292473D01*
X51359101Y-64463838D01*
X51355944Y-64468347D01*
X51353621Y-64473329D01*
X51353618Y-64473334D01*
X51311949Y-64562694D01*
X51262880Y-64667924D01*
X51205885Y-64880629D01*
X51186693Y-65100000D01*
X48808500Y-65100000D01*
X48808500Y-63500000D01*
X54286372Y-63500000D01*
X54306854Y-63760249D01*
X54308008Y-63765056D01*
X54308009Y-63765062D01*
X54342069Y-63906931D01*
X54367796Y-64014089D01*
X54369689Y-64018660D01*
X54369690Y-64018662D01*
X54460903Y-64238868D01*
X54467697Y-64255271D01*
X54604097Y-64477856D01*
X54773637Y-64676363D01*
X54972144Y-64845903D01*
X55194729Y-64982303D01*
X55199299Y-64984196D01*
X55199303Y-64984198D01*
X55404357Y-65069134D01*
X55435911Y-65082204D01*
X55489002Y-65094950D01*
X55684938Y-65141991D01*
X55684944Y-65141992D01*
X55689751Y-65143146D01*
X55950000Y-65163628D01*
X56210249Y-65143146D01*
X56215056Y-65141992D01*
X56215062Y-65141991D01*
X56410998Y-65094950D01*
X56464089Y-65082204D01*
X56495643Y-65069134D01*
X56700697Y-64984198D01*
X56700701Y-64984196D01*
X56705271Y-64982303D01*
X56927856Y-64845903D01*
X57126363Y-64676363D01*
X57295903Y-64477856D01*
X57432303Y-64255271D01*
X57439098Y-64238868D01*
X57530310Y-64018662D01*
X57530311Y-64018660D01*
X57532204Y-64014089D01*
X57557931Y-63906931D01*
X57591991Y-63765062D01*
X57591992Y-63765056D01*
X57593146Y-63760249D01*
X57613628Y-63500000D01*
X57593146Y-63239751D01*
X57591992Y-63234944D01*
X57591991Y-63234938D01*
X57546950Y-63047334D01*
X57532204Y-62985911D01*
X57527220Y-62973879D01*
X57434198Y-62749303D01*
X57434196Y-62749299D01*
X57432303Y-62744729D01*
X57295903Y-62522144D01*
X57126363Y-62323637D01*
X56927856Y-62154097D01*
X56705271Y-62017697D01*
X56700701Y-62015804D01*
X56700697Y-62015802D01*
X56468662Y-61919690D01*
X56468660Y-61919689D01*
X56464089Y-61917796D01*
X56316822Y-61882440D01*
X56215062Y-61858009D01*
X56215056Y-61858008D01*
X56210249Y-61856854D01*
X55950000Y-61836372D01*
X55689751Y-61856854D01*
X55684944Y-61858008D01*
X55684938Y-61858009D01*
X55583178Y-61882440D01*
X55435911Y-61917796D01*
X55431340Y-61919689D01*
X55431338Y-61919690D01*
X55199303Y-62015802D01*
X55199299Y-62015804D01*
X55194729Y-62017697D01*
X54972144Y-62154097D01*
X54773637Y-62323637D01*
X54604097Y-62522144D01*
X54467697Y-62744729D01*
X54465804Y-62749299D01*
X54465802Y-62749303D01*
X54372780Y-62973879D01*
X54367796Y-62985911D01*
X54353050Y-63047334D01*
X54308009Y-63234938D01*
X54308008Y-63234944D01*
X54306854Y-63239751D01*
X54286372Y-63500000D01*
X48808500Y-63500000D01*
X48808500Y-59255973D01*
X56259273Y-59255973D01*
X56263032Y-59261269D01*
X56459066Y-59375822D01*
X56468349Y-59380269D01*
X56684206Y-59462697D01*
X56694108Y-59465574D01*
X56920511Y-59511636D01*
X56930764Y-59512859D01*
X57161657Y-59521326D01*
X57171943Y-59520859D01*
X57401132Y-59491499D01*
X57411210Y-59489357D01*
X57632522Y-59422960D01*
X57642120Y-59419199D01*
X57849617Y-59317547D01*
X57858462Y-59312274D01*
X57928115Y-59262591D01*
X57933311Y-59255973D01*
X61059273Y-59255973D01*
X61063032Y-59261269D01*
X61259066Y-59375822D01*
X61268349Y-59380269D01*
X61484206Y-59462697D01*
X61494108Y-59465574D01*
X61720511Y-59511636D01*
X61730764Y-59512859D01*
X61961657Y-59521326D01*
X61971943Y-59520859D01*
X62201132Y-59491499D01*
X62211210Y-59489357D01*
X62432522Y-59422960D01*
X62442120Y-59419199D01*
X62649617Y-59317547D01*
X62658462Y-59312274D01*
X62728115Y-59262591D01*
X62736516Y-59251891D01*
X62729528Y-59238738D01*
X61912812Y-58422022D01*
X61898868Y-58414408D01*
X61897035Y-58414539D01*
X61890420Y-58418790D01*
X61066534Y-59242676D01*
X61059273Y-59255973D01*
X57933311Y-59255973D01*
X57936516Y-59251891D01*
X57929528Y-59238738D01*
X57112812Y-58422022D01*
X57098868Y-58414408D01*
X57097035Y-58414539D01*
X57090420Y-58418790D01*
X56266534Y-59242676D01*
X56259273Y-59255973D01*
X48808500Y-59255973D01*
X48808500Y-57995987D01*
X50118721Y-57995987D01*
X50127548Y-58007605D01*
X50350281Y-58169430D01*
X50356961Y-58173670D01*
X50626572Y-58321890D01*
X50633707Y-58325247D01*
X50919770Y-58438508D01*
X50927296Y-58440953D01*
X51225279Y-58517462D01*
X51233050Y-58518945D01*
X51538278Y-58557503D01*
X51546169Y-58558000D01*
X51853831Y-58558000D01*
X51861722Y-58557503D01*
X52166950Y-58518945D01*
X52174721Y-58517462D01*
X52472704Y-58440953D01*
X52480230Y-58438508D01*
X52766293Y-58325247D01*
X52773428Y-58321890D01*
X53043039Y-58173670D01*
X53049719Y-58169430D01*
X53256539Y-58019167D01*
X55627706Y-58019167D01*
X55641006Y-58249838D01*
X55642442Y-58260058D01*
X55693238Y-58485454D01*
X55696317Y-58495282D01*
X55783249Y-58709370D01*
X55787892Y-58718561D01*
X55886464Y-58879416D01*
X55896921Y-58888876D01*
X55905697Y-58885093D01*
X56727978Y-58062812D01*
X56734356Y-58051132D01*
X57464408Y-58051132D01*
X57464539Y-58052965D01*
X57468790Y-58059580D01*
X58289296Y-58880086D01*
X58301306Y-58886645D01*
X58313046Y-58877677D01*
X58359616Y-58812867D01*
X58364927Y-58804028D01*
X58467296Y-58596901D01*
X58471094Y-58587308D01*
X58538262Y-58366232D01*
X58540439Y-58356162D01*
X58570835Y-58125279D01*
X58571354Y-58118604D01*
X58572949Y-58053364D01*
X58572755Y-58046647D01*
X58570496Y-58019167D01*
X60427706Y-58019167D01*
X60441006Y-58249838D01*
X60442442Y-58260058D01*
X60493238Y-58485454D01*
X60496317Y-58495282D01*
X60583249Y-58709370D01*
X60587892Y-58718561D01*
X60686464Y-58879416D01*
X60696921Y-58888876D01*
X60705697Y-58885093D01*
X61527978Y-58062812D01*
X61534356Y-58051132D01*
X62264408Y-58051132D01*
X62264539Y-58052965D01*
X62268790Y-58059580D01*
X63089296Y-58880086D01*
X63101306Y-58886645D01*
X63113046Y-58877677D01*
X63159616Y-58812867D01*
X63164927Y-58804028D01*
X63267296Y-58596901D01*
X63271094Y-58587308D01*
X63338262Y-58366232D01*
X63340439Y-58356162D01*
X63370835Y-58125279D01*
X63371354Y-58118604D01*
X63372949Y-58053364D01*
X63372755Y-58046647D01*
X63353675Y-57814567D01*
X63351992Y-57804405D01*
X63295703Y-57580306D01*
X63292382Y-57570551D01*
X63200252Y-57358667D01*
X63195374Y-57349570D01*
X63112616Y-57221645D01*
X63101930Y-57212442D01*
X63092365Y-57216845D01*
X62272022Y-58037188D01*
X62264408Y-58051132D01*
X61534356Y-58051132D01*
X61535592Y-58048868D01*
X61535461Y-58047035D01*
X61531210Y-58040420D01*
X60710687Y-57219897D01*
X60699151Y-57213597D01*
X60686868Y-57223221D01*
X60622126Y-57318129D01*
X60617028Y-57327103D01*
X60519750Y-57536670D01*
X60516187Y-57546357D01*
X60454442Y-57768999D01*
X60452511Y-57779118D01*
X60427958Y-58008878D01*
X60427706Y-58019167D01*
X58570496Y-58019167D01*
X58553675Y-57814567D01*
X58551992Y-57804405D01*
X58495703Y-57580306D01*
X58492382Y-57570551D01*
X58400252Y-57358667D01*
X58395374Y-57349570D01*
X58312616Y-57221645D01*
X58301930Y-57212442D01*
X58292365Y-57216845D01*
X57472022Y-58037188D01*
X57464408Y-58051132D01*
X56734356Y-58051132D01*
X56735592Y-58048868D01*
X56735461Y-58047035D01*
X56731210Y-58040420D01*
X55910687Y-57219897D01*
X55899151Y-57213597D01*
X55886868Y-57223221D01*
X55822126Y-57318129D01*
X55817028Y-57327103D01*
X55719750Y-57536670D01*
X55716187Y-57546357D01*
X55654442Y-57768999D01*
X55652511Y-57779118D01*
X55627958Y-58008878D01*
X55627706Y-58019167D01*
X53256539Y-58019167D01*
X53272823Y-58007336D01*
X53281246Y-57996413D01*
X53274342Y-57983552D01*
X51712812Y-56422022D01*
X51698868Y-56414408D01*
X51697035Y-56414539D01*
X51690420Y-56418790D01*
X50125334Y-57983876D01*
X50118721Y-57995987D01*
X48808500Y-57995987D01*
X48808500Y-56053958D01*
X49187290Y-56053958D01*
X49206607Y-56360994D01*
X49207600Y-56368855D01*
X49265246Y-56671046D01*
X49267217Y-56678723D01*
X49362284Y-56971309D01*
X49365199Y-56978672D01*
X49496189Y-57257041D01*
X49500001Y-57263974D01*
X49664851Y-57523736D01*
X49669495Y-57530129D01*
X49744497Y-57620790D01*
X49757014Y-57629245D01*
X49767752Y-57623038D01*
X51327978Y-56062812D01*
X51334356Y-56051132D01*
X52064408Y-56051132D01*
X52064539Y-56052965D01*
X52068790Y-56059580D01*
X53631145Y-57621935D01*
X53644407Y-57629177D01*
X53654512Y-57621988D01*
X53730505Y-57530129D01*
X53735149Y-57523736D01*
X53899999Y-57263974D01*
X53903811Y-57257041D01*
X54034801Y-56978672D01*
X54037716Y-56971309D01*
X54077828Y-56847857D01*
X56262652Y-56847857D01*
X56269397Y-56860187D01*
X57087188Y-57677978D01*
X57101132Y-57685592D01*
X57102965Y-57685461D01*
X57109580Y-57681210D01*
X57931710Y-56859080D01*
X57938731Y-56846223D01*
X57930959Y-56835556D01*
X57919218Y-56826283D01*
X57910637Y-56820583D01*
X57708355Y-56708918D01*
X57698956Y-56704693D01*
X57481155Y-56627565D01*
X57471184Y-56624931D01*
X57243713Y-56584412D01*
X57233461Y-56583443D01*
X57002417Y-56580620D01*
X56992133Y-56581340D01*
X56763741Y-56616289D01*
X56753713Y-56618678D01*
X56534096Y-56690460D01*
X56524586Y-56694457D01*
X56319646Y-56801142D01*
X56310921Y-56806636D01*
X56271106Y-56836530D01*
X56262652Y-56847857D01*
X54077828Y-56847857D01*
X54132783Y-56678723D01*
X54134754Y-56671046D01*
X54192400Y-56368855D01*
X54193393Y-56360994D01*
X54212710Y-56053958D01*
X54212710Y-56046042D01*
X54193393Y-55739006D01*
X54192400Y-55731145D01*
X54134754Y-55428954D01*
X54132783Y-55421277D01*
X54037716Y-55128691D01*
X54034801Y-55121328D01*
X53903811Y-54842959D01*
X53899999Y-54836026D01*
X53735149Y-54576264D01*
X53730505Y-54569871D01*
X53655503Y-54479210D01*
X53642986Y-54470755D01*
X53632248Y-54476962D01*
X52072022Y-56037188D01*
X52064408Y-56051132D01*
X51334356Y-56051132D01*
X51335592Y-56048868D01*
X51335461Y-56047035D01*
X51331210Y-56040420D01*
X49768855Y-54478065D01*
X49755593Y-54470823D01*
X49745488Y-54478012D01*
X49669495Y-54569871D01*
X49664851Y-54576264D01*
X49500001Y-54836026D01*
X49496189Y-54842959D01*
X49365199Y-55121328D01*
X49362284Y-55128691D01*
X49267217Y-55421277D01*
X49265246Y-55428954D01*
X49207600Y-55731145D01*
X49206607Y-55739006D01*
X49187290Y-56046042D01*
X49187290Y-56053958D01*
X48808500Y-56053958D01*
X48808500Y-54103587D01*
X50118754Y-54103587D01*
X50125658Y-54116448D01*
X51687188Y-55677978D01*
X51701132Y-55685592D01*
X51702965Y-55685461D01*
X51709580Y-55681210D01*
X52934817Y-54455973D01*
X56259273Y-54455973D01*
X56263032Y-54461269D01*
X56459066Y-54575822D01*
X56468349Y-54580269D01*
X56684206Y-54662697D01*
X56694108Y-54665574D01*
X56920511Y-54711636D01*
X56930764Y-54712859D01*
X57161657Y-54721326D01*
X57171943Y-54720859D01*
X57401132Y-54691499D01*
X57411210Y-54689357D01*
X57632522Y-54622960D01*
X57642120Y-54619199D01*
X57849617Y-54517547D01*
X57858462Y-54512274D01*
X57928115Y-54462591D01*
X57936516Y-54451891D01*
X57929528Y-54438738D01*
X57112812Y-53622022D01*
X57098868Y-53614408D01*
X57097035Y-53614539D01*
X57090420Y-53618790D01*
X56266534Y-54442676D01*
X56259273Y-54455973D01*
X52934817Y-54455973D01*
X53274666Y-54116124D01*
X53281279Y-54104013D01*
X53272452Y-54092395D01*
X53049719Y-53930570D01*
X53043039Y-53926330D01*
X52773428Y-53778110D01*
X52766293Y-53774753D01*
X52480230Y-53661492D01*
X52472704Y-53659047D01*
X52174721Y-53582538D01*
X52166950Y-53581055D01*
X51861722Y-53542497D01*
X51853831Y-53542000D01*
X51546169Y-53542000D01*
X51538278Y-53542497D01*
X51233050Y-53581055D01*
X51225279Y-53582538D01*
X50927296Y-53659047D01*
X50919770Y-53661492D01*
X50633707Y-53774753D01*
X50626572Y-53778110D01*
X50356961Y-53926330D01*
X50350281Y-53930570D01*
X50127177Y-54092664D01*
X50118754Y-54103587D01*
X48808500Y-54103587D01*
X48808500Y-53219167D01*
X55627706Y-53219167D01*
X55641006Y-53449838D01*
X55642442Y-53460058D01*
X55693238Y-53685454D01*
X55696317Y-53695282D01*
X55783249Y-53909370D01*
X55787892Y-53918561D01*
X55886464Y-54079416D01*
X55896921Y-54088876D01*
X55905697Y-54085093D01*
X56727978Y-53262812D01*
X56734356Y-53251132D01*
X57464408Y-53251132D01*
X57464539Y-53252965D01*
X57468790Y-53259580D01*
X58289296Y-54080086D01*
X58301306Y-54086645D01*
X58313046Y-54077677D01*
X58359616Y-54012867D01*
X58364927Y-54004028D01*
X58467296Y-53796901D01*
X58471094Y-53787308D01*
X58538262Y-53566232D01*
X58540439Y-53556162D01*
X58570835Y-53325279D01*
X58571354Y-53318604D01*
X58572949Y-53253364D01*
X58572755Y-53246647D01*
X58570496Y-53219167D01*
X60427706Y-53219167D01*
X60441006Y-53449838D01*
X60442442Y-53460058D01*
X60493238Y-53685454D01*
X60496317Y-53695282D01*
X60583249Y-53909370D01*
X60587892Y-53918561D01*
X60686464Y-54079416D01*
X60696921Y-54088876D01*
X60705697Y-54085093D01*
X61527978Y-53262812D01*
X61534356Y-53251132D01*
X62264408Y-53251132D01*
X62264539Y-53252965D01*
X62268790Y-53259580D01*
X63089296Y-54080086D01*
X63101306Y-54086645D01*
X63113046Y-54077677D01*
X63159616Y-54012867D01*
X63164927Y-54004028D01*
X63267296Y-53796901D01*
X63271094Y-53787308D01*
X63338262Y-53566232D01*
X63340439Y-53556162D01*
X63370835Y-53325279D01*
X63371354Y-53318604D01*
X63372949Y-53253364D01*
X63372755Y-53246647D01*
X63366385Y-53169167D01*
X71077706Y-53169167D01*
X71091006Y-53399838D01*
X71092442Y-53410058D01*
X71143238Y-53635454D01*
X71146317Y-53645282D01*
X71233249Y-53859370D01*
X71237892Y-53868561D01*
X71336464Y-54029416D01*
X71346921Y-54038876D01*
X71355697Y-54035093D01*
X72177978Y-53212812D01*
X72184356Y-53201132D01*
X72914408Y-53201132D01*
X72914539Y-53202965D01*
X72918790Y-53209580D01*
X73739296Y-54030086D01*
X73751306Y-54036645D01*
X73763046Y-54027677D01*
X73809616Y-53962867D01*
X73814927Y-53954028D01*
X73917296Y-53746901D01*
X73921094Y-53737308D01*
X73988262Y-53516232D01*
X73990439Y-53506162D01*
X74020835Y-53275279D01*
X74021354Y-53268604D01*
X74022949Y-53203364D01*
X74022755Y-53196647D01*
X74020496Y-53169167D01*
X75877706Y-53169167D01*
X75891006Y-53399838D01*
X75892442Y-53410058D01*
X75943238Y-53635454D01*
X75946317Y-53645282D01*
X76033249Y-53859370D01*
X76037892Y-53868561D01*
X76136464Y-54029416D01*
X76146921Y-54038876D01*
X76155697Y-54035093D01*
X76977978Y-53212812D01*
X76984356Y-53201132D01*
X77714408Y-53201132D01*
X77714539Y-53202965D01*
X77718790Y-53209580D01*
X78539296Y-54030086D01*
X78551306Y-54036645D01*
X78563046Y-54027677D01*
X78609616Y-53962867D01*
X78614927Y-53954028D01*
X78717296Y-53746901D01*
X78721094Y-53737308D01*
X78788262Y-53516232D01*
X78790439Y-53506162D01*
X78820835Y-53275279D01*
X78821354Y-53268604D01*
X78822949Y-53203364D01*
X78822755Y-53196647D01*
X78803675Y-52964567D01*
X78801992Y-52954405D01*
X78745703Y-52730306D01*
X78742382Y-52720551D01*
X78650252Y-52508667D01*
X78645374Y-52499570D01*
X78562616Y-52371645D01*
X78551930Y-52362442D01*
X78542365Y-52366845D01*
X77722022Y-53187188D01*
X77714408Y-53201132D01*
X76984356Y-53201132D01*
X76985592Y-53198868D01*
X76985461Y-53197035D01*
X76981210Y-53190420D01*
X76160687Y-52369897D01*
X76149151Y-52363597D01*
X76136868Y-52373221D01*
X76072126Y-52468129D01*
X76067028Y-52477103D01*
X75969750Y-52686670D01*
X75966187Y-52696357D01*
X75904442Y-52918999D01*
X75902511Y-52929118D01*
X75877958Y-53158878D01*
X75877706Y-53169167D01*
X74020496Y-53169167D01*
X74003675Y-52964567D01*
X74001992Y-52954405D01*
X73945703Y-52730306D01*
X73942382Y-52720551D01*
X73850252Y-52508667D01*
X73845374Y-52499570D01*
X73762616Y-52371645D01*
X73751930Y-52362442D01*
X73742365Y-52366845D01*
X72922022Y-53187188D01*
X72914408Y-53201132D01*
X72184356Y-53201132D01*
X72185592Y-53198868D01*
X72185461Y-53197035D01*
X72181210Y-53190420D01*
X71360687Y-52369897D01*
X71349151Y-52363597D01*
X71336868Y-52373221D01*
X71272126Y-52468129D01*
X71267028Y-52477103D01*
X71169750Y-52686670D01*
X71166187Y-52696357D01*
X71104442Y-52918999D01*
X71102511Y-52929118D01*
X71077958Y-53158878D01*
X71077706Y-53169167D01*
X63366385Y-53169167D01*
X63353675Y-53014567D01*
X63351992Y-53004405D01*
X63295703Y-52780306D01*
X63292382Y-52770551D01*
X63200252Y-52558667D01*
X63195374Y-52549570D01*
X63112616Y-52421645D01*
X63101930Y-52412442D01*
X63092365Y-52416845D01*
X62272022Y-53237188D01*
X62264408Y-53251132D01*
X61534356Y-53251132D01*
X61535592Y-53248868D01*
X61535461Y-53247035D01*
X61531210Y-53240420D01*
X60710687Y-52419897D01*
X60699151Y-52413597D01*
X60686868Y-52423221D01*
X60622126Y-52518129D01*
X60617028Y-52527103D01*
X60519750Y-52736670D01*
X60516187Y-52746357D01*
X60454442Y-52968999D01*
X60452511Y-52979118D01*
X60427958Y-53208878D01*
X60427706Y-53219167D01*
X58570496Y-53219167D01*
X58553675Y-53014567D01*
X58551992Y-53004405D01*
X58495703Y-52780306D01*
X58492382Y-52770551D01*
X58400252Y-52558667D01*
X58395374Y-52549570D01*
X58312616Y-52421645D01*
X58301930Y-52412442D01*
X58292365Y-52416845D01*
X57472022Y-53237188D01*
X57464408Y-53251132D01*
X56734356Y-53251132D01*
X56735592Y-53248868D01*
X56735461Y-53247035D01*
X56731210Y-53240420D01*
X55910687Y-52419897D01*
X55899151Y-52413597D01*
X55886868Y-52423221D01*
X55822126Y-52518129D01*
X55817028Y-52527103D01*
X55719750Y-52736670D01*
X55716187Y-52746357D01*
X55654442Y-52968999D01*
X55652511Y-52979118D01*
X55627958Y-53208878D01*
X55627706Y-53219167D01*
X48808500Y-53219167D01*
X48808500Y-52134500D01*
X48828502Y-52066379D01*
X48882158Y-52019886D01*
X48934500Y-52008500D01*
X56166427Y-52008500D01*
X56234548Y-52028502D01*
G37*
%TD.AperFunction*%
%TD*%
M02*
