M48
; DRILL file {KiCad (6.0.5-0)} date 2022 July 02, Saturday 10:29:53
; FORMAT={-:-/ absolute / inch / decimal}
; #@! TF.CreationDate,2022-07-02T10:29:53-05:00
; #@! TF.GenerationSoftware,Kicad,Pcbnew,(6.0.5-0)
; #@! TF.FileFunction,Plated,1,2,PTH
FMAT,2
INCH
; #@! TA.AperFunction,Plated,PTH,ComponentDrill
T1C0.0394
; #@! TA.AperFunction,Plated,PTH,ComponentDrill
T2C0.0433
; #@! TA.AperFunction,Plated,PTH,ComponentDrill
T3C0.0551
; #@! TA.AperFunction,Plated,PTH,ComponentDrill
T4C0.0669
; #@! TA.AperFunction,Plated,PTH,ComponentDrill
T5C0.0906
%
G90
G05
T1
X1.939Y-2.5197
X1.939Y-2.6535
X1.939Y-2.7874
X1.939Y-3.6216
X1.939Y-3.7554
X1.939Y-3.8893
X1.939Y-4.7205
X1.939Y-4.8543
X1.939Y-4.9882
X2.2146Y-2.5197
X2.2146Y-2.7874
X2.2146Y-3.6216
X2.2146Y-3.8893
X2.2146Y-4.7205
X2.2146Y-4.9882
X2.954Y-2.872
X2.954Y-3.9739
X2.954Y-5.0728
X3.1115Y-2.872
X3.1115Y-3.9739
X3.1115Y-5.0728
T2
X2.2165Y-2.1476
X2.2165Y-3.2495
X2.2165Y-4.3484
X2.8248Y-2.1457
X2.8248Y-3.2475
X2.8248Y-4.3465
X3.275Y-2.2728
X3.275Y-3.3747
X3.275Y-4.4736
X3.4685Y-2.1524
X3.4685Y-3.2542
X3.4685Y-4.3531
T3
X2.122Y-2.0531
X2.122Y-2.2421
X2.122Y-3.155
X2.122Y-3.344
X2.122Y-4.2539
X2.122Y-4.4429
X2.311Y-2.0531
X2.311Y-2.2421
X2.311Y-3.155
X2.311Y-3.344
X2.311Y-4.2539
X2.311Y-4.4429
X2.7303Y-2.0512
X2.7303Y-2.2402
X2.7303Y-3.1531
X2.7303Y-3.342
X2.7303Y-4.252
X2.7303Y-4.4409
X2.9193Y-2.0512
X2.9193Y-2.2402
X2.9193Y-3.1531
X2.9193Y-3.342
X2.9193Y-4.252
X2.9193Y-4.4409
T4
X2.0768Y-2.4567
X2.0768Y-2.8504
X2.0768Y-3.5586
X2.0768Y-3.9523
X2.0768Y-4.6575
X2.0768Y-5.0512
T5
X1.9094Y-2.1634
X1.9094Y-3.2653
X1.9094Y-4.3642
X3.6311Y-2.1575
X3.6311Y-3.2594
X3.6311Y-4.3583
T0
M30
