M48
; DRILL file {KiCad (6.0.5-0)} date 2022 July 01, Friday 09:39:52
; FORMAT={-:-/ absolute / inch / decimal}
; #@! TF.CreationDate,2022-07-01T09:39:52-05:00
; #@! TF.GenerationSoftware,Kicad,Pcbnew,(6.0.5-0)
; #@! TF.FileFunction,Plated,1,2,PTH
FMAT,2
INCH
; #@! TA.AperFunction,Plated,PTH,ComponentDrill
T1C0.0394
; #@! TA.AperFunction,Plated,PTH,ComponentDrill
T2C0.0433
; #@! TA.AperFunction,Plated,PTH,ComponentDrill
T3C0.0504
; #@! TA.AperFunction,Plated,PTH,ComponentDrill
T4C0.0669
; #@! TA.AperFunction,Plated,PTH,ComponentDrill
T5C0.0906
%
G90
G05
T1
X2.065Y-2.563
X2.065Y-2.6969
X2.065Y-2.8307
X2.3406Y-2.563
X2.3406Y-2.8307
X2.3425Y-2.1909
X2.9508Y-2.189
X3.0984Y-2.9154
X3.1984Y-2.9154
T2
X3.401Y-2.3161
X3.5945Y-2.1957
T3
X2.248Y-2.0965
X2.248Y-2.2854
X2.437Y-2.0965
X2.437Y-2.2854
X2.8563Y-2.0945
X2.8563Y-2.2835
X3.0453Y-2.0945
X3.0453Y-2.2835
T4
X2.2028Y-2.5
X2.2028Y-2.8937
T5
X2.0354Y-2.2067
X3.7571Y-2.2008
T0
M30
