%TF.GenerationSoftware,KiCad,Pcbnew,(6.0.5-0)*%
%TF.CreationDate,2022-07-02T10:30:04-05:00*%
%TF.ProjectId,AM_modulator,414d5f6d-6f64-4756-9c61-746f722e6b69,rev?*%
%TF.SameCoordinates,Original*%
%TF.FileFunction,Paste,Bot*%
%TF.FilePolarity,Positive*%
%FSLAX46Y46*%
G04 Gerber Fmt 4.6, Leading zero omitted, Abs format (unit mm)*
G04 Created by KiCad (PCBNEW (6.0.5-0)) date 2022-07-02 10:30:04*
%MOMM*%
%LPD*%
G01*
G04 APERTURE LIST*
G04 Aperture macros list*
%AMRoundRect*
0 Rectangle with rounded corners*
0 $1 Rounding radius*
0 $2 $3 $4 $5 $6 $7 $8 $9 X,Y pos of 4 corners*
0 Add a 4 corners polygon primitive as box body*
4,1,4,$2,$3,$4,$5,$6,$7,$8,$9,$2,$3,0*
0 Add four circle primitives for the rounded corners*
1,1,$1+$1,$2,$3*
1,1,$1+$1,$4,$5*
1,1,$1+$1,$6,$7*
1,1,$1+$1,$8,$9*
0 Add four rect primitives between the rounded corners*
20,1,$1+$1,$2,$3,$4,$5,0*
20,1,$1+$1,$4,$5,$6,$7,0*
20,1,$1+$1,$6,$7,$8,$9,0*
20,1,$1+$1,$8,$9,$2,$3,0*%
G04 Aperture macros list end*
%ADD10RoundRect,0.250000X-0.625000X0.312500X-0.625000X-0.312500X0.625000X-0.312500X0.625000X0.312500X0*%
%ADD11RoundRect,0.425000X-1.075000X-0.425000X1.075000X-0.425000X1.075000X0.425000X-1.075000X0.425000X0*%
%ADD12RoundRect,0.725000X-0.775000X-0.725000X0.775000X-0.725000X0.775000X0.725000X-0.775000X0.725000X0*%
%ADD13RoundRect,0.450000X-1.050000X-0.450000X1.050000X-0.450000X1.050000X0.450000X-1.050000X0.450000X0*%
%ADD14RoundRect,0.600000X-0.900000X-0.600000X0.900000X-0.600000X0.900000X0.600000X-0.900000X0.600000X0*%
%ADD15RoundRect,0.250000X0.475000X-0.337500X0.475000X0.337500X-0.475000X0.337500X-0.475000X-0.337500X0*%
%ADD16RoundRect,0.250000X0.337500X0.475000X-0.337500X0.475000X-0.337500X-0.475000X0.337500X-0.475000X0*%
%ADD17RoundRect,0.250000X-0.475000X0.337500X-0.475000X-0.337500X0.475000X-0.337500X0.475000X0.337500X0*%
%ADD18RoundRect,0.250000X-0.312500X-0.625000X0.312500X-0.625000X0.312500X0.625000X-0.312500X0.625000X0*%
%ADD19RoundRect,0.250000X-0.400000X-0.625000X0.400000X-0.625000X0.400000X0.625000X-0.400000X0.625000X0*%
%ADD20RoundRect,0.250000X0.625000X-0.400000X0.625000X0.400000X-0.625000X0.400000X-0.625000X-0.400000X0*%
%ADD21RoundRect,0.250000X-0.625000X0.400000X-0.625000X-0.400000X0.625000X-0.400000X0.625000X0.400000X0*%
%ADD22RoundRect,0.250000X0.312500X0.625000X-0.312500X0.625000X-0.312500X-0.625000X0.312500X-0.625000X0*%
%ADD23RoundRect,0.250000X0.400000X0.625000X-0.400000X0.625000X-0.400000X-0.625000X0.400000X-0.625000X0*%
%ADD24RoundRect,0.150000X0.150000X-0.587500X0.150000X0.587500X-0.150000X0.587500X-0.150000X-0.587500X0*%
%ADD25RoundRect,0.250000X-0.337500X-0.475000X0.337500X-0.475000X0.337500X0.475000X-0.337500X0.475000X0*%
%ADD26RoundRect,0.250000X0.625000X-0.312500X0.625000X0.312500X-0.625000X0.312500X-0.625000X-0.312500X0*%
%ADD27RoundRect,0.150000X0.587500X0.150000X-0.587500X0.150000X-0.587500X-0.150000X0.587500X-0.150000X0*%
G04 APERTURE END LIST*
D10*
%TO.C,SW4*%
X77200000Y-110887500D03*
X77200000Y-113812500D03*
%TD*%
D11*
%TO.C,J1*%
X92900000Y-122210000D03*
D12*
X92900000Y-128410000D03*
X82900000Y-121910000D03*
D13*
X92900000Y-125110000D03*
D14*
X82900000Y-126310000D03*
%TD*%
D15*
%TO.C,CMLO1*%
X74000000Y-118937500D03*
X74000000Y-116862500D03*
%TD*%
D16*
%TO.C,C1*%
X66414300Y-118728400D03*
X64339300Y-118728400D03*
%TD*%
D17*
%TO.C,Cpi1*%
X85970000Y-116112500D03*
X85970000Y-118187500D03*
%TD*%
D18*
%TO.C,SW2*%
X61637500Y-112550000D03*
X64562500Y-112550000D03*
%TD*%
D19*
%TO.C,RMb2*%
X76450000Y-116700000D03*
X79550000Y-116700000D03*
%TD*%
D15*
%TO.C,Cpi11*%
X88470000Y-118137500D03*
X88470000Y-116062500D03*
%TD*%
D20*
%TO.C,RMc1*%
X71250000Y-128400000D03*
X71250000Y-125300000D03*
%TD*%
D21*
%TO.C,R2*%
X63192400Y-125382600D03*
X63192400Y-128482600D03*
%TD*%
D22*
%TO.C,SW1*%
X64562500Y-115350000D03*
X61637500Y-115350000D03*
%TD*%
D23*
%TO.C,RMb1*%
X79550000Y-119500000D03*
X76450000Y-119500000D03*
%TD*%
D24*
%TO.C,Q1*%
X66453800Y-123018700D03*
X64553800Y-123018700D03*
X65503800Y-121143700D03*
%TD*%
D19*
%TO.C,RMe1*%
X76450000Y-122300000D03*
X79550000Y-122300000D03*
%TD*%
D16*
%TO.C,C2*%
X62172500Y-122995600D03*
X60097500Y-122995600D03*
%TD*%
D25*
%TO.C,Cpi21*%
X90912500Y-115400000D03*
X92987500Y-115400000D03*
%TD*%
%TO.C,CMa1*%
X73925000Y-124900000D03*
X76000000Y-124900000D03*
%TD*%
D26*
%TO.C,SW3*%
X71450000Y-118362500D03*
X71450000Y-115437500D03*
%TD*%
D17*
%TO.C,C3*%
X60500000Y-125412500D03*
X60500000Y-127487500D03*
%TD*%
D27*
%TO.C,QM1*%
X73937500Y-120950000D03*
X73937500Y-122850000D03*
X72062500Y-121900000D03*
%TD*%
D25*
%TO.C,Cpi2*%
X90860000Y-117870000D03*
X92935000Y-117870000D03*
%TD*%
D20*
%TO.C,R1*%
X66011800Y-128482600D03*
X66011800Y-125382600D03*
%TD*%
D17*
%TO.C,C5*%
X68655600Y-126378300D03*
X68655600Y-128453300D03*
%TD*%
D23*
%TO.C,R3*%
X62202400Y-120379400D03*
X59102400Y-120379400D03*
%TD*%
D15*
%TO.C,C4*%
X68729600Y-120559700D03*
X68729600Y-118484700D03*
%TD*%
D23*
%TO.C,R3*%
X62202400Y-92466900D03*
X59102400Y-92466900D03*
%TD*%
D19*
%TO.C,RMe1*%
X76450000Y-94387500D03*
X79550000Y-94387500D03*
%TD*%
D23*
%TO.C,RMb1*%
X79550000Y-91587500D03*
X76450000Y-91587500D03*
%TD*%
D17*
%TO.C,C3*%
X60500000Y-97500000D03*
X60500000Y-99575000D03*
%TD*%
D16*
%TO.C,C2*%
X62172500Y-95083100D03*
X60097500Y-95083100D03*
%TD*%
D27*
%TO.C,QM1*%
X73937500Y-93037500D03*
X73937500Y-94937500D03*
X72062500Y-93987500D03*
%TD*%
D25*
%TO.C,Cpi2*%
X90860000Y-89957500D03*
X92935000Y-89957500D03*
%TD*%
D20*
%TO.C,RMc1*%
X71250000Y-100487500D03*
X71250000Y-97387500D03*
%TD*%
D16*
%TO.C,C1*%
X66414300Y-90815900D03*
X64339300Y-90815900D03*
%TD*%
D17*
%TO.C,Cpi1*%
X85970000Y-88200000D03*
X85970000Y-90275000D03*
%TD*%
D21*
%TO.C,R2*%
X63192400Y-97470100D03*
X63192400Y-100570100D03*
%TD*%
D25*
%TO.C,Cpi21*%
X90912500Y-87487500D03*
X92987500Y-87487500D03*
%TD*%
%TO.C,CMa1*%
X73925000Y-96987500D03*
X76000000Y-96987500D03*
%TD*%
D10*
%TO.C,SW4*%
X77200000Y-82975000D03*
X77200000Y-85900000D03*
%TD*%
D11*
%TO.C,J1*%
X92900000Y-94297500D03*
D12*
X92900000Y-100497500D03*
X82900000Y-93997500D03*
D13*
X92900000Y-97197500D03*
D14*
X82900000Y-98397500D03*
%TD*%
D24*
%TO.C,Q1*%
X66453800Y-95106200D03*
X64553800Y-95106200D03*
X65503800Y-93231200D03*
%TD*%
D15*
%TO.C,Cpi11*%
X88470000Y-90225000D03*
X88470000Y-88150000D03*
%TD*%
D26*
%TO.C,SW3*%
X71450000Y-90450000D03*
X71450000Y-87525000D03*
%TD*%
D20*
%TO.C,R1*%
X66011800Y-100570100D03*
X66011800Y-97470100D03*
%TD*%
D17*
%TO.C,C5*%
X68655600Y-98465800D03*
X68655600Y-100540800D03*
%TD*%
D15*
%TO.C,C4*%
X68729600Y-92647200D03*
X68729600Y-90572200D03*
%TD*%
D19*
%TO.C,RMb2*%
X76450000Y-88787500D03*
X79550000Y-88787500D03*
%TD*%
D15*
%TO.C,CMLO1*%
X74000000Y-91025000D03*
X74000000Y-88950000D03*
%TD*%
D22*
%TO.C,SW1*%
X64562500Y-87437500D03*
X61637500Y-87437500D03*
%TD*%
D18*
%TO.C,SW2*%
X61637500Y-84637500D03*
X64562500Y-84637500D03*
%TD*%
%TO.C,SW2*%
X61637500Y-56650000D03*
X64562500Y-56650000D03*
%TD*%
D22*
%TO.C,SW1*%
X64562500Y-59450000D03*
X61637500Y-59450000D03*
%TD*%
D15*
%TO.C,CMLO1*%
X74000000Y-63037500D03*
X74000000Y-60962500D03*
%TD*%
D11*
%TO.C,J1*%
X92900000Y-66310000D03*
D12*
X92900000Y-72510000D03*
X82900000Y-66010000D03*
D13*
X92900000Y-69210000D03*
D14*
X82900000Y-70410000D03*
%TD*%
D10*
%TO.C,SW4*%
X77200000Y-54987500D03*
X77200000Y-57912500D03*
%TD*%
D24*
%TO.C,Q1*%
X66453800Y-67118700D03*
X64553800Y-67118700D03*
X65503800Y-65243700D03*
%TD*%
D25*
%TO.C,CMa1*%
X73925000Y-69000000D03*
X76000000Y-69000000D03*
%TD*%
D19*
%TO.C,RMb2*%
X76450000Y-60800000D03*
X79550000Y-60800000D03*
%TD*%
D15*
%TO.C,C4*%
X68729600Y-64659700D03*
X68729600Y-62584700D03*
%TD*%
D17*
%TO.C,C5*%
X68655600Y-70478300D03*
X68655600Y-72553300D03*
%TD*%
D20*
%TO.C,R1*%
X66011800Y-72582600D03*
X66011800Y-69482600D03*
%TD*%
D26*
%TO.C,SW3*%
X71450000Y-62462500D03*
X71450000Y-59537500D03*
%TD*%
D15*
%TO.C,Cpi11*%
X88470000Y-62237500D03*
X88470000Y-60162500D03*
%TD*%
D25*
%TO.C,Cpi21*%
X90912500Y-59500000D03*
X92987500Y-59500000D03*
%TD*%
D21*
%TO.C,R2*%
X63192400Y-69482600D03*
X63192400Y-72582600D03*
%TD*%
D17*
%TO.C,Cpi1*%
X85970000Y-60212500D03*
X85970000Y-62287500D03*
%TD*%
D16*
%TO.C,C1*%
X66414300Y-62828400D03*
X64339300Y-62828400D03*
%TD*%
D20*
%TO.C,RMc1*%
X71250000Y-72500000D03*
X71250000Y-69400000D03*
%TD*%
D25*
%TO.C,Cpi2*%
X90860000Y-61970000D03*
X92935000Y-61970000D03*
%TD*%
D27*
%TO.C,QM1*%
X73937500Y-65050000D03*
X73937500Y-66950000D03*
X72062500Y-66000000D03*
%TD*%
D16*
%TO.C,C2*%
X62172500Y-67095600D03*
X60097500Y-67095600D03*
%TD*%
D23*
%TO.C,RMb1*%
X79550000Y-63600000D03*
X76450000Y-63600000D03*
%TD*%
%TO.C,R3*%
X62202400Y-64479400D03*
X59102400Y-64479400D03*
%TD*%
D17*
%TO.C,C3*%
X60500000Y-69512500D03*
X60500000Y-71587500D03*
%TD*%
D19*
%TO.C,RMe1*%
X76450000Y-66400000D03*
X79550000Y-66400000D03*
%TD*%
M02*
