%TF.GenerationSoftware,KiCad,Pcbnew,(6.0.5-0)*%
%TF.CreationDate,2022-07-01T09:39:55-05:00*%
%TF.ProjectId,AM_modulator,414d5f6d-6f64-4756-9c61-746f722e6b69,rev?*%
%TF.SameCoordinates,Original*%
%TF.FileFunction,Paste,Bot*%
%TF.FilePolarity,Positive*%
%FSLAX46Y46*%
G04 Gerber Fmt 4.6, Leading zero omitted, Abs format (unit mm)*
G04 Created by KiCad (PCBNEW (6.0.5-0)) date 2022-07-01 09:39:55*
%MOMM*%
%LPD*%
G01*
G04 APERTURE LIST*
G04 Aperture macros list*
%AMRoundRect*
0 Rectangle with rounded corners*
0 $1 Rounding radius*
0 $2 $3 $4 $5 $6 $7 $8 $9 X,Y pos of 4 corners*
0 Add a 4 corners polygon primitive as box body*
4,1,4,$2,$3,$4,$5,$6,$7,$8,$9,$2,$3,0*
0 Add four circle primitives for the rounded corners*
1,1,$1+$1,$2,$3*
1,1,$1+$1,$4,$5*
1,1,$1+$1,$6,$7*
1,1,$1+$1,$8,$9*
0 Add four rect primitives between the rounded corners*
20,1,$1+$1,$2,$3,$4,$5,0*
20,1,$1+$1,$4,$5,$6,$7,0*
20,1,$1+$1,$6,$7,$8,$9,0*
20,1,$1+$1,$8,$9,$2,$3,0*%
G04 Aperture macros list end*
%ADD10RoundRect,0.250000X0.625000X-0.400000X0.625000X0.400000X-0.625000X0.400000X-0.625000X-0.400000X0*%
%ADD11RoundRect,0.250000X-0.625000X0.312500X-0.625000X-0.312500X0.625000X-0.312500X0.625000X0.312500X0*%
%ADD12RoundRect,0.250000X-0.312500X-0.625000X0.312500X-0.625000X0.312500X0.625000X-0.312500X0.625000X0*%
%ADD13RoundRect,0.250000X0.312500X0.625000X-0.312500X0.625000X-0.312500X-0.625000X0.312500X-0.625000X0*%
%ADD14RoundRect,0.250000X0.475000X-0.337500X0.475000X0.337500X-0.475000X0.337500X-0.475000X-0.337500X0*%
%ADD15RoundRect,0.425000X-1.075000X-0.425000X1.075000X-0.425000X1.075000X0.425000X-1.075000X0.425000X0*%
%ADD16RoundRect,0.725000X-0.775000X-0.725000X0.775000X-0.725000X0.775000X0.725000X-0.775000X0.725000X0*%
%ADD17RoundRect,0.450000X-1.050000X-0.450000X1.050000X-0.450000X1.050000X0.450000X-1.050000X0.450000X0*%
%ADD18RoundRect,0.600000X-0.900000X-0.600000X0.900000X-0.600000X0.900000X0.600000X-0.900000X0.600000X0*%
%ADD19RoundRect,0.150000X0.150000X-0.587500X0.150000X0.587500X-0.150000X0.587500X-0.150000X-0.587500X0*%
%ADD20RoundRect,0.250000X-0.337500X-0.475000X0.337500X-0.475000X0.337500X0.475000X-0.337500X0.475000X0*%
%ADD21RoundRect,0.250000X-0.400000X-0.625000X0.400000X-0.625000X0.400000X0.625000X-0.400000X0.625000X0*%
%ADD22RoundRect,0.250000X-0.475000X0.337500X-0.475000X-0.337500X0.475000X-0.337500X0.475000X0.337500X0*%
%ADD23RoundRect,0.250000X0.625000X-0.312500X0.625000X0.312500X-0.625000X0.312500X-0.625000X-0.312500X0*%
%ADD24RoundRect,0.250000X-0.625000X0.400000X-0.625000X-0.400000X0.625000X-0.400000X0.625000X0.400000X0*%
%ADD25RoundRect,0.250000X0.337500X0.475000X-0.337500X0.475000X-0.337500X-0.475000X0.337500X-0.475000X0*%
%ADD26RoundRect,0.150000X0.587500X0.150000X-0.587500X0.150000X-0.587500X-0.150000X0.587500X-0.150000X0*%
%ADD27RoundRect,0.250000X0.400000X0.625000X-0.400000X0.625000X-0.400000X-0.625000X0.400000X-0.625000X0*%
G04 APERTURE END LIST*
D10*
%TO.C,RMc1*%
X74450000Y-73600000D03*
X74450000Y-70500000D03*
%TD*%
D11*
%TO.C,SW4*%
X80400000Y-56087500D03*
X80400000Y-59012500D03*
%TD*%
D12*
%TO.C,SW2*%
X64837500Y-57750000D03*
X67762500Y-57750000D03*
%TD*%
D13*
%TO.C,SW1*%
X67762500Y-60550000D03*
X64837500Y-60550000D03*
%TD*%
D14*
%TO.C,CMLO1*%
X77200000Y-62062500D03*
X77200000Y-64137500D03*
%TD*%
D15*
%TO.C,J1*%
X96100000Y-67410000D03*
D16*
X96100000Y-73610000D03*
X86100000Y-67110000D03*
D17*
X96100000Y-70310000D03*
D18*
X86100000Y-71510000D03*
%TD*%
D19*
%TO.C,Q1*%
X69653800Y-68218700D03*
X67753800Y-68218700D03*
X68703800Y-66343700D03*
%TD*%
D20*
%TO.C,CMa1*%
X79200000Y-70100000D03*
X77125000Y-70100000D03*
%TD*%
D21*
%TO.C,RMb2*%
X82750000Y-61900000D03*
X79650000Y-61900000D03*
%TD*%
D14*
%TO.C,C4*%
X71929600Y-65759700D03*
X71929600Y-63684700D03*
%TD*%
D22*
%TO.C,C5*%
X71855600Y-71578300D03*
X71855600Y-73653300D03*
%TD*%
D10*
%TO.C,R1*%
X69211800Y-73682600D03*
X69211800Y-70582600D03*
%TD*%
D23*
%TO.C,SW3*%
X74650000Y-63562500D03*
X74650000Y-60637500D03*
%TD*%
D14*
%TO.C,Cpi11*%
X91670000Y-63337500D03*
X91670000Y-61262500D03*
%TD*%
D20*
%TO.C,Cpi21*%
X94112500Y-60600000D03*
X96187500Y-60600000D03*
%TD*%
D24*
%TO.C,R2*%
X66392400Y-70582600D03*
X66392400Y-73682600D03*
%TD*%
D22*
%TO.C,Cpi1*%
X89170000Y-61312500D03*
X89170000Y-63387500D03*
%TD*%
D25*
%TO.C,C1*%
X69614300Y-63928400D03*
X67539300Y-63928400D03*
%TD*%
D20*
%TO.C,Cpi2*%
X94060000Y-63070000D03*
X96135000Y-63070000D03*
%TD*%
D26*
%TO.C,QM1*%
X75262500Y-67100000D03*
X77137500Y-68050000D03*
X77137500Y-66150000D03*
%TD*%
D25*
%TO.C,C2*%
X65372500Y-68195600D03*
X63297500Y-68195600D03*
%TD*%
D27*
%TO.C,RMb1*%
X79650000Y-64700000D03*
X82750000Y-64700000D03*
%TD*%
%TO.C,R3*%
X65402400Y-65579400D03*
X62302400Y-65579400D03*
%TD*%
D22*
%TO.C,C3*%
X63700000Y-70612500D03*
X63700000Y-72687500D03*
%TD*%
D21*
%TO.C,RMe1*%
X82750000Y-67500000D03*
X79650000Y-67500000D03*
%TD*%
M02*
